<svg width="400" height="400" xmlns="http://www.w3.org/2000/svg"><path d="M187.625 1.397c0 .51-1.065.599-7.186.599s-7.186.089-7.186.599c0 .494-.731.599-4.191.599s-4.192.104-4.192.598c0 .479-.599.599-2.994.599-2.395 0-2.994.12-2.994.599 0 .476-.578.599-2.807.599-2.127 0-2.862.145-3.036.599-.166.43-.839.598-2.396.598-1.556 0-2.23.169-2.395.599-.165.43-.837.599-2.383.599-1.647 0-2.152.141-2.152.599 0 .443-.466.599-1.797.599s-1.796.155-1.796.598c0 .444-.466.599-1.797.599-1.33 0-1.796.155-1.796.599 0 .444-.466.599-1.796.599-1.331 0-1.797.155-1.797.599 0 .443-.466.598-1.796.598-1.331 0-1.797.156-1.797.599 0 .444-.465.599-1.796.599-.988 0-1.796.18-1.796.399 0 .22-.539.399-1.198.399-.747 0-1.198.206-1.198.547 0 .34-.636.631-1.688.772-.928.125-1.751.418-1.829.652-.078.233-.582.425-1.119.425-.538 0-1.081.269-1.207.598-.127.33-.666.599-1.198.599-.532 0-1.071.27-1.198.599-.126.329-.665.599-1.197.599s-1.071.269-1.198.599c-.126.329-.665.598-1.197.598-.533 0-1.072.27-1.198.599-.126.33-.665.599-1.198.599-.532 0-1.071.27-1.197.599-.127.329-.666.599-1.198.599-.532 0-1.071.269-1.197.598-.127.33-.666.599-1.198.599-.532 0-1.071.27-1.198.599-.126.329-.65.599-1.165.599-.514 0-1.079.224-1.255.499-.175.274-1.013.853-1.862 1.285-.849.433-1.631 1.017-1.739 1.298-.108.281-.632.511-1.164.511-.533 0-1.071.269-1.198.599-.126.329-.53.598-.896.598-.367 0-1.257.539-1.978 1.198-.721.659-1.576 1.198-1.898 1.198-.323 0-.69.269-.817.598-.126.33-.485.599-.798.599-.313 0-.672.27-.798.599-.127.329-.576.599-.998.599-.423 0-.872.269-.998.599-.127.329-.486.598-.799.598-.313 0-.672.27-.798.599-.127.329-.48.599-.786.599-.306 0-.556.269-.556.599 0 .331-.354.599-.791.599-.837 0-3.6 2.425-3.6 3.16 0 .238-.539.432-1.198.432-.798 0-1.198.2-1.198.599a.6.6 0 0 1-.598.599.6.6 0 0 0-.599.599c0 .329-.27.599-.599.599a.6.6 0 0 0-.599.598.6.6 0 0 1-.599.599.601.601 0 0 0-.599.599c0 .375-.378.599-1.01.599-.556 0-1.114.269-1.24.599-.127.329-.48.598-.786.598-.306 0-.556.27-.556.599a.6.6 0 0 1-.599.599.6.6 0 0 0-.599.599.6.6 0 0 1-.599.599.6.6 0 0 0-.599.598.6.6 0 0 1-.598.599.6.6 0 0 0-.599.599c0 .329-.27.599-.599.599a.6.6 0 0 0-.599.599.6.6 0 0 1-.599.598.6.6 0 0 0-.598.599.6.6 0 0 1-.599.599.6.6 0 0 0-.599.599.6.6 0 0 1-.599.599.6.6 0 0 0-.599.598.6.6 0 0 1-.598.599.6.6 0 0 0-.599.599c0 .329-.27.599-.599.599a.6.6 0 0 0-.599.599.6.6 0 0 1-.599.598.6.6 0 0 0-.598.599.6.6 0 0 1-.599.599.6.6 0 0 0-.599.599.6.6 0 0 1-.599.599.6.6 0 0 0-.599.598.6.6 0 0 1-.598.599.6.6 0 0 0-.599.599c0 .329-.27.599-.599.599a.6.6 0 0 0-.599.599.6.6 0 0 1-.599.598.6.6 0 0 0-.598.599.6.6 0 0 1-.599.599.6.6 0 0 0-.599.599.6.6 0 0 1-.599.599.6.6 0 0 0-.599.598.6.6 0 0 1-.598.599c-.33 0-.599.251-.599.556 0 .306-.27.66-.599.786-.329.127-.599.685-.599 1.241 0 .632-.224 1.01-.599 1.01a.6.6 0 0 0-.598.599c0 .329-.27.599-.599.599a.6.6 0 0 0-.599.599.6.6 0 0 1-.599.598c-.329 0-.599.251-.599.556 0 .306-.269.66-.598.786-.33.127-.599.685-.599 1.241 0 .632-.224 1.01-.599 1.01a.601.601 0 0 0-.599.599.6.6 0 0 1-.599.599c-.329 0-.598.25-.598.556 0 .306-.27.659-.599.786-.33.126-.599.684-.599 1.24 0 .632-.224 1.011-.599 1.011a.6.6 0 0 0-.599.598.6.6 0 0 1-.598.599c-.33 0-.599.25-.599.556 0 .306-.27.66-.599.786-.329.126-.599.685-.599 1.24 0 .633-.224 1.011-.599 1.011-.329 0-.598.25-.598.556 0 .306-.27.66-.599.786-.33.126-.599.684-.599 1.24 0 .632-.224 1.011-.599 1.011-.336 0-.599.356-.599.812 0 .446-.539 1.338-1.197 1.982-.659.644-1.198 1.517-1.198 1.94 0 .423-.269.873-.599.999-.329.126-.598.665-.598 1.198 0 .532-.27 1.071-.599 1.197-.33.127-.599.505-.599.841 0 .337-.176.612-.392.612-.215 0-.502.441-.638.981-.135.54-.498 1.191-.806 1.446-.307.256-.559.78-.559 1.165 0 .386-.27.925-.599 1.198-.329.273-.599.815-.599 1.204s-.269.81-.599.936c-.329.127-.599.666-.599 1.198 0 .532-.269 1.071-.598 1.198-.33.126-.599.684-.599 1.24 0 .556-.176 1.01-.392 1.01-.215 0-.515.493-.666 1.094-.151.602-.514 1.333-.806 1.626-.292.292-.537.833-.544 1.201-.007.369-.276 1.019-.599 1.445-.322.426-.586 1.26-.586 1.854 0 .593-.269 1.182-.599 1.308-.329.126-.599.665-.599 1.198 0 .532-.269 1.071-.598 1.197-.392.15-.599.772-.599 1.797 0 1.024-.207 1.646-.599 1.796-.329.126-.599.685-.599 1.24 0 .556-.179 1.011-.399 1.011-.22 0-.399.808-.399 1.796 0 1.331-.155 1.797-.599 1.797-.444 0-.599.465-.599 1.796s-.155 1.797-.599 1.797c-.443 0-.598.465-.598 1.796s-.156 1.796-.599 1.796c-.466 0-.599.533-.599 2.396s-.133 2.395-.599 2.395c-.466 0-.599.532-.599 2.395s-.133 2.395-.598 2.395c-.466 0-.599.532-.599 2.395s-.133 2.396-.599 2.396c-.479 0-.599.598-.599 2.994 0 2.395-.12 2.994-.599 2.994s-.598.598-.598 2.994c0 2.395-.12 2.994-.599 2.994-.497 0-.599.771-.599 4.548 0 3.674-.115 4.592-.599 4.778-.51.195-.599 1.708-.599 10.222 0 6.396-.143 9.993-.399 9.993-.222 0-.399 1.064-.399 2.395 0 1.33.177 2.395.399 2.395.256 0 .399 3.797.399 10.591 0 9.047.088 10.625.599 10.822.477.182.599 1.038.599 4.191 0 3.154.122 4.009.599 4.192.467.179.599.971.599 3.593 0 2.621.132 3.413.598 3.592.453.174.599.904.599 2.982 0 2.18.125 2.752.599 2.752.466 0 .599.532.599 2.395s.133 2.395.599 2.395c.465 0 .598.532.598 2.395s.133 2.395.599 2.395c.444 0 .599.466.599 1.797 0 1.33.155 1.796.599 1.796.443 0 .599.466.599 1.797 0 1.33.155 1.796.598 1.796.444 0 .599.466.599 1.796 0 1.331.155 1.797.599 1.797.444 0 .599.466.599 1.796 0 .988.179 1.797.399 1.797.22 0 .399.724.399 1.609 0 1.062.204 1.687.599 1.839.329.127.599.665.599 1.198 0 .532.269 1.071.599 1.197.391.151.598.772.598 1.797 0 1.024.208 1.646.599 1.796.33.127.599.665.599 1.198 0 .532.27 1.071.599 1.197.341.131.599.727.599 1.385 0 .76.204 1.155.598 1.155.4 0 .599.399.599 1.198 0 .747.206 1.197.547 1.197.338 0 .63.629.768 1.654.122.91.37 1.764.551 1.897.182.133.684.936 1.116 1.785.433.849 1.017 1.631 1.298 1.739.281.108.511.632.511 1.164 0 .532.269 1.071.598 1.198.33.126.599.665.599 1.197 0 .533.27 1.071.599 1.198.329.126.599.665.599 1.197 0 .533.269 1.072.599 1.198.329.126.599.548.599.937 0 .388.269.93.598 1.203.33.274.599.745.599 1.047 0 .303.27.55.599.55.374 0 .599.379.599 1.011 0 .556.269 1.114.599 1.24.329.126.598.576.598.998 0 .423.27.872.599.998.329.126.599.486.599.798 0 .313.269.672.599.799.329.126.599.575.599.998 0 .422.269.872.598.998.33.126.599.486.599.798 0 .313.27.672.599.799.329.126.599.48.599.786 0 .305.269.556.599.556.374 0 .598.378.598 1.01 0 .556.27 1.114.599 1.241.329.126.599.48.599.785 0 .306.269.556.599.556.372 0 .599.377.599.998s.226.998.598.998a.6.6 0 0 1 .599.599.6.6 0 0 0 .599.599c.329 0 .599.27.599.599a.6.6 0 0 0 .599.599c.374 0 .598.378.598 1.01 0 .556.27 1.114.599 1.241.33.126.599.48.599.785 0 .306.269.557.599.557a.6.6 0 0 1 .599.598.6.6 0 0 0 .598.599.6.6 0 0 1 .599.599c0 .329.27.599.599.599a.6.6 0 0 1 .599.599.6.6 0 0 0 .599.598c.358 0 .598.368.598.917 0 .529.5 1.331 1.181 1.896.649.539 1.188 1.204 1.198 1.479.009.274.286.499.615.499a.6.6 0 0 1 .599.599.6.6 0 0 0 .599.598c.329 0 .599.27.599.599a.6.6 0 0 0 .599.599.6.6 0 0 1 .598.599c0 .329.27.599.599.599a.6.6 0 0 1 .599.598.6.6 0 0 0 .599.599c.329 0 .599.27.599.599a.6.6 0 0 0 .598.599.6.6 0 0 1 .599.599.6.6 0 0 0 .599.598c.329 0 .599.27.599.599a.6.6 0 0 0 .599.599.6.6 0 0 1 .598.599c0 .329.27.599.599.599a.6.6 0 0 1 .599.598.6.6 0 0 0 .599.599c.329 0 .599.27.599.599a.6.6 0 0 0 .598.599.6.6 0 0 1 .599.599.6.6 0 0 0 .599.598c.329 0 .599.27.599.599a.6.6 0 0 0 .599.599.6.6 0 0 1 .598.599c0 .399.4.599 1.198.599.798 0 1.198.199 1.198.598a.6.6 0 0 0 .598.599.6.6 0 0 1 .599.599c0 .329.27.599.599.599a.6.6 0 0 1 .599.599.6.6 0 0 0 .599.598.6.6 0 0 1 .598.599c0 .33.251.599.557.599.305 0 .659.269.785.599.127.329.685.599 1.241.599.632 0 1.01.224 1.01.598a.6.6 0 0 0 .599.599c.329 0 .599.27.599.599a.6.6 0 0 0 .599.599.6.6 0 0 1 .599.599.6.6 0 0 0 .598.598.6.6 0 0 1 .599.599c0 .35.374.606.898.616.494.009 1.339.548 1.878 1.198.565.681 1.367 1.18 1.896 1.18.549 0 .917.241.917.599 0 .329.25.599.556.599.306 0 .66.269.786.599.126.329.684.598 1.24.598.632 0 1.011.225 1.011.599 0 .33.25.599.556.599.306 0 .659.27.786.599.126.329.684.599 1.24.599.632 0 1.011.224 1.011.598 0 .33.25.599.556.599.306 0 .659.27.786.599.126.329.684.599 1.24.599.632 0 1.01.224 1.01.599 0 .399.4.598 1.198.598.798 0 1.198.2 1.198.599 0 .33.192.599.427.599.236 0 .697.27 1.027.599.329.329.926.599 1.326.599s.83.269.957.598c.126.33.684.599 1.24.599.632 0 1.011.225 1.011.599 0 .399.399.599 1.197.599.799 0 1.198.2 1.198.599 0 .399.399.599 1.197.599.799 0 1.198.199 1.198.598 0 .4.399.599 1.198.599.798 0 1.197.2 1.197.599 0 .399.399.599 1.198.599.798 0 1.197.199 1.197.599 0 .399.4.598 1.198.598.798 0 1.198.2 1.198.599 0 .399.399.599 1.197.599.799 0 1.198.2 1.198.599 0 .443.466.599 1.796.599 1.331 0 1.797.155 1.797.598 0 .395.394.599 1.155.599.658 0 1.253.258 1.384.599.152.395.777.599 1.839.599 1.165 0 1.61.165 1.61.599 0 .395.395.598 1.164.598.64 0 1.226.184 1.301.409.075.225.853.521 1.729.659.877.138 1.738.493 1.913.789.18.303.991.539 1.854.539.995 0 1.615.21 1.764.598.145.379.758.599 1.668.599.791 0 1.708.27 2.037.599.348.347 1.323.599 2.324.599 1.165 0 1.8.194 1.955.599.165.43.839.598 2.395.598 1.557 0 2.23.169 2.395.599.165.43.838.599 2.389.599 1.433 0 2.327.202 2.657.599.339.409 1.247.599 2.871.599 1.579 0 2.576.2 2.974.598.43.431 1.478.599 3.721.599 2.407 0 3.175.137 3.352.599.186.484 1.106.599 4.8.599 3.302 0 4.617.138 4.737.499.13.39 4.619.499 20.658.499s20.529-.109 20.659-.499c.12-.361 1.435-.499 4.736-.499 3.695 0 4.615-.115 4.8-.599.179-.467.972-.599 3.593-.599s3.414-.132 3.593-.599c.174-.452.905-.598 2.994-.598 2.089 0 2.82-.147 2.994-.599.165-.431.839-.599 2.395-.599 1.557 0 2.23-.168 2.395-.599.166-.43.839-.599 2.396-.599 1.556 0 2.23-.168 2.395-.598.155-.405.79-.599 1.955-.599 1.001 0 1.976-.252 2.324-.599.329-.329 1.218-.599 1.975-.599.758 0 1.601-.269 1.874-.599.274-.329 1.082-.598 1.797-.598.714 0 1.523-.27 1.796-.599.273-.33 1.001-.599 1.617-.599.616 0 1.39-.27 1.719-.599.33-.329 1.061-.599 1.626-.599.646 0 1.026-.221 1.026-.598 0-.434.445-.599 1.609-.599 1.063 0 1.688-.204 1.84-.599.131-.341.726-.599 1.384-.599.761 0 1.155-.204 1.155-.599 0-.443.466-.598 1.797-.598 1.33 0 1.796-.156 1.796-.599 0-.399.399-.599 1.198-.599.798 0 1.197-.2 1.197-.599 0-.399.399-.599 1.198-.599.798 0 1.197-.199 1.197-.598 0-.4.4-.599 1.198-.599.798 0 1.198-.2 1.198-.599 0-.399.399-.599 1.197-.599.799 0 1.198-.199 1.198-.599 0-.399.399-.598 1.197-.598.799 0 1.198-.2 1.198-.599 0-.399.399-.599 1.198-.599.798 0 1.197-.2 1.197-.599 0-.399.399-.599 1.198-.599.798 0 1.197-.199 1.197-.599 0-.374.379-.598 1.011-.598.556 0 1.114-.27 1.24-.599.127-.329.48-.599.786-.599.306 0 .556-.269.556-.599 0-.399.399-.599 1.198-.599.798 0 1.197-.199 1.197-.598 0-.375.379-.599 1.011-.599.556 0 1.114-.27 1.24-.599.127-.329.48-.599.786-.599.306 0 .556-.269.556-.599 0-.399.399-.598 1.198-.598.798 0 1.197-.2 1.197-.599 0-.329.27-.599.599-.599a.6.6 0 0 0 .599-.599c0-.399.399-.599 1.198-.599.798 0 1.197-.199 1.197-.598a.6.6 0 0 1 .599-.599c.329 0 .599-.27.599-.599 0-.375.378-.599 1.01-.599.556 0 1.114-.269 1.241-.599.126-.329.48-.598.786-.598.305 0 .556-.27.556-.599 0-.375.378-.599 1.01-.599.556 0 1.114-.269 1.241-.599.126-.329.48-.599.785-.599.306 0 .556-.269.556-.598a.6.6 0 0 1 .599-.599.6.6 0 0 0 .599-.599c0-.329.27-.599.599-.599a.6.6 0 0 0 .599-.599c0-.372.377-.598.998-.598s.998-.227.998-.599c0-.33.275-.599.611-.599.336 0 .715-.269.841-.599.127-.329.48-.599.786-.599.306 0 .556-.269.556-.598a.6.6 0 0 1 .599-.599c.329 0 .599-.27.599-.599a.6.6 0 0 1 .599-.599.6.6 0 0 0 .598-.599c0-.372.377-.598.998-.598s.998-.227.998-.599a.6.6 0 0 1 .599-.599.6.6 0 0 0 .599-.599.6.6 0 0 1 .599-.599.6.6 0 0 0 .599-.598.6.6 0 0 1 .598-.599.6.6 0 0 0 .599-.599c0-.329.27-.599.599-.599a.6.6 0 0 0 .599-.599.6.6 0 0 1 .599-.598.6.6 0 0 0 .598-.599.6.6 0 0 1 .599-.599.6.6 0 0 0 .599-.599.6.6 0 0 1 .599-.599.6.6 0 0 0 .599-.598.6.6 0 0 1 .598-.599.6.6 0 0 0 .599-.599c0-.329.27-.599.599-.599a.6.6 0 0 0 .599-.599.6.6 0 0 1 .599-.598.6.6 0 0 0 .598-.599.6.6 0 0 1 .599-.599.6.6 0 0 0 .599-.599.6.6 0 0 1 .599-.599.6.6 0 0 0 .599-.598.6.6 0 0 1 .598-.599.6.6 0 0 0 .599-.599c0-.329.27-.599.599-.599.399 0 .599-.399.599-1.197 0-.799.199-1.198.599-1.198a.6.6 0 0 0 .598-.599c0-.329.27-.599.599-.599a.6.6 0 0 0 .599-.598.6.6 0 0 1 .599-.599c.329 0 .599-.27.599-.599a.6.6 0 0 1 .598-.599.6.6 0 0 0 .599-.599.6.6 0 0 1 .599-.598c.329 0 .599-.27.599-.599a.6.6 0 0 1 .599-.599c.399 0 .598-.399.598-1.198 0-.798.2-1.197.599-1.197a.6.6 0 0 0 .599-.599.6.6 0 0 1 .599-.599.6.6 0 0 0 .599-.599.6.6 0 0 1 .598-.599c.373 0 .599-.377.599-.998s.226-.998.599-.998c.329 0 .599-.25.599-.556 0-.305.269-.659.599-.785.329-.127.598-.685.598-1.241 0-.632.225-1.01.599-1.01.33 0 .599-.251.599-.556 0-.306.27-.66.599-.786.329-.127.599-.505.599-.841 0-.337.269-.612.598-.612.366 0 .599-.372.599-.955 0-.525.27-1.059.599-1.185.329-.127.599-.685.599-1.24 0-.633.224-1.011.599-1.011.329 0 .598-.25.598-.556 0-.306.27-.66.599-.786.33-.126.599-.684.599-1.24 0-.632.224-1.011.599-1.011.329 0 .599-.25.599-.556 0-.306.269-.659.598-.786.33-.126.599-.665.599-1.197 0-.533.27-1.072.599-1.198.329-.126.599-.684.599-1.24 0-.632.224-1.011.599-1.011.399 0 .598-.399.598-1.197 0-.799.2-1.198.599-1.198.399 0 .599-.399.599-1.198 0-.798.2-1.197.599-1.197.329 0 .599-.25.599-.556 0-.306.269-.66.599-.786.329-.127.598-.665.598-1.198 0-.532.27-1.071.599-1.197.395-.152.599-.777.599-1.84 0-1.164.165-1.609.599-1.609.399 0 .599-.399.599-1.197 0-.799.199-1.198.598-1.198.4 0 .599-.399.599-1.198 0-.798.2-1.197.599-1.197.394 0 .599-.395.599-1.155 0-.658.257-1.254.599-1.385.395-.152.598-.777.598-1.839 0-1.164.166-1.609.599-1.609.399 0 .599-.4.599-1.198 0-.798.2-1.198.599-1.198.443 0 .599-.465.599-1.796s.155-1.796.598-1.796c.444 0 .599-.466.599-1.797 0-1.33.155-1.796.599-1.796.444 0 .599-.466.599-1.797 0-1.33.155-1.796.599-1.796.441 0 .598-.461.598-1.754 0-1.19.193-1.827.599-1.983.379-.146.599-.758.599-1.668 0-.791.269-1.708.599-2.037.366-.367.599-1.345.599-2.524 0-1.342.181-1.994.598-2.154.424-.163.599-.825.599-2.267 0-1.279.223-2.26.599-2.636.395-.395.599-1.389.599-2.917 0-1.573.192-2.477.599-2.814.438-.364.598-1.329.598-3.599 0-2.39.138-3.155.599-3.332.475-.182.602-1.04.612-4.135.009-2.799.178-4.124.598-4.679.893-1.181.881-45.645-.012-45.987-.479-.184-.599-1.056-.599-4.351 0-3.13-.144-4.264-.599-4.719-.419-.419-.599-1.444-.599-3.421 0-2.244-.123-2.823-.598-2.823-.476 0-.599-.578-.599-2.807 0-2.127-.145-2.863-.599-3.037-.439-.168-.599-.859-.599-2.582 0-1.825-.134-2.353-.599-2.353-.459 0-.598-.508-.598-2.176 0-1.415-.191-2.287-.545-2.495-.307-.179-.633-1.27-.748-2.498-.112-1.198-.405-2.246-.653-2.328-.247-.083-.45-.859-.45-1.726 0-1.033-.206-1.656-.598-1.806-.392-.15-.599-.772-.599-1.796 0-1.025-.208-1.647-.599-1.797-.392-.15-.599-.772-.599-1.796 0-1.025-.207-1.646-.599-1.797-.341-.131-.598-.726-.598-1.384 0-.761-.205-1.155-.599-1.155-.434 0-.599-.445-.599-1.61 0-1.062-.204-1.687-.599-1.839-.341-.131-.599-.726-.599-1.384 0-.761-.204-1.155-.598-1.155-.415 0-.599-.416-.599-1.349 0-.741-.27-1.572-.599-1.845-.329-.273-.599-.93-.599-1.459 0-.528-.269-1.065-.599-1.191-.329-.126-.598-.665-.598-1.198 0-.532-.27-1.071-.599-1.197-.33-.127-.599-.665-.599-1.198 0-.532-.27-1.071-.599-1.197-.329-.127-.599-.666-.599-1.198 0-.532-.269-1.071-.598-1.198-.33-.126-.599-.665-.599-1.197 0-.533-.27-1.071-.599-1.198-.329-.126-.599-.665-.599-1.197 0-.533-.269-1.072-.599-1.198-.329-.126-.599-.66-.599-1.185 0-.583-.233-.955-.598-.955-.333 0-.599-.355-.599-.799 0-.443-.266-.798-.599-.798-.374 0-.599-.379-.599-1.011 0-.556-.269-1.114-.599-1.24-.329-.126-.598-.665-.598-1.198 0-.532-.27-1.071-.599-1.197-.329-.127-.599-.48-.599-.786 0-.306-.269-.556-.599-.556-.372 0-.599-.377-.599-.998s-.226-.998-.598-.998c-.4 0-.599-.399-.599-1.198 0-.798-.2-1.197-.599-1.197a.601.601 0 0 1-.599-.599.6.6 0 0 0-.599-.599.6.6 0 0 1-.598-.599.601.601 0 0 0-.599-.599c-.399 0-.599-.399-.599-1.197 0-.799-.2-1.198-.599-1.198a.6.6 0 0 1-.599-.599.6.6 0 0 0-.598-.598c-.4 0-.599-.4-.599-1.198 0-.798-.2-1.198-.599-1.198a.6.6 0 0 1-.599-.598.6.6 0 0 0-.599-.599.6.6 0 0 1-.598-.599.601.601 0 0 0-.599-.599c-.399 0-.599-.399-.599-1.197 0-.799-.2-1.198-.599-1.198a.601.601 0 0 1-.599-.599.6.6 0 0 0-.598-.599.6.6 0 0 1-.599-.598.6.6 0 0 0-.599-.599.601.601 0 0 1-.599-.599.6.6 0 0 0-.599-.599c-.399 0-.598-.399-.598-1.198 0-.798-.2-1.197-.599-1.197a.6.6 0 0 1-.599-.599.6.6 0 0 0-.599-.599.6.6 0 0 1-.599-.599.6.6 0 0 0-.598-.598.6.6 0 0 1-.599-.599.601.601 0 0 0-.599-.599.6.6 0 0 1-.599-.599.6.6 0 0 0-.599-.599.6.6 0 0 1-.598-.598.6.6 0 0 0-.599-.599.6.6 0 0 1-.599-.599.6.6 0 0 0-.599-.599.6.6 0 0 1-.599-.599.6.6 0 0 0-.598-.598.6.6 0 0 1-.599-.599.601.601 0 0 0-.599-.599.6.6 0 0 1-.599-.599.6.6 0 0 0-.599-.599.6.6 0 0 1-.598-.598.6.6 0 0 0-.599-.599.6.6 0 0 1-.599-.599.601.601 0 0 0-.599-.599.6.6 0 0 1-.599-.599.6.6 0 0 0-.598-.598.6.6 0 0 1-.599-.599.6.6 0 0 0-.599-.599.6.6 0 0 1-.599-.599.6.6 0 0 0-.599-.599.6.6 0 0 1-.598-.598c0-.33-.18-.599-.4-.599-.219 0-.399-.27-.399-.599a.6.6 0 0 0-.599-.599.6.6 0 0 1-.598-.599c0-.329-.225-.606-.499-.615-.275-.01-.94-.549-1.479-1.198-.538-.649-1.212-1.181-1.497-1.181-.285 0-.517-.269-.517-.598 0-.373-.378-.599-.998-.599-.621 0-.998-.226-.998-.599a.601.601 0 0 0-.599-.599.6.6 0 0 1-.599-.599c0-.329-.225-.606-.499-.615-.275-.01-.94-.549-1.478-1.198-.565-.681-1.368-1.181-1.897-1.181-.549 0-.917-.24-.917-.598a.6.6 0 0 0-.598-.599.6.6 0 0 1-.599-.599c0-.329-.25-.599-.556-.599-.306 0-.66-.269-.786-.599-.126-.329-.685-.598-1.24-.598-.633 0-1.011-.225-1.011-.599a.6.6 0 0 0-.599-.599.601.601 0 0 1-.599-.599.607.607 0 0 0-.611-.599c-.336 0-.715-.269-.841-.598-.126-.33-.66-.599-1.185-.599-.583 0-.955-.234-.955-.599a.607.607 0 0 0-.612-.599c-.336 0-.714-.269-.841-.599-.126-.329-.659-.598-1.185-.598-.583 0-.955-.234-.955-.599 0-.33-.25-.599-.556-.599-.306 0-.66-.27-.786-.599-.127-.329-.665-.599-1.198-.599-.532 0-1.071-.269-1.197-.598-.127-.33-.604-.599-1.06-.599-.457 0-1.235-.437-1.729-.971-.495-.533-1.372-1.089-1.949-1.233-.576-.145-1.145-.517-1.264-.826-.119-.31-.652-.563-1.184-.563-.532 0-1.071-.27-1.198-.599-.126-.329-.684-.599-1.24-.599-.632 0-1.01-.224-1.01-.599 0-.399-.4-.598-1.198-.598-.798 0-1.198-.2-1.198-.599 0-.399-.399-.599-1.197-.599-.799 0-1.198-.2-1.198-.599 0-.399-.399-.599-1.197-.599-.799 0-1.198-.199-1.198-.598 0-.4-.399-.599-1.198-.599-.798 0-1.197-.2-1.197-.599 0-.394-.395-.599-1.155-.599-.658 0-1.254-.257-1.385-.599-.126-.329-.607-.598-1.069-.598-.462 0-1.109-.27-1.438-.599-.33-.329-1.215-.599-1.968-.599-.95 0-1.369-.183-1.369-.599 0-.399-.399-.599-1.197-.599-.659 0-1.198-.179-1.198-.399 0-.219-.808-.399-1.796-.399-1.331 0-1.797-.155-1.797-.599 0-.432-.443-.599-1.596-.599-1.154 0-1.597-.166-1.597-.598 0-.444-.466-.599-1.797-.599-1.33 0-1.796-.155-1.796-.599 0-.441-.461-.599-1.754-.599-1.19 0-1.827-.192-1.983-.599-.15-.391-.772-.598-1.797-.598-1.024 0-1.646-.208-1.796-.599-.166-.433-.843-.599-2.438-.599-1.697 0-2.208-.139-2.208-.599 0-.466-.532-.599-2.395-.599s-2.395-.133-2.395-.598c0-.479-.599-.599-2.994-.599-2.396 0-2.994-.12-2.994-.599s-.599-.599-2.994-.599c-2.396 0-2.994-.12-2.994-.599 0-.494-.732-.598-4.192-.598s-4.192-.105-4.192-.599c0-.51-1.064-.599-7.185-.599-6.121 0-7.186-.089-7.186-.599 0-.518-1.508-.599-11.178-.599-9.669 0-11.177.081-11.177.599m-11.907 62.884c.075.225.854.521 1.73.659.877.138 1.738.493 1.913.789.176.296.74.538 1.255.538.514 0 1.039.27 1.165.599.126.33.685.599 1.24.599.633 0 1.011.224 1.011.599a.6.6 0 0 0 .599.599.6.6 0 0 1 .599.598.6.6 0 0 0 .598.599.6.6 0 0 1 .599.599c0 .329.18.599.399.599.22 0 .759.359 1.198.798.439.439.798.978.798 1.198 0 .219.27.399.599.399.329 0 .599.27.599.599a.6.6 0 0 0 .599.599.6.6 0 0 1 .599.599.6.6 0 0 0 .598.598c.373 0 .599.377.599.998s.226.998.599.998c.329 0 .599.23.599.51 0 .573 1.393 1.886 2 1.886.217 0 .395.538.395 1.197 0 .799.2 1.198.599 1.198.399 0 .599.399.599 1.197 0 .799.199 1.198.598 1.198a.6.6 0 0 1 .599.599c0 .329.27.599.599.599.399 0 .599.399.599 1.197 0 .799.199 1.198.599 1.198.399 0 .598.399.598 1.197 0 .799.2 1.198.599 1.198.399 0 .599.399.599 1.198 0 .798.2 1.197.599 1.197.399 0 .599.399.599 1.198 0 .798.199 1.197.598 1.197.4 0 .599.4.599 1.198 0 .798.2 1.198.599 1.198.399 0 .599.399.599 1.197 0 .799.199 1.198.599 1.198.399 0 .598.399.598 1.197 0 .799.2 1.198.599 1.198.444 0 .599.466.599 1.796 0 1.331.155 1.797.599 1.797.399 0 .599.399.599 1.197 0 .799.199 1.198.598 1.198.4 0 .599.399.599 1.198 0 .798.2 1.197.599 1.197.444 0 .599.466.599 1.797 0 .988.156 1.796.346 1.796.191 0 .449.76.574 1.688.124.928.417 1.752.651 1.83.234.078.425.581.425 1.119 0 .537.269 1.08.599 1.207.391.15.598.772.598 1.796s.208 1.646.599 1.797c.392.15.599.772.599 1.796s.207 1.646.599 1.796c.391.151.599.772.599 1.797 0 1.024.207 1.646.598 1.796.366.141.599.746.599 1.556 0 .729.27 1.595.599 1.925.329.329.599 1.246.599 2.037 0 .91.22 1.522.599 1.668.391.15.598.772.598 1.796s.208 1.646.599 1.797c.392.15.599.772.599 1.796s.207 1.646.599 1.796c.404.156.599.79.599 1.955 0 1.002.251 1.977.598 2.324.338.338.599 1.313.599 2.237 0 1.088.201 1.715.599 1.868.42.161.599.816.599 2.195s.179 2.035.599 2.196c.406.156.599.793.599 1.983 0 1.293.157 1.754.598 1.754.46 0 .599.512.599 2.208 0 1.595.167 2.272.599 2.438.406.156.599.793.599 1.984 0 1.292.157 1.753.599 1.753.465 0 .598.533.598 2.395 0 1.863.133 2.396.599 2.396.46 0 .599.511.599 2.208 0 1.594.166 2.272.599 2.438.329.126.599.48.599.786 0 .454 1.309.556 7.185.556 6.121 0 7.186.088 7.186.599 0 .524 2.435.598 19.518.598 16.981 0 19.548.078 19.748.599.198.515 2.041.599 13.216.599 11.278 0 12.987.079 12.987.599 0 .514 1.264.599 8.982.599 7.718 0 8.982.084 8.982.598 0 .488.665.599 3.593.599 2.927 0 3.593.111 3.593.599 0 .399.399.599 1.197.599.799 0 1.198.199 1.198.599a.6.6 0 0 0 .599.598.6.6 0 0 1 .598.599c0 .329.27.599.599.599.399 0 .599.399.599 1.198 0 .798.2 1.197.599 1.197.479 0 .599.599.599 2.994 0 2.395-.12 2.994-.599 2.994-.399 0-.599.399-.599 1.198 0 .798-.2 1.197-.599 1.197a.601.601 0 0 0-.599.599.6.6 0 0 1-.598.599.6.6 0 0 0-.599.599c0 .399-.399.599-1.198.599-.798 0-1.197.199-1.197.598 0 .529-5.7.599-48.903.599H239.92v3.593c0 2.928.111 3.593.599 3.593.466 0 .599.532.599 2.395s.133 2.395.599 2.395c.475 0 .598.578.598 2.807 0 2.127.145 2.863.599 3.037.431.165.599.839.599 2.395 0 1.557.168 2.23.599 2.395.43.166.599.839.599 2.396 0 1.556.168 2.23.598 2.395.431.165.599.838.599 2.395s.169 2.23.599 2.395c.43.165.599.837.599 2.383 0 1.647.14 2.153.599 2.153.465 0 .598.532.598 2.395s.133 2.395.599 2.395c.444 0 .599.466.599 1.797 0 1.33.155 1.796.599 1.796.466 0 .599.532.599 2.395s.133 2.395.598 2.395c.444 0 .599.466.599 1.797 0 1.33.155 1.796.599 1.796.466 0 .599.533.599 2.395 0 1.863.133 2.396.599 2.396.443 0 .598.465.598 1.796s.156 1.796.599 1.796c.444 0 .599.466.599 1.797s.155 1.796.599 1.796c.399 0 .599.399.599 1.198 0 .798.199 1.197.598 1.197.444 0 .599.466.599 1.797s.155 1.796.599 1.796c.399 0 .599.4.599 1.198 0 .798.199 1.198.599 1.198.443 0 .598.465.598 1.796s.156 1.796.599 1.796c.399 0 .599.4.599 1.198 0 .798.2 1.198.599 1.198.399 0 .599.399.599 1.197 0 .799.199 1.198.598 1.198.4 0 .599.399.599 1.197 0 .799.2 1.198.599 1.198a.6.6 0 0 1 .599.599.6.6 0 0 0 .599.599c.399 0 .598.399.598 1.197 0 .799.2 1.198.599 1.198a.6.6 0 0 1 .599.599.6.6 0 0 0 .599.598c.329 0 .599.27.599.599a.6.6 0 0 0 .598.599.6.6 0 0 1 .599.599c0 .329.27.599.599.599a.6.6 0 0 1 .599.598.6.6 0 0 0 .599.599.6.6 0 0 1 .598.599c0 .498.777.599 4.591.599 3.815 0 4.591-.101 4.591-.599 0-.399.399-.599 1.198-.599.798 0 1.197-.199 1.197-.599 0-.343.36-.598.842-.598 1.128 0 2.736-1.579 2.744-2.695.004-.529.253-.898.606-.898.329 0 .599-.27.599-.599a.6.6 0 0 1 .599-.599c.329 0 .598-.25.598-.556 0-.306.27-.659.599-.786.33-.126.599-.684.599-1.24 0-.632.224-1.011.599-1.011.399 0 .599-.399.599-1.197 0-.799.199-1.198.598-1.198.4 0 .599-.399.599-1.197 0-.799.2-1.198.599-1.198.394 0 .599-.395.599-1.155 0-.658.257-1.254.599-1.385.395-.151.598-.776.598-1.839 0-1.164.166-1.609.599-1.609.399 0 .599-.399.599-1.198 0-.798.2-1.197.599-1.197.443 0 .599-.466.599-1.797 0-1.33.155-1.796.598-1.796.4 0 .599-.399.599-1.198 0-.798.2-1.197.599-1.197.444 0 .599-.466.599-1.797 0-1.33.155-1.796.599-1.796.443 0 .598-.466.598-1.797 0-1.33.156-1.796.599-1.796.394 0 .599-.394.599-1.155 0-.658.257-1.254.599-1.385.395-.151.599-.776.599-1.839 0-1.164.165-1.609.598-1.609.444 0 .599-.466.599-1.796 0-1.331.155-1.797.599-1.797.444 0 .599-.466.599-1.796 0-1.331.155-1.797.599-1.797.443 0 .598-.465.598-1.796s.156-1.796.599-1.796c.444 0 .599-.466.599-1.797s.155-1.796.599-1.796c.394 0 .599-.395.599-1.155 0-.658.257-1.254.598-1.385.371-.142.599-.75.599-1.597 0-.846.228-1.454.599-1.596.392-.151.599-.773.599-1.797s.207-1.646.599-1.796c.391-.15.598-.772.598-1.797 0-1.024.208-1.646.599-1.796.344-.132.599-.728.599-1.397 0-.67.255-1.266.599-1.397.329-.127.599-.595.599-1.041 0-.455.263-.811.598-.811a.6.6 0 0 0 .599-.599c0-.399.399-.599 1.198-.599.798 0 1.197.2 1.197.599 0 .329.27.599.599.599a.6.6 0 0 1 .599.599.6.6 0 0 0 .599.598c.399 0 .599.4.599 1.198 0 .799-.2 1.198-.599 1.198-.444 0-.599.465-.599 1.796s-.155 1.797-.599 1.797c-.465 0-.599.532-.599 2.395s-.133 2.395-.598 2.395c-.466 0-.599.532-.599 2.395s-.133 2.395-.599 2.395c-.466 0-.599.533-.599 2.396s-.133 2.395-.599 2.395c-.465 0-.598.532-.598 2.395s-.133 2.395-.599 2.395c-.458 0-.599.506-.599 2.153 0 1.546-.169 2.218-.599 2.383-.43.165-.599.838-.599 2.395s-.168 2.23-.598 2.395c-.431.165-.599.839-.599 2.395 0 1.557-.169 2.23-.599 2.396-.41.157-.599.799-.599 2.038 0 1.342-.154 1.809-.599 1.809-.459 0-.598.51-.598 2.196 0 1.685-.139 2.195-.599 2.195-.442 0-.599.461-.599 1.754 0 1.191-.192 1.828-.599 1.984-.391.15-.599.772-.599 1.796s-.207 1.646-.598 1.796c-.396.152-.599.777-.599 1.84 0 1.164-.166 1.609-.599 1.609-.444 0-.599.466-.599 1.796 0 1.331-.155 1.797-.599 1.797-.394 0-.598.394-.598 1.155 0 .658-.258 1.253-.599 1.384-.395.152-.599.777-.599 1.839 0 1.165-.166 1.61-.599 1.61-.399 0-.599.399-.599 1.197 0 .799-.199 1.198-.598 1.198-.4 0-.599.399-.599 1.198 0 .798-.2 1.197-.599 1.197-.399 0-.599.399-.599 1.198 0 .798-.199 1.197-.599 1.197-.399 0-.598.4-.598 1.198 0 .798-.2 1.198-.599 1.198a.6.6 0 0 0-.599.598.6.6 0 0 1-.599.599c-.399 0-.599.399-.599 1.198 0 .798-.199 1.197-.598 1.197-.33 0-.599.251-.599.557 0 .305-.27.659-.599.785-.329.127-.599.685-.599 1.241 0 .632-.224 1.01-.599 1.01a.6.6 0 0 0-.598.599c0 .329-.27.599-.599.599-.33 0-.599.17-.599.377 0 .492-5.119 5.611-5.611 5.611-.207 0-.377.269-.377.599a.6.6 0 0 1-.599.598.601.601 0 0 0-.599.599c0 .399-.399.599-1.197.599-.799 0-1.198.2-1.198.599 0 .399-.399.599-1.197.599-.799 0-1.198.199-1.198.598 0 .433-.444.599-1.597.599s-1.597.167-1.597.599c0 .503-.865.599-5.389.599s-5.389-.096-5.389-.599c0-.394-.395-.599-1.155-.599-.658 0-1.254-.257-1.385-.599-.126-.329-.684-.598-1.24-.598-.632 0-1.011-.225-1.011-.599 0-.329-.25-.599-.556-.599-.306 0-.659-.269-.786-.599-.126-.329-.504-.599-.841-.599a.606.606 0 0 1-.611-.598c0-.373-.377-.599-.998-.599s-.998-.226-.998-.599a.6.6 0 0 0-.599-.599c-.358 0-.599-.368-.599-.917 0-.529-.499-1.331-1.18-1.896-.65-.538-1.189-1.204-1.198-1.478-.009-.275-.286-.499-.616-.499a.6.6 0 0 1-.598-.599.601.601 0 0 0-.599-.599c-.399 0-.599-.399-.599-1.197 0-.799-.2-1.198-.599-1.198a.6.6 0 0 1-.599-.599.6.6 0 0 0-.598-.599c-.4 0-.599-.399-.599-1.197 0-.799-.2-1.198-.599-1.198-.399 0-.599-.399-.599-1.197 0-.799-.199-1.198-.599-1.198-.374 0-.598-.378-.598-1.011 0-.555-.27-1.113-.599-1.24-.33-.126-.599-.665-.599-1.197 0-.533-.269-1.072-.599-1.198-.329-.126-.599-.665-.599-1.198 0-.532-.269-1.071-.598-1.197-.342-.131-.599-.727-.599-1.385 0-.76-.205-1.155-.599-1.155-.433 0-.599-.445-.599-1.609 0-1.062-.203-1.688-.599-1.839-.341-.131-.598-.727-.598-1.385 0-.76-.205-1.155-.599-1.155-.433 0-.599-.445-.599-1.609 0-1.062-.204-1.688-.599-1.839-.341-.131-.599-.727-.599-1.385 0-.76-.204-1.155-.598-1.155-.444 0-.599-.466-.599-1.796 0-1.331-.156-1.797-.599-1.797-.433 0-.599-.445-.599-1.609 0-1.062-.203-1.687-.599-1.839-.39-.15-.598-.771-.598-1.784 0-1.115-.17-1.554-.599-1.554-.444 0-.599-.466-.599-1.797 0-1.33-.155-1.796-.599-1.796-.443 0-.599-.466-.599-1.796 0-1.331-.155-1.797-.598-1.797-.444 0-.599-.465-.599-1.796s-.156-1.797-.599-1.797c-.444 0-.599-.467-.599-1.809 0-1.239-.188-1.881-.599-2.038-.39-.15-.598-.771-.598-1.784 0-1.115-.17-1.554-.599-1.554-.444 0-.599-.466-.599-1.797 0-1.33-.155-1.796-.599-1.796-.466 0-.599-.532-.599-2.395s-.133-2.395-.599-2.395c-.443 0-.598-.466-.598-1.797s-.156-1.796-.599-1.796c-.466 0-.599-.533-.599-2.395 0-1.863-.133-2.396-.599-2.396-.443 0-.599-.465-.599-1.796s-.155-1.796-.598-1.796c-.466 0-.599-.533-.599-2.396s-.133-2.395-.599-2.395c-.466 0-.599-.532-.599-2.395s-.133-2.395-.599-2.395c-.443 0-.598-.466-.598-1.797 0-1.33-.156-1.796-.599-1.796-.466 0-.599-.532-.599-2.395s-.133-2.396-.599-2.396c-.465 0-.599-.532-.599-2.395s-.133-2.395-.598-2.395c-.444 0-.599-.466-.599-1.798v-1.798l-44.411.101-44.412.102-.122 1.696c-.084 1.156-.307 1.697-.699 1.697-.414 0-.576.492-.576 1.754 0 1.19-.192 1.827-.599 1.983-.432.166-.598.844-.598 2.438 0 1.697-.139 2.208-.599 2.208-.444 0-.599.466-.599 1.797 0 1.33-.155 1.796-.599 1.796-.443 0-.599.466-.599 1.796 0 1.331-.155 1.797-.598 1.797-.444 0-.599.466-.599 1.796 0 1.331-.155 1.797-.599 1.797-.441 0-.599.461-.599 1.753 0 1.191-.192 1.828-.599 1.984-.432.166-.598.843-.598 2.438 0 1.696-.139 2.208-.599 2.208-.444 0-.599.466-.599 1.796 0 1.331-.155 1.797-.599 1.797-.443 0-.599.465-.599 1.796s-.155 1.797-.598 1.797c-.444 0-.599.465-.599 1.796s-.155 1.796-.599 1.796c-.444 0-.599.466-.599 1.797 0 1.33-.155 1.796-.599 1.796-.458 0-.598.506-.598 2.153 0 1.546-.169 2.218-.599 2.383-.392.15-.599.772-.599 1.796s-.207 1.646-.599 1.797c-.395.151-.599.776-.599 1.839 0 1.164-.165 1.609-.598 1.609-.33 0-.599.174-.599.386 0 .714-2.813 3.207-3.619 3.207-.439 0-.901.269-1.027.599-.262.682-2.398.824-2.615.174-.078-.234-.901-.527-1.83-.652-1.051-.141-1.688-.432-1.688-.773 0-.3-.269-.546-.598-.546a.6.6 0 0 1-.599-.599.6.6 0 0 0-.599-.598c-.399 0-.599-.4-.599-1.198 0-.798-.199-1.198-.599-1.198-.465 0-.598-.532-.598-2.395s.133-2.395.598-2.395c.488 0 .599-.665.599-3.593 0-2.927.111-3.593.599-3.593.479 0 .599-.598.599-2.994 0-2.395.12-2.994.599-2.994.484 0 .598-.638.598-3.35 0-2.61.133-3.401.599-3.58.453-.174.599-.906.599-2.994 0-2.089.146-2.821.599-2.994.453-.175.599-.91.599-3.037 0-2.229.123-2.807.598-2.807.479 0 .599-.599.599-2.994 0-2.395.12-2.994.599-2.994s.599-.599.599-2.994c0-2.395.12-2.994.599-2.994.488 0 .598-.665.598-3.593v-3.593H82.278c-16.981 0-19.548-.078-19.748-.599-.126-.329-.584-.598-1.018-.598-1.116 0-6.023-4.997-6.023-6.134 0-.495-.264-1.248-.586-1.674-.833-1.101-.843-6.39-.013-6.708.33-.126.599-.665.599-1.198 0-.532.269-1.071.599-1.197.329-.127.599-.685.599-1.241 0-.632.224-1.01.598-1.01a.6.6 0 0 0 .599-.599c0-.372.377-.599.998-.599s.998-.226.998-.598c0-.333.355-.599.799-.599.443 0 .798-.266.798-.599 0-.433.445-.599 1.609-.599 1.063 0 1.688-.203 1.839-.599.194-.503 1.459-.598 7.972-.598 6.615 0 7.742.087 7.742.598 0 .521 1.84.599 14.171.599h14.172v-2.395c0-1.863.133-2.395.599-2.395.466 0 .599-.533.599-2.396 0-1.862.133-2.395.598-2.395.466 0 .599-.532.599-2.395s.133-2.395.599-2.395c.444 0 .599-.466.599-1.797 0-1.33.155-1.796.599-1.796.458 0 .598-.505.598-2.153 0-1.545.169-2.218.599-2.383.408-.156.599-.794.599-1.996 0-1.201.191-1.839.599-1.996.42-.161.599-.816.599-2.195s.178-2.035.598-2.196c.397-.152.599-.778.599-1.851 0-1.074.203-1.7.599-1.852.386-.148.599-.766.599-1.741 0-.975.212-1.593.599-1.741.391-.15.598-.772.598-1.791 0-.9.254-1.77.599-2.057.33-.273.605-1.059.612-1.746.007-.686.276-1.597.599-2.023.322-.426.591-1.235.598-1.796.007-.562.277-1.371.599-1.797.323-.426.586-1.26.586-1.853s.27-1.182.599-1.309c.392-.15.599-.772.599-1.796s.207-1.646.599-1.796c.395-.152.599-.777.599-1.84 0-1.164.165-1.609.598-1.609.395 0 .599-.394.599-1.155 0-.658.258-1.254.599-1.384.391-.151.599-.773.599-1.797s.207-1.646.599-1.796c.329-.127.598-.666.598-1.198 0-.532.27-1.071.599-1.198.329-.126.599-.669.599-1.207 0-.537.191-1.041.425-1.118.234-.078.527-.902.651-1.83.141-1.052.433-1.688.773-1.688.341 0 .546-.451.546-1.198 0-.658.18-1.197.399-1.197.22 0 .4-.539.4-1.198 0-.798.199-1.198.598-1.198.4 0 .599-.399.599-1.197 0-.799.2-1.198.599-1.198.399 0 .599-.399.599-1.197 0-.799.199-1.198.599-1.198.399 0 .598-.399.598-1.198 0-.798.2-1.197.599-1.197.399 0 .599-.399.599-1.198 0-.798.2-1.197.599-1.197.329 0 .599-.27.599-.599a.6.6 0 0 1 .598-.599c.4 0 .599-.399.599-1.198 0-.798.2-1.197.599-1.197.399 0 .599-.399.599-1.198 0-.798.199-1.197.599-1.197a.6.6 0 0 0 .598-.599.6.6 0 0 1 .599-.599c.399 0 .599-.399.599-1.198 0-.798.2-1.197.599-1.197.329 0 .599-.27.599-.599a.6.6 0 0 1 .598-.599.6.6 0 0 0 .599-.599.6.6 0 0 1 .599-.598c.373 0 .599-.378.599-.998 0-.621.226-.998.599-.998a.6.6 0 0 0 .598-.599.6.6 0 0 1 .599-.599.6.6 0 0 0 .599-.599.6.6 0 0 1 .599-.599.6.6 0 0 0 .599-.598.6.6 0 0 1 .598-.599.6.6 0 0 0 .599-.599c0-.329.27-.599.599-.599a.6.6 0 0 0 .599-.599.6.6 0 0 1 .599-.599.6.6 0 0 0 .598-.598.6.6 0 0 1 .599-.599c.33 0 .599-.255.599-.567 0-.312.539-.686 1.198-.83.658-.145 1.197-.429 1.197-.631s.27-.367.599-.367c.329 0 .599-.27.599-.599 0-.375.378-.599 1.01-.599.556 0 1.114-.269 1.241-.599.126-.329.665-.599 1.197-.599.533 0 1.072-.269 1.198-.598.15-.392.772-.599 1.796-.599 1.025 0 1.646-.207 1.797-.599.274-.714 7.166-.891 7.399-.19m-6.057 24.142c0 .399-.4.599-1.198.599-.798 0-1.198.2-1.198.599a.6.6 0 0 1-.598.599.6.6 0 0 0-.599.598.6.6 0 0 1-.599.599.601.601 0 0 0-.599.599.6.6 0 0 1-.599.599.6.6 0 0 0-.598.599.6.6 0 0 1-.599.598c-.329 0-.599.251-.599.556 0 .306-.269.66-.599.786-.329.127-.599.576-.599.998 0 .423-.269.872-.598.998-.33.127-.599.685-.599 1.241 0 .632-.224 1.01-.599 1.01-.329 0-.599.248-.599.55 0 .303-.269.774-.599 1.047-.329.273-.598.812-.598 1.198 0 .385-.27.924-.599 1.197-.33.274-.599.815-.599 1.204s-.269.81-.599.937c-.329.126-.599.662-.599 1.191s-.269 1.185-.598 1.459c-.33.273-.599.834-.599 1.246 0 .412-.176.75-.392.75-.215 0-.511.494-.658 1.097-.147.604-.51 1.453-.806 1.886-.297.433-.539 1.267-.539 1.853 0 .587-.27 1.17-.599 1.296-.33.126-.599.665-.599 1.198 0 .532-.269 1.071-.599 1.197-.329.127-.604.64-.611 1.141-.007.501-.277 1.259-.599 1.685-.322.427-.586 1.261-.586 1.854 0 .593-.27 1.182-.599 1.308-.392.15-.599.772-.599 1.797 0 1.024-.207 1.646-.599 1.796-.329.126-.598.685-.598 1.24 0 .556-.18 1.011-.4 1.011-.219 0-.399.808-.399 1.796 0 1.331-.155 1.797-.599 1.797-.443 0-.598.465-.598 1.796s-.156 1.797-.599 1.797c-.444 0-.599.465-.599 1.796s-.155 1.796-.599 1.796c-.443 0-.599.466-.599 1.797 0 1.33-.155 1.796-.598 1.796-.444 0-.599.466-.599 1.797 0 1.33-.155 1.796-.599 1.796-.444 0-.599.466-.599 1.796 0 1.331-.155 1.797-.599 1.797-.465 0-.598.532-.598 2.395s-.134 2.395-.599 2.395c-.444 0-.599.466-.599 1.797 0 1.33-.155 1.796-.599 1.796-.466 0-.599.532-.599 2.395s-.133 2.395-.598 2.395c-.444 0-.599.466-.599 1.797s-.156 1.796-.599 1.796c-.466 0-.599.533-.599 2.395 0 1.863-.133 2.396-.599 2.396-.458 0-.598.505-.598 2.153 0 1.545-.169 2.217-.599 2.382-.33.127-.599.685-.599 1.241v1.01h23.111c20.175 0 23.14.076 23.341.599.198.517 2.218.599 14.813.599h14.583v-2.752c0-2.078-.146-2.808-.599-2.981-.395-.152-.598-.777-.598-1.84 0-1.164-.166-1.609-.599-1.609-.466 0-.599-.532-.599-2.395s-.133-2.395-.599-2.395c-.466 0-.599-.533-.599-2.396 0-1.862-.133-2.395-.598-2.395-.444 0-.599-.465-.599-1.796s-.155-1.797-.599-1.797c-.466 0-.599-.532-.599-2.395 0-1.33-.177-2.395-.399-2.395-.22 0-.399-.808-.399-1.796 0-1.259-.165-1.797-.55-1.797-.38 0-.607-.701-.738-2.275-.103-1.252-.395-2.344-.648-2.429-.253-.084-.459-.862-.459-1.729 0-1.033-.207-1.655-.599-1.806-.389-.149-.599-.768-.599-1.764 0-.874-.234-1.671-.545-1.853-.306-.18-.633-1.271-.747-2.498-.112-1.198-.406-2.246-.653-2.329-.248-.082-.45-.859-.45-1.726 0-1.033-.207-1.655-.599-1.806-.392-.15-.599-.772-.599-1.796s-.207-1.646-.599-1.797c-.391-.15-.598-.772-.598-1.796s-.208-1.646-.599-1.796c-.392-.151-.599-.772-.599-1.797 0-1.024-.207-1.646-.599-1.796-.366-.141-.599-.746-.599-1.556 0-.729-.269-1.595-.598-1.925-.33-.329-.599-1.128-.599-1.776 0-.647-.27-1.401-.599-1.674-.329-.273-.599-1.014-.599-1.646 0-.755-.205-1.148-.599-1.148-.429 0-.598-.439-.598-1.554 0-1.014-.209-1.635-.599-1.784-.33-.127-.599-.69-.599-1.253s-.27-1.127-.599-1.253c-.386-.148-.599-.766-.599-1.741 0-.975-.212-1.593-.598-1.741-.33-.127-.599-.691-.599-1.253 0-.563-.27-1.127-.599-1.253-.329-.126-.599-.665-.599-1.198 0-.532-.269-1.071-.599-1.197-.329-.127-.598-.66-.598-1.185 0-.583-.234-.956-.599-.956-.399 0-.599-.399-.599-1.197 0-.799-.2-1.198-.599-1.198a.6.6 0 0 1-.599-.599.6.6 0 0 0-.598-.598.6.6 0 0 1-.599-.599.6.6 0 0 0-.599-.599.601.601 0 0 1-.599-.599c0-.466-.532-.599-2.395-.599s-2.395.133-2.395.599" fill="#04a4cc" fill-rule="evenodd"/></svg>