<svg xmlns="http://www.w3.org/2000/svg" xmlns:xlink="http://www.w3.org/1999/xlink" viewBox="0 0 400 400"><defs><radialGradient id="a" cx="199.04" cy="231.14" r="216.8" gradientUnits="userSpaceOnUse"><stop offset="0" stop-color="#fcb615"/><stop offset=".6" stop-color="#ef5e8e"/><stop offset="1" stop-color="#f05756"/></radialGradient><radialGradient id="b" cx="198.74" cy="239.36" r="238.35" xlink:href="#a"/><radialGradient id="c" cx="198.44" cy="238.69" r="222.76" xlink:href="#a"/></defs><path d="M174 297.9a87 87 0 1 1-87-87 87 87 0 0 1 87 87Z" style="fill:url(#a)"/><path d="M200 189.1a87 87 0 1 1 87-87 87 87 0 0 1-87 87Z" style="fill:url(#b)"/><path d="M400 297.9a87 87 0 1 1-87-87 87 87 0 0 1 87 87Z" style="fill:url(#c)"/><path d="M313 210.9a87 87 0 1 0 87 87 87 87 0 0 0-87-87Zm-226 0a87 87 0 1 0 87 87 87 87 0 0 0-87-87ZM200 15.1a87 87 0 1 0 87 87 87 87 0 0 0-87-87Z" style="fill:none"/></svg>