<svg xmlns="http://www.w3.org/2000/svg" viewBox="0 0 400 400"><defs><style>.cls-12{fill:#ea750f}.cls-14{fill:#f27a03}.cls-29{fill:#ffc51a}.cls-32{fill:#ef7605}</style></defs><path d="M398.2 24.2a29.4 29.4 0 0 1 1.4 9.9v331.7c0 1.9.5 3.8-.6 5.6-1.6-1.4-1.5-3.4-1.5-5.3 0-31.9-.2-63.7.1-95.6 1-5-.7-8.5-4.5-12.1q-17.3-16.2-33.2-33.8a8.8 8.8 0 0 1-2.2-3.2 7.7 7.7 0 0 1-.3-1.5 56 56 0 0 1-.2-7v-201c0-2.7-.4-5.6.8-8.2 3.3-2.8 7.2-1 10.8-1.5 14 .2 24.3 8 29.4 22Z" style="fill:#f57c00"/><path d="M126.4 262.4v-101c0-1.9.1-3.8.2-5.7 2-11.4 7.6-20.2 18.6-24.9 1.6-.7 3.8-2.5 4.7 1q-.1 128.8 0 257.6c0 2.4.4 5-1.1 7.2a5.1 5.1 0 0 1-3.6 1.1H127a5.1 5.1 0 0 1-3.3-.9c-1.3-1.6-1.2-3.6-1.2-5.4q-.1-59.9 0-119.9a17 17 0 0 1 .3-3.9c.3-1.8 2.1-2.5 2.8-4.1Z" style="fill:#ffc71f"/><path d="M370 3.3h-11.4c-1.4 1.3-3.2 1.4-4.9 1.4-10.6 0-21.2.2-31.8-.1-6.3.2-12.5 0-18.8.1S297 5 297 11q-.1 25.4 0 50.7v87.9a34.6 34.6 0 0 1-.3 7c-.6 2.3-1.9 2.2-3.5 1a74.8 74.8 0 0 1-5.7-5.4c-5.8-6-11.8-11.8-17.6-17.7-2.2-2.6-5-4.5-6.9-7.4a1.6 1.6 0 0 1 .1-1.2V33.6c0-3.8.1-7.6 1.8-11.1 6.1-14.7 17.8-21.1 33-21.3 22.4-.4 44.8-.1 67.2 0 1.7 0 4.1-.8 4.9 2.1Z" style="fill:#f58006"/><path d="M398.8 268.7q0 48.3.1 96.6c0 2 .1 4.1.1 6.1a19.9 19.9 0 0 1-3.4 11.2c-2.3 2.2-3.4 5.4-6.4 7-6.2 6.2-14 8.8-22.5 9-13.5.3-27 .1-40.5.1-1.6 0-3.2.1-4.5-1.1a1.2 1.2 0 0 1 .4-1.4c2.2-1.2 4.5-.9 6.8-.9h22.3c5.6 0 5.9-.3 5.9-6v-76.5a43.9 43.9 0 0 1 .1-4.8 6.5 6.5 0 0 1 .3-1.4c12.9-11.5 24.6-24.3 37.1-36.3 1.2-1.3 2.3-2.9 4.2-1.6Z" style="fill:#f47a00"/><path d="M2.9 380a21 21 0 0 1-2.6-10.8v-75.7c0-1.9-.2-3.8.8-5.5 2.4-8 6.7-14.5 14.1-18.7 1.7-.9 3.5-1.9 4.5.9a23.6 23.6 0 0 1 .4 6.1v110.5a27.5 27.5 0 0 1-.3 5.6c-.8 2.7-2.4 2.4-4.4 1.3a28.5 28.5 0 0 1-10-9.5c-.8-1.5-1.1-3.2-2.5-4.2Z" style="fill:#ffcc34"/><path d="M321.8 397.4c14.5 0 29 .1 43.6 0 8.4-.1 16.3-2 22.8-8a3.1 3.1 0 0 1 2-.7.9.9 0 0 1 .1 1.2.7.7 0 0 1-.7.6 1.3 1.3 0 0 0-1.1 1h.1a1.5 1.5 0 0 0-1 .9h.1a2.9 2.9 0 0 0-1 .8l-.9.7a.5.5 0 0 1-.6.3 2 2 0 0 0-1.2.8l-.8.6a.8.8 0 0 1-.8.3l-1 .6-.8.3c-.5.5-1.3.3-1.8.8l-.2.2h-.3a3.7 3.7 0 0 0-1.2.5l-1.6.3c-.6.3-1.3.3-1.9.6l-2.6.3a6.9 6.9 0 0 1-3 .3H266.1a7.8 7.8 0 0 1-3-.3c-1.3-1.3-1.1-3-1.1-4.5V287.3a15.5 15.5 0 0 1 .2-2.2 76.8 76.8 0 0 0 1.6-12.9c.9-18.3.8-36.6.7-55s1.6-33.9 1.9-50.9c.2-9.3 1.7-18.5 1.7-27.8 0-1.7.2-3.6 2.1-4.4a200 200 0 0 1 17.5 17.5c.3 2.8-1.8 4.3-3.5 5.7-6.5 5.2-8.7 11.9-9.5 20.1-2.5 24.8-3.5 49.6-4.4 74.5-.4 12.8-.2 25.6-.7 38.4a49.8 49.8 0 0 0-.7 12.2c.8 15.9-2.7 31.6-1.7 47.4.9 13.7-.6 27.3-.1 40.9.1 1.6-.8 3.6 1.4 4.6a9.7 9.7 0 0 0 2.4.2c14 1.4 28 .8 42 .8 3-.2 6.2-1 8.9 1Z" style="fill:#eb730a"/><path d="m263 125.8.3 1v.7a2.6 2.6 0 0 1-1.4 1.7l-1.5.4c-30.2.2-60.4.1-90.6.1a78.4 78.4 0 0 0-14.4.9c-1.9.4-4 .9-6-.3-11.6 3.6-18.5 11.7-21.8 23.1-.2.8-.1 1.7-.9 2.3-.1-13.3 10.4-23.8 19.5-27.1a40 40 0 0 1 14.1-2.4h97.1a21.4 21.4 0 0 0 5.6-.4Z" style="fill:#ffd14b"/><path d="M370 3.3c-1.2-1.3-2.7-.8-4.1-.8-22.7 0-45.4-.1-68.1.1-8.9.1-17.2 2.4-24.1 8.4-3 2.6-5 6-7.1 9.3-.5.8-.7 1.9-1.8 2.4 1.3-6.5 5.3-11.3 10.2-15.3A31.3 31.3 0 0 1 295.2.1c24-.1 48.1-.2 72.1 0 13.6.2 23.5 6.8 29.5 19.1a10.2 10.2 0 0 1 1.4 5c-1-.3-1-1.3-1.3-2.1-4.5-9.6-11.8-15.9-22.1-18.5a25.6 25.6 0 0 0-4.8-.3Z" style="fill:#f79939"/><path d="M18.8 268.7c-6.7 2.5-11.3 7.4-14.7 13.5-1.1 1.9-1.4 4.1-2.9 5.7 1.8-11.3 8.8-18.3 18.9-22.7a33.8 33.8 0 0 1 13.7-2.4h87c1.9 0 3.8.2 5.6-.4v1.1c-1.5 3.1-4.4 2.9-7 2.9H50.9a147.3 147.3 0 0 0-29.5 2.4 5.2 5.2 0 0 1-2.6-.1Z" style="fill:#ffd55a"/><path d="M263.1 399h107.8c-2.2 1.1-4.6.6-6.9.6H34.2c-1.4 0-2.9.3-4.3-.5 1.6-1.8 3.7-1.3 5.7-1.3h220.8c2.3.1 4.7-.3 6.7 1.2Z" style="fill:#f6b839"/><path d="M68.8 399H29.9c-11.9-.4-23-8.3-27-19.2 1.5-1 1.3.6 1.6 1.1a29 29 0 0 0 14.3 12.7c4.4 0 8.5 1.9 12.8 1.9 6 1 12 0 17.9.3s12.5-.7 18.7.7a1.5 1.5 0 0 1 .6 2.5Z" style="fill:#f5b636"/><path class="cls-12" d="M390.3 389.9v-1.2c1.9-1.9 2.7-4.9 5.4-6.1a17.4 17.4 0 0 1-5.4 7.3Zm-11.5 7.5a1.8 1.8 0 0 1 1.8-.8 1.9 1.9 0 0 1-1.8.8Zm-5.3 1.6a2 2 0 0 1 1.9-.6 2.2 2.2 0 0 1-1.9.6Zm10.5-4.2a1.4 1.4 0 0 1 1.2-.8 1.3 1.3 0 0 1-1.2.8Zm1.8-1.1.9-.7a.8.8 0 0 1-.9.7Zm.8-.7 1-.8a1.1 1.1 0 0 1-1 .8Zm1-.7a1.2 1.2 0 0 1 1-.9 1.2 1.2 0 0 1-1 .9Z"/><path class="cls-12" d="M388.5 391.5a1.3 1.3 0 0 1 1.1-1 1.5 1.5 0 0 1-1.1 1Zm-5.3 3.9.8-.6a.8.8 0 0 1-.8.6Zm-1.8.9 1-.6a.9.9 0 0 1-1 .6Zm-4.4 1.8 1.2-.5a1.2 1.2 0 0 1-1.2.5Z"/><path d="M321.8 3.3h36.8v218.1c-1.6.7-2.2-.8-3.1-1.4l-.7-.7-.7-.7-.4-.4-.7-.7-.4-.4-.8-.7-.4-.4-.8-.8c-8.8-8.6-17.4-17.5-26.2-26-1.7-1.7-3.5-3.4-3.7-6.1a42 42 0 0 1-.2-6.1V11.4c-.1-2.8-.6-5.7 1.3-8.1Z" style="fill:#f57e02"/><path class="cls-14" d="m355.1 218.7 3.5 2.6v.9a10.3 10.3 0 0 1 1.4 5.8v72c0 1.9 0 3.8-1.4 5.4v.9a1.6 1.6 0 0 1-1.8.3c-2.2-1.6-3.2.4-4.3 1.6l-22 21.9a22.2 22.2 0 0 1-3.2 3c-2.7 1.8-4.9 1-5.5-2.2s-.6-4-1-6c-.3-10.9-.7-21.8-.3-32.6.5-12.6-.7-25.2.2-37.8a7.7 7.7 0 0 1 2.5-4c10.3-10.5 21-20.7 31.1-31.4a1.6 1.6 0 0 1 .8-.4Z"/><path d="M358.6 305.4v-83.2a56.3 56.3 0 0 1 10 10.2 21.6 21.6 0 0 0 2.4 2.6l23.1 23.1a3.1 3.1 0 0 0 .6.6c4.1 2.2 4.8 5.8 4.1 9.9-2 .1-2.9 1.7-4.1 2.9l-31.3 31.3c-1.4 1.4-2.6 3-4.8 2.6Z" style="fill:#f27801"/><path d="M149.3 130.3a54.5 54.5 0 0 1 12-1.7h101a1 1 0 0 1-.5 1.4c-4 1.5-8.3.7-12.4.8s-9.5.1-14.2 0-10.5.1-15.8 0-10.6.1-15.9 0q-14.9.2-29.8 0c-2.5.2-5 .1-7.4.1s-4.2 1.4-4.2 4.3V388c0 2.9.5 5.9-1 8.6a14.8 14.8 0 0 1-12.6 0V136.3c-.1-2.1-.4-4.1.8-6Z" style="fill:#ffc71c"/><path d="M123.9 266v130.5a4 4 0 0 1-3.2 1.2c-6 .1-11.9.1-17.9 0a4.4 4.4 0 0 1-2.8-1c-1.2-1.6-1.1-3.6-1.2-5.5q-.1-59.8 0-119.7c0-1.9-.1-3.8 1.1-5.5a124.3 124.3 0 0 1 24 0Z" style="fill:#ffc823"/><path d="M123.9 266h-23.7c-1.4 1.3-3.2 1.3-4.9 1.3-5.6 0-11.3.1-16.9-.1s-14.1.2-21.2 0c-4.2.3-8.4.1-12.7.1s-4.2 1.4-4.2 4.2v117.1c0 8.8-.5 9.2-9.3 7.8a19.9 19.9 0 0 1-12.3-2.6V268.6a12.4 12.4 0 0 1 7.8-2.4c5.1-.1 10.1-1.1 15.2-1.1H121c2 0 4.1.3 5.5-1.7.2 2-.7 2.8-2.6 2.6Z" style="fill:#ffcb30"/><path d="M100.2 396.5h60.4q1-.4 1.1.7a2.3 2.3 0 0 1-1.4.9c-29.4.3-58.9.1-88.3.1a4.7 4.7 0 0 1-3.3-.9H49.4c1.9-3.7 5.4-1.6 8.1-2.1 7-.2 13.9-.1 20.9 0s11.3-.1 16.9-.1c1.8.1 3.5.2 4.9 1.4Z" style="fill:#fcba20"/><path d="M321.8 3.3v181.3c-2.2.5-3.1-1.3-4.2-2.4l-20-20-.8-.8-.8-.9c-.4-.7-.9-1.3-.4-2.1V6.7c.1-3.3.1-3.4 3.6-3.4Z" style="fill:#f57e04"/><path d="m295.5 158.3.9 1.7.9.9a13.3 13.3 0 0 1 .5 3.9c.5 20-1 40-1 60a9.3 9.3 0 0 1-.3 2.1c-.9 2.9-4 3.5-5.9 5.6-4.8 5.4-10.5 9.9-15 15.7-.7 1-1.7 2.4-2.9.3s.4-7 .1-8.8c-1.6 14.3-2.9 30.3-2.5 46.3 0 1.4.3 3.4-2 3.7 0-7.7-.3-15.5.1-23.2.5-12.1.4-24.1 1-36.2.4-7.5.4-15.1.7-22.6a6.8 6.8 0 0 1 .2-2.2c1.9-4.9 1.7-10 1.5-15.1a42.4 42.4 0 0 1 .8-7.8c.8-4.8 1.4-9.7 1.8-14.6a9.5 9.5 0 0 1 2.9-6.1c3.4-3.6 7.3-6.7 10.3-10.7 3.1 2 4.9 5.2 7.9 7.1Z" style="fill:#ee7708"/><path d="M270.1 133.8c-1.5 3.3-1.2 6.9-1 10.3.4 6.1-.8 12.1-1.4 18.1a27.3 27.3 0 0 0-.2 4.3c.5 9.6-.6 19.2-1.1 28.7-.2 5.1-1 10 .1 15.1.6 2.7-.9 5.4-.8 8.2.2 11.4.5 22.7-.1 34.1-.4 8.1-.5 16.2-.9 24.4-.1 2.5-.2 5.2-1.6 7.5-1.6-1.5-1.3-3.5-1.3-5.3v-145a10.2 10.2 0 0 1 .7-4.7 7 7 0 0 1 .4-2.5h.2a35.3 35.3 0 0 1 7 6.8Z" style="fill:#e76d0b"/><path d="M356.9 306.3h1.8v85.1c0 5.1 0 5.1-4.9 5.1h-32c-1.9-2.5-1.3-5.3-1-8 1.1-9 .3-18.1.5-27.1.2-6.9-1-14 1.6-20.8a19 19 0 0 1 4.4-6.9l24.9-24.7c1.2-1.3 2.4-3.1 4.7-2.7Z" style="fill:#f37c02"/><path d="M356.9 306.3c-.9.7-1.8 1.4-2.7 2.2l-26.3 26.3a17.4 17.4 0 0 0-5.2 12.5c-.1 6.4-.2 12.7 0 19.1.3 10.1-.7 20-.9 30.1v.9H313c-4.7-1-9.5-.4-14.2-.4-3.2.1-4.1-1.3-4.6-4.2-2-10.8.5-21.3 1.3-32 2.4-3.3 6.6-4.6 9.2-7.8s6.1-6.3 9.2-9.3 7.3-8.3 6.9-14.5a3.1 3.1 0 0 1 1-2.8c1.5 1.3.6 3 .9 4.5s2 3.1 4 1.5a33.1 33.1 0 0 0 2.5-2.4l23.1-23.1c.7-.7 1.4-1.5 2.2-2.1s1.7-1.2 2.4 1.5Z" style="fill:#f37c04"/><path d="M296.4 359.7a71.6 71.6 0 0 1-1.5 16.8 28.6 28.6 0 0 0-.1 9.5 42.7 42.7 0 0 1 .7 7.8c-.1 2.2 1 2.7 3 2.7H309c1.4 0 2.9-.5 4.1.8-14.3-.3-28.6.8-42.9-.9-1.3-1.4-1.2-3.2-1.2-5-.3-18.3 2.5-36.6 1.7-54.9 3.8-10.3 2.2-21 2.6-31.5a11 11 0 0 1 3.3-7.4q6.1-6.3 12.4-12.4c1.2-1.2 2.6-2.8 4.5-1.9s1.5 3 1.5 4.7c.1 5.4.1 10.8 0 16.2a10.6 10.6 0 0 0 1.5 5.8 23.2 23.2 0 0 1 1.3 8.1v35.7c0 2.2.1 4.3-1.4 5.9Z" style="fill:#f27c07"/><path d="M295.5 309.8c-2.1-.9-1.7-2.8-1.7-4.5v-18.8c0-.8.3-1.9-.6-2.4s-1.8.6-2.5 1.2l-13.6 13.6a8.6 8.6 0 0 0-2.6 6.7c.1 6.8 0 13.7.1 20.5a10.3 10.3 0 0 1-1.3 5.9c-1.4 2.1-1.4 4.3-1.4 6.7s-.1 3.2 0 4.8c.6 9.6-.3 19.2-1.1 28.7s-.3 16.3-.7 24.4h-1.8a5.6 5.6 0 0 1-1.2-4.5c1.5-16.4.4-32.9.7-49.3.2-9.9 1.7-19.7 1.8-29.6.2-16.7.6-33.4 2.3-50 .3-2.8.1-5.5.2-8.3s-.2-3.8 1.4-5.3c5.1-7.7 12.5-13.3 18.7-20a3.8 3.8 0 0 1 3.2-1c1.5 1.5 1.2 3.5 1.3 5.3.5 7.1.6 14.2 1.5 21.2a58.4 58.4 0 0 1 0 13.6c-2.1 11.5-1.1 23.1-1.4 34.6 0 2.2.5 4.6-1.3 6.5Z" style="fill:#f07a07"/><path d="M273.6 249.4c.6 8.3-.3 16.6-1.1 24.8s-.4 14-.6 20.9c-.1 2.6 0 5.2-1 7.7a4 4 0 0 0-.4 2.1c1.2 5.8.5 11.6.4 17.4s-.9 9.5-1.4 14.2c-.1 1.3-.2 2.6-.2 3.9v22.8c0 11.1.3 22.1-.9 33.2-1.4 0-2.7-.2-2.6-2.1.4-9-.8-18 .7-27a30.3 30.3 0 0 0 0-8.3 133.3 133.3 0 0 1-.1-27.8c.4-4.7 1.1-9.5 1.1-14.3 0-6.8.1-13.7 0-20.5a20.9 20.9 0 0 1 .9-6.9c1.2-1 .9-2.4.9-3.7v-13.1a167.4 167.4 0 0 1 2.4-29c.6-3.5.1-7.3.1-11.4 2 1.2 1.9 2.7 1.9 4.2 0 4.4-.1 8.7-.1 12.9Z" style="fill:#ee780a"/><path d="M263.1 128.5c0 6.6.1 13.1.1 19.7q0 68.1.1 136.3 0 47.5-.1 94.9v19.7h-89.4a1.4 1.4 0 0 1 .4-2.2c2.1-.9 4.3-.6 6.5-.6h73.9c2 0 4.2.6 5.6-1.4s.6-4.9.6-7.4V138c0-2.9-.6-5.9 1.4-8.4v-.9q.4-.8.9-.2Z" style="fill:#f2a915"/><path class="cls-29" d="M263.1 128.5h-.8a1.7 1.7 0 0 1 .8-1.7Z"/><path d="M173.8 397.4v1.6h-105v-1.6h92.8a13.9 13.9 0 0 1 12.2 0Z" style="fill:#f4ad1e"/><path d="M57.3 396.5c-2.6.3-5.4-.8-7.9.9H35.1c-1.4 0-2.9.5-4.1-.8h5.2c1.8.1 2.7-.7 2.6-2.6s0-2.3 0-3.5V269.9c.1-3.8.1-3.8 4-3.8h14.5c1.5 1.7 1.4 3.8 1.4 5.8v118.9c0 2 .1 4-1.4 5.7Z" style="fill:#ffca2d"/><path class="cls-32" d="M297.3 254.6a2.2 2.2 0 0 1-.9-1.9c.4-8.1-1.4-16.2-.9-24.4 0-6.1-.3-12.3.1-18.3 1-15.1.8-30.2.8-45.3a7.8 7.8 0 0 1 .9-3.8c5.1 4.1 9.3 9.2 14.1 13.7s6.5 7.1 10.4 10l3.5 4.4a8.7 8.7 0 0 1 .3 4.8c-2 10.8-2.2 21.7-2.8 32.5-.2 3.6-2.3 6.6-4.6 9.3-5.5 6.2-11.6 11.9-17.5 17.7-.9.8-1.9 1.8-3.4 1.3Z"/><path d="M297.3 254.6c7.5-7 15.1-14 21.6-22a13 13 0 0 0 2.9-9.3c-.4-7 .7-13.9 1.1-20.8a60.2 60.2 0 0 1 2.3-13.6c3 2.1 5.3 4.9 7.8 7.4 6.2 6.3 12.7 12.1 18.5 18.8l.9.9.9.9.9.9.9.9a13.3 13.3 0 0 1-2.6 4l-29.3 29.2a10 10 0 0 1-1.4 1c-2.4-1.4-4-.3-5.7 1.4-4.6 4.7-9.2 9.4-13.9 13.9-1.4 1.3-3 3.4-4.9.5Z" style="fill:#f07803"/><path class="cls-14" d="m355.1 218.7-.9-.9Zm-.9-.8-.9-.9Zm-.9-.9-.9-.9Zm-.8-.9-.9-.9Z"/><path d="M297.3 268.7c1.7 1.2 2.9.2 4.1-1l15.7-15.7c2.2-2.2 2.7-2 4.7.9 0 7-.3 14 .1 20.9s-.1 12.3-.1 18.5V311c0 2.9-.3 5.8.7 8.6s-1.1 4.5-.7 6.8c1.2 7.8-2.2 13.6-7.7 18.7-4 3.7-7.8 7.7-11.7 11.6-1.7 1.7-3.5 3.1-6 2.9 0-12.3-.1-24.7 0-37a72 72 0 0 0-.9-12.9c0-10.8-.2-21.6.1-32.5.2-2.7.2-5.8 1.7-8.5Z" style="fill:#f27a05"/><path d="M173.8 129.4h29.8c2 2.4 1.4 5.3 1.4 8q.1 73.9 0 147.8v103.6c0 2.6.5 5.3-1.1 7.6a218.4 218.4 0 0 1-30.2.1c-1.4-1.7-1.2-3.8-1.2-5.9V135.5c-.1-2-.3-4.3 1.3-6.1Z" style="fill:#ffc517"/><path d="M262.3 129.4v267.1a183.3 183.3 0 0 1-27.4 0c-1.4-1.8-1.2-3.9-1.2-5.9v-255c0-2.2-.2-4.4 1.4-6.2Z" style="fill:#ffc311"/><path d="M235.1 129.4v267.1a58 58 0 0 1-16.1-.1c-1.3-1.8-1.1-3.9-1.1-5.9V135.6c0-2.2-.2-4.4 1.4-6.2Z" style="fill:#ffc313"/><path d="M219.3 129.4v267.1a60.3 60.3 0 0 1-15.8 0V129.4Z" style="fill:#ffc515"/><path class="cls-29" d="M173.8 129.4v267.1a36.2 36.2 0 0 1-12.3 0h-.9V135.4c0-6.7-.6-6 6.1-6.1Z"/><path d="M100.2 396.5H78.3c-1.5-1.7-1.4-3.8-1.4-5.8V271.8c0-2-.1-4.1 1.4-5.8h21.9v130.5Z" style="fill:#ffc927"/><path d="M78.3 266v130.5h-21V266Z" style="fill:#ffca2a"/><path d="M161.5 396.5h100.8c-1.4 1.5-3.3.8-5 .8h-95.8Z" style="fill:#fbb715"/><path class="cls-32" d="m297.3 160.9-.9-.9Z"/></svg>