<svg xmlns="http://www.w3.org/2000/svg" viewBox="0 0 400 400"><defs><style>.cls-2{fill:#d2d3d4}.cls-3{fill:#e6e7e8}</style></defs><path d="M46.4 191.5v186.3h17.5v-24.4H200v24.3h30.2v-42s-36.3-18.3-36.3-53.2 7.4-44.9 36.3-69.4l58.5 61.9v-61.9a93.9 93.9 0 0 1 20.4 17.5l44.9 48.7v-88Zm119 139.5H63.9V214.8h101.5Z" style="fill:#fff"/><path class="cls-2" d="M46.4 140.5s-1.6-5.8 4.8-5.8h297.9s4.9 0 4.9 6v50.7h45.7v-58.3L346.6 80l-289.4.2L0 133.1v58.4h46.4Z"/><path class="cls-3" d="M0 191.5v182.3l4.7 4h41.7V191.5H0zm399.7-.2H354v186.5h40.1l5.9-5.9-.3-180.6z"/><path d="M256.9 80h31.9V52.4l-31-30.2h-.4v25.9l-.5 31.9zm-114-31.9V22.2h-.5l-31 30.2V80h31.5V48.1z" style="fill:#7b7b7b"/><path style="fill:#5a5a5a" d="M142.9 22.2h114.5v25.83H142.9z"/><path class="cls-2" d="M63.9 214.8h101.5v116.25H63.9zm0 138.6H200v24.33H63.9z"/><path d="M327.4 275.5c0 39.6-29.5 56.4-38.4 60v42.3h-58.8v-42s-36.3-18.3-36.3-53.2 7.4-44.9 36.3-69.4V280l29.8 16 28.7-14.8v-68.1a93.9 93.9 0 0 1 20.4 17.5c9.3 10.6 18.3 25.8 18.3 44.9Z" style="fill:#505050"/><path d="M354 279.3v98.4h-65v-42.3c8.9-3.5 38.4-20.4 38.4-60 0-19.1-9-34.3-18.3-44.9Zm-65.3-4.2v6l-28.6 14.8-29.9-16v-66.8l58.5 62z" style="fill:#bdbdbd"/><path d="M349.1 134.6H51.3c-6.5 0-4.8 5.8-4.8 5.8v51.1l307.6-.2v-50.6c-.1-6.1-5-6.1-5-6.1Zm-271 39.8a14.2 14.2 0 1 1 14.2-14.2 14.2 14.2 0 0 1-14.1 14.2Zm38.4 0a14.2 14.2 0 1 1 14.2-14.2 14.2 14.2 0 0 1-14.1 14.2Z" style="fill:#4089f8"/><circle class="cls-3" cx="78.2" cy="160.2" r="14.2"/><circle class="cls-3" cx="116.6" cy="160.2" r="14.2"/></svg>