<svg data-name="Layer 1" xmlns="http://www.w3.org/2000/svg" viewBox="0 0 400 400"><path d="M318 274.3c-10.9 12.1-23.4 19.6-37.6 19.6H278a50.8 50.8 0 0 1-23.8-6.3 54.9 54.9 0 0 1-20.8-19c-5.6-7.9-8.7-16.6-8.7-25.8V240a52.9 52.9 0 0 1 6.1-25.7 55.7 55.7 0 0 1 19.4-21.2A47.4 47.4 0 0 1 277 185h.9a54.4 54.4 0 0 1 25.2 5.8 53.5 53.5 0 0 1 19.8 18 57.4 57.4 0 0 1 8.9 25.3c.1 1.9.2 3.9.2 5.7.2 12.5-4.6 24-14 34.5Zm49-84.3a101.6 101.6 0 0 0-36.9-36.7 99.1 99.1 0 0 0-37.3-12.9V92a35.8 35.8 0 0 0 22-33.5 36.8 36.8 0 1 0-73.5 0c0 14.9 8 27.7 21.6 33.5v48.5a106.6 106.6 0 0 0-32.5 10.2L99.9 51.5a40.1 40.1 0 0 0 1.7-10.8 41.1 41.1 0 1 0-19.8 34.9l8.5 6.5 117.1 84.4a98.2 98.2 0 0 0-16.6 19.4c-9.3 14.8-15.1 31.1-15.1 48.8v3.7a102.3 102.3 0 0 0 6.4 35.3 92.6 92.6 0 0 0 15.3 26.3l-38.9 39a31.4 31.4 0 1 0 19.3 20l40.2-40.2a103.2 103.2 0 0 0 17.8 9.8 104.4 104.4 0 0 0 41.8 8.8h2.8a100 100 0 0 0 85-47.2 92.3 92.3 0 0 0 14.5-49.7v-.9c0-17.9-4.2-34.5-12.9-49.6Z" style="fill:#f37621"/></svg>