<svg id="Layer_1" data-name="Layer 1" xmlns="http://www.w3.org/2000/svg" viewBox="0 0 400 400"><defs><style>.cls-2{fill:none}</style></defs><path d="M350.2 0h-300A49.8 49.8 0 0 0 0 49.8v300A49.9 49.9 0 0 0 50.2 400h300a49.7 49.7 0 0 0 49.8-49.8v-300A49.8 49.8 0 0 0 350.2 0ZM320 100a13.3 13.3 0 0 1 26.7 0v120a13.3 13.3 0 0 1-26.7 0Zm-66.7-26.7a13.3 13.3 0 0 1 26.7 0v178.3a13.3 13.3 0 0 1-26.7 0Zm-66.7-6.7a13.3 13.3 0 1 1 26.7 0V260a13.3 13.3 0 1 1-26.7 0ZM120 73.3a13.3 13.3 0 0 1 26.7 0v178.3a13.3 13.3 0 0 1-26.7 0ZM53.3 100a13.3 13.3 0 0 1 26.7 0v120a13.3 13.3 0 0 1-26.7 0Zm288.9 203.6c-2.2 1.8-51.5 43.1-142.2 43.1S60 305.3 57.8 303.6a13.2 13.2 0 1 1 17.3-20C76 283.6 120 320 200 320s124.4-36.4 124.4-36.9a13.3 13.3 0 0 1 18.7 1.3 13.4 13.4 0 0 1-.9 19.2Z" style="fill:#1f8ded"/><path class="cls-2" d="M350.2 0h-300A49.8 49.8 0 0 0 0 49.8v300A49.9 49.9 0 0 0 50.2 400h300a49.7 49.7 0 0 0 49.8-49.8v-300A49.8 49.8 0 0 0 350.2 0ZM320 100a13.3 13.3 0 0 1 26.7 0v120a13.3 13.3 0 0 1-26.7 0Zm-66.7-26.7a13.3 13.3 0 0 1 26.7 0v178.3a13.3 13.3 0 0 1-26.7 0Zm-66.7-6.7a13.3 13.3 0 1 1 26.7 0V260a13.3 13.3 0 1 1-26.7 0ZM120 73.3a13.3 13.3 0 0 1 26.7 0v178.3a13.3 13.3 0 0 1-26.7 0ZM53.3 100a13.3 13.3 0 0 1 26.7 0v120a13.3 13.3 0 0 1-26.7 0Zm288.9 203.6c-2.2 1.8-51.5 43.1-142.2 43.1S60 305.3 57.8 303.6a13.2 13.2 0 1 1 17.3-20C76 283.6 120 320 200 320s124.4-36.4 124.4-36.9a13.3 13.3 0 0 1 18.7 1.3 13.4 13.4 0 0 1-.9 19.2Z"/><path class="cls-2" d="M350.2 0h-300A49.8 49.8 0 0 0 0 49.8v300A49.9 49.9 0 0 0 50.2 400h300a49.7 49.7 0 0 0 49.8-49.8v-300A49.8 49.8 0 0 0 350.2 0ZM320 100a13.3 13.3 0 0 1 26.7 0v120a13.3 13.3 0 0 1-26.7 0Zm-66.7-26.7a13.3 13.3 0 0 1 26.7 0v178.3a13.3 13.3 0 0 1-26.7 0Zm-66.7-6.7a13.3 13.3 0 1 1 26.7 0V260a13.3 13.3 0 1 1-26.7 0ZM120 73.3a13.3 13.3 0 0 1 26.7 0v178.3a13.3 13.3 0 0 1-26.7 0ZM53.3 100a13.3 13.3 0 0 1 26.7 0v120a13.3 13.3 0 0 1-26.7 0Zm288.9 203.6c-2.2 1.8-51.5 43.1-142.2 43.1S60 305.3 57.8 303.6a13.2 13.2 0 1 1 17.3-20C76 283.6 120 320 200 320s124.4-36.4 124.4-36.9a13.3 13.3 0 0 1 18.7 1.3 13.4 13.4 0 0 1-.9 19.2Z"/></svg>