<svg data-name="Layer 1" xmlns="http://www.w3.org/2000/svg" viewBox="0 0 400 400"><defs><linearGradient id="a" x1="110.54" y1="159.9" x2="202.34" y2="68.09" gradientUnits="userSpaceOnUse"><stop offset="0" stop-color="#2684ff"/><stop offset=".14" stop-color="#1d78f3"/><stop offset=".51" stop-color="#085cd7"/><stop offset=".72" stop-color="#0052cc"/></linearGradient></defs><path d="M200 259.1 140.9 200l59.1-59.1 59.1 59.1Zm188.8-70.3L216.7 16.7 200 0 70.4 129.6l-59.2 59.2a15.8 15.8 0 0 0 0 22.4l118.4 118.4L200 400l129.6-129.6 2-2 57.2-57.2a15.8 15.8 0 0 0 0-22.4Z" style="fill:#2684ff"/><path d="M200 140.9A99.6 99.6 0 0 1 199.6.5L70.2 129.8l70.4 70.4Z" style="fill:url(#a)"/><path d="M259.3 199.8 200 259.1a99.6 99.6 0 0 1 0 140.9l129.7-129.7Z" style="fill:#0052cc"/></svg>