<svg data-name="Layer 1" xmlns="http://www.w3.org/2000/svg" viewBox="0 0 400 400"><defs><linearGradient id="a" x1="200" y1="335.14" x2="200" y2="64.86" gradientUnits="userSpaceOnUse"><stop offset=".13" stop-color="#f8de1d"/><stop offset=".54" stop-color="#08cd7b"/></linearGradient></defs><path d="M325.9 254.8c.8 1.2.5 1.7-.6 2.4l-38.7 25.7c-1 .7-1.5.8-2.2-.4a100 100 0 0 0-42.8-37.8l-.3-.3a128 128 0 0 0-21.8-6.9 99.6 99.6 0 0 0-49.3 2.8 108.5 108.5 0 0 0-14.1 5.6 104.7 104.7 0 0 0-28.8 21.7 94.4 94.4 0 0 0-11.3 14.6c-.9 1.4-1.5 1.3-2.7.5l-38-25.1c-1.6-1-1.8-1.7-.7-3.2 2.3-3.2 4.3-6.6 6.9-9.5a132 132 0 0 1 21.5-23 123.9 123.9 0 0 1 21.2-15.1 127 127 0 0 1 30.2-13.8 150 150 0 0 1 38-6.9 147 147 0 0 1 44.6 4.4 158 158 0 0 1 35 13.9l2.9 1.7a144.1 144.1 0 0 1 42.7 37.3 113.6 113.6 0 0 1 8.3 11.4Zm-92.7 42.9a49.9 49.9 0 0 0-53.6-8.2 48 48 0 0 0-21.3 18.5c-2 2.9-2 2.9.9 4.9l26.9 18a25.9 25.9 0 0 0 28.5-.1l26.6-17.9c3-2 3-2 .9-4.9a43.9 43.9 0 0 0-8.9-10.3Zm166.7-99.2c-.7-5.4-4-8.9-8.3-11.7l-22.9-15.2-22.8-15c-4.9-2.9-9.5-6.4-14.2-9.5l-46.1-30.6-18.8-12.3-.9-.7a13.4 13.4 0 0 0-3.4-2.3l-17.2-11-31.8-21.3a24.5 24.5 0 0 0-26.9 0l-23.4 15.5-25.5 17-37 24.4L58 154.2l-.4.2c-17 11.3-34.1 22.5-51 33.9-5 3.4-8.3 10.3-5.6 15.7.9 4 3.8 6.6 7 8.8 7.6 5.2 15.3 10.1 22.9 15.3 1.2.8 1.7.6 2.4-.5 2-3 3.9-6 6.1-8.9 3.7-5 7.6-9.8 11.4-14.7s7.8-8.3 12-12.3a213.5 213.5 0 0 1 32.9-25.5c5.9-3.7 12.1-6.8 18.1-10.2l2-.8a199 199 0 0 1 158.2-4.5c5.8 2.3 11.5 5.1 17.2 7.7l1.6 1a200.8 200.8 0 0 1 41.8 29.6c5.6 5.2 10.9 10.7 16 16.4 5.8 7.3 11.7 14.5 16.6 22.5.9 1.5 1.6.4 2.3 0l22.9-15.2a15.1 15.1 0 0 0 6.3-7.3 11.1 11.1 0 0 0 1.2-6.9Z" style="fill:url(#a)"/></svg>