<svg id="Layer_1" data-name="Layer 1" xmlns="http://www.w3.org/2000/svg" viewBox="0 0 400 400"><defs><style>.cls-1{fill:#694d47}.cls-6{fill:#13202f}</style></defs><path class="cls-1" d="M383.1 284.9c-.3 1-29.4 112.9-143.8 112.9-98.9 0-145.8-86-145.8-86a51.2 51.2 0 0 1-20.6-3.1C43.9 298 30 264.8 40 237l-15.9-12.2c-61.8-47.1 113.2-262.4 175-213.6L213.9 23C236.1 9.5 258.1 2.3 276 2.3c12.7 0 23.3 3.7 30.5 11.4 16.1 17.4 10.3 50.6-11.6 84.2a55.2 55.2 0 0 1 11.4 16.6c7 5.4 11.5 13.6 13.7 24.9s3 30.4 4.6 38.1c5.9 2.7 3.4 1.4 9.7 4.6s14.6 7.3 23.4 15.8c15.7 3.9 21.7 20.7 12.5 32.1l-2.5 2.9a59.2 59.2 0 0 1 5.5 15.6 20.8 20.8 0 0 1 14.4 11.4c4.7 11.3-4.5 25-4.5 25Zm-45.3 84.5v4.7h1.8v-4.7h1.8v-1.5H336v1.5Zm4.2-1.5v6.2h1.6v-4.4l1.3 4.4h1.4l1.3-4.5v4.5h1.6v-6.2h-2.6l-1.1 3.5-1.1-3.5Z"/><path d="M116.8 242.8a98 98 0 0 0 3.7-11.5 72.9 72.9 0 0 1 3.7 27.2 55.9 55.9 0 0 0 4.9-9.1c4.4 25.9-14.5 49.6-39.4 49.6-22.1 0-40-18.9-40-42.1s17.9-42.1 40-42.1a38.2 38.2 0 0 1 16.1 3.6s8.6 4.1 11 24.4Zm217.8 91.3c31-24.4 36.4-53.7 37-54.7 7.6-9.2 5.6-18.2-4.5-18.2a18.8 18.8 0 0 0-5.6.8s0-13.4-6.1-23.8c-4.8 5.4-18 16-35.3 24.2a163.1 163.1 0 0 1-65.1 15.4c-7.5.3-12.2-.9-14.8 7.9-.8 3.1-.5 7.7.2 9 2.1 7.3 7.7 10.5 15 12.2a63.5 63.5 0 0 0 11.4 1.4c54.6 1.5 98.4-41 98.9-41.4l.9-.9-.5 1.3c-7.9 17.7-53.5 49.9-98.9 48.9h-.1c-10.5 0-23.3-2.8-30-11-10.5-13.1-5.1-34.8 11.7-35.3h5.6c41.5-1.3 78.8-16.5 105.5-48.4 3.7-4.6-.4-10.8-8.4-11h-.2c-9.4-10.1-17.7-13.7-25.1-17.4-15.5-7.9-14-1.1-17.6-39.3-1-10.3-2.9-24.3-12-29.7a14.7 14.7 0 0 0-7.7-2 14.2 14.2 0 0 0-4.5.7c-5 1.1-7.8 3.9-11.3 7.2-16.7 15.4-30 11.2-49.9 11s-35.2 12.9-38.4 32.9c-1.5 10.5-.5 21.1 1.1 25.9 0 0-5.1-3.4-7.5-6.4 2.9 18.3 19.6 30.2 19.6 30.2a27.2 27.2 0 0 1-6.4.4s9.5 7.5 17.8 10.2c-2.1 1.3-13 12.1-18.6 26.9s-3.1 30.4-3.1 30.4l4.6-6.8s-3 15.1 2.8 29.8c1.9-4.4 6.1-12.2 6.1-12.2s-.7 16.3 7.2 29.6c.2-3.1 1.4-10.9 1.4-10.9s4.5 13.9 14.9 23.6c19.3 17.1 70.7 20.2 109.9-10.5Z" style="fill:#f4dbb9"/><path d="M46 225.1c-.2 0-15.1-11-17.2-14.6-12.5-21.2 9.3-64.6 24.8-89.3C92 60.2 155.8 12 184.8 18.9l29.8 15.4A240.9 240.9 0 0 0 185.1 55l-6.3 5.3s-18.5 12.5-27.7 20.3c-36.9 31.5-73.2 80.2-86.7 127.3A51.1 51.1 0 0 0 46 225.1Z" style="fill:#0b87be"/><path d="M184.8 18.9C155.8 12 92 60.2 53.6 121.2h.1l30.6 24.1C117.9 92 160 64.6 161.2 63.8l-4.8-32.6 9.1-4.3 18.2 5.9-1.4-6.1 2.5-7.8Z" style="fill:#48b8e2"/><path d="M214.6 34.3 185.1 55l-2.1 1.6-26-21.3-.6-4 9.1-4.3 18.2 5.9.3-11.3.8-2.6 8-3.1Z" style="fill:#ffd14f"/><path class="cls-6" d="M272.7 14c-19.5 0-41.3 10.2-58.1 20.3l-7 4.3-8.8-7.4 3.2 11.1-3.5 2.5-18.1-5.5 12 10-7.3 5.7-28.7-23.8 1.5 10.6 20.9 18.4s-18.5 12.5-27.7 20.3c-36.9 31.5-73.2 80.2-86.7 127.3l.8-.4.3-.2 1.1-.6.7-.4 1.2-.5.7-.3 1.3-.5.6-.2 1.8-.6c9.2-2.7 21.6-4.5 36.2 1.7 7.3-18.5 16.1-37.3 29.9-55.3 11.2-14.6 21.9-27.7 34.8-34.9 24.4-22.9 90.2-47.2 111.3-26.1 5-8.2 9.3-15.9 12.9-25.6 8.8-23.3 8.9-49.9-25.3-49.9Z"/><path class="cls-6" d="m189.1 34.5-4.3-15.6-2.5 7.8 1.5 6.1 5.3 1.7z"/><path d="M361.4 262s0-13.4-6.1-23.8c-4.8 5.4-18 16-35.3 24.2a163.1 163.1 0 0 1-65 15.4c-7.5.3-12.2-.9-14.8 7.9a14.4 14.4 0 0 0-.4 2.5v2.9c0 .4.1.8.1 1.1a8 8 0 0 0 .5 2.1c2.1 7.2 7.7 10.4 14.9 12.1a63.5 63.5 0 0 0 11.4 1.4c44.5 1.2 81.9-26.9 94.4-37.4a76.9 76.9 0 0 0 .3-8.4ZM233.5 24.2c10.6-4.9 22-8.8 33-9.9-10.9 2.4-24.1 8.1-39.8 17.7-.4.2-37.1 25-59.5 47.2-12.2 12.1-61.3 71-61.3 70.9 9-17 14.9-25.3 29.1-43.2 8-10.1 16.6-19.9 25.4-29q4.4-4.6 8.9-8.9c1.1-1 26.7-27.3 64.2-44.8Z" style="fill:#fff"/><path d="M334.6 334.1a108.6 108.6 0 0 1-16.6 10.7c-13.1-5-21.2-15.6-21.2-15.6s11.2-2.7 26.3-10.3a143.6 143.6 0 0 0 48.4-39.6c-.5 1-5.9 30.4-36.9 54.8Zm-35.7-141.5c-6.3-4.5-16.8-.9-19.2 6.5 3.7.2 7.6 3 7.3 6.5a14.1 14.1 0 0 1 9.9-3.9c-1.7-2.7-.8-7.5 2-9.1Zm-66.5 91.1c2-7.4 7.6-13.3 16.3-13.6h5.6c41.5-1.3 78.8-16.5 105.5-48.4 3.7-4.6-.4-10.8-8.4-11h-.1c-1.3 1.4-1.6 4-3.8 7.9-8.1 14.1-19.3 20.6-34.3 28-45.9 22.9-69.7 12.2-79.3 26.2-2.8 4.1-2.8 8.7-1.5 11Zm83.1-95.8c-4.4-3.2-4.5-8.6-6.9-34.1-.8-8.1-2.1-18.5-7.1-25.2a6.8 6.8 0 0 0-4.5-1.9c-3.1-.1-6.7 3.1-8.7 5.3-5.7 8.2-11.1 13.5-20.8 18.1a62.6 62.6 0 0 1-28.6 5.7c-7-.2-13.2-1.4-19.3-1.5-11.2-.2-20.9 3.5-28 12.4-4.9 6.1-6.8 12.6-7.4 20.3 0 .9.1 1.8.1 2.6s.2 2.4.3 3.5a32.3 32.3 0 0 0 1.2 5.9l.2.6s-5.1-3.4-7.5-6.4c2.4 15.2 14.4 26.1 18.4 29.3l.7.5h.1l.5.4a27.2 27.2 0 0 1-6.4.4s9.5 7.5 17.8 10.2a61.7 61.7 0 0 1 33.4-13.9c6.2-3.8 12.8-7.6 20-11.2-2.2-13.4 9.8-27 24.8-28.3 11.3-.8 16.8 4.3 20.8 9.7l7.3-2.2Zm5.4 90.6h-.4c-4.5 1-51.2 19.1-80.7 9.9-.1 1.6-.1 5 .6 6.5a86.3 86.3 0 0 0 16.7 1.5c38.7-.2 66.7-17.8 63.8-18.1Zm-217.1-3.6a11.3 11.3 0 0 0 2.8-9.5c-.9-4.9-6.4-5.9-10.1-9.7l-.2-.2-.2-.2a8.2 8.2 0 0 1-2.1-6c.3-5 4.7-6.4 7-5.5a9.3 9.3 0 0 1 4.9 3.6 11.8 11.8 0 0 0-1.9-4.9c-2.7-3.9-9-7.8-17.8-5.9l-2.3.6-.7.2-1.4.6a19.9 19.9 0 0 0-3.2 1.9c-9.9 12.9 6.9 36.2 25.2 34.8Z" style="fill:#e9bd8b"/><path d="M250.5 195.6c.8 1.2 1.1 2.2.7 2.5s-3.1-.3-6.7-1.7c-9.1-3.4-15.9-3.9-27.8.6-3 1.1-5.2 2-6.2 1.9s-.1-3.3 3.6-6.3a27.2 27.2 0 0 1 26.1-4.5c3.9 1.5 8.1 4.3 10.3 7.5Zm-1.8 9.3c-2.5-1.9-7.1-3.2-11.9-2.4l-2.8.7-1 .3a16.5 16.5 0 0 0-5.4 3.3c-1.9 1.8-2.5 3.6-1.9 4s1.9-.2 3.9-1a32.7 32.7 0 0 1 16.3-2.6c2.2.1 3.7.3 4.1-.3s-.2-1.1-1.3-1.9Zm-147.3 35.2a13.4 13.4 0 0 1 2.6 2.8c2.1 3 1.4 4.7 2.3 5.6a1.1 1.1 0 0 0 1.2.2c1.2-.5 1.8-2.4 1.9-3.7.3-3.2-1.4-6.8-3.6-9.3a19.6 19.6 0 0 0-5.3-4.3 22.1 22.1 0 0 0-7.4-2.5 27.7 27.7 0 0 0-10.7.6l-2.2.6a24.2 24.2 0 0 0-15 15.8 27.7 27.7 0 0 0-.5 13.8 18.6 18.6 0 0 0 4.1 8.5c2.6 2.8 5.4 2.3 4.2-.3a22.6 22.6 0 0 1-2.1-9 26.4 26.4 0 0 1 1.6-10.5 19.7 19.7 0 0 1 3-5.1 18.8 18.8 0 0 1 6.2-4.8l1.4-.6.7-.2 2.3-.6c6.3-1.5 11.6-.1 15.3 3Zm-1.3 11.9a3.7 3.7 0 0 1-1.5-2.1c-.3-1.6-.2-2.5 1.2-3.5s1.9-1.1 1.9-1.5-3.5-1.8-6 .7-2.7 6.8.6 10.3 9.4 4.9 10.2 9.8a9.4 9.4 0 0 1 .1 2.3 12 12 0 0 1-.3 2.2c-1.1 4.8-5.7 9.4-13.2 8.2-1.4-.2-2.3-.4-2.5 0s2.6 4.5 8.5 4.4 11.5-4.4 13.3-10.9a16.5 16.5 0 0 0 .6-3.6 14.8 14.8 0 0 0-.2-3.8c-1.3-8.4-9.6-10.1-12.7-12.6Zm200.8-59.4c-2.3-.4-4.5 1.9-5 5s1 5.9 3.2 6.3 4.5-1.9 5-5-.9-6-3.2-6.4Zm-25 9.1c-1.3 2.3.3 5.5 3.4 7.2s6.7 1.3 7.9-1-.3-5.5-3.4-7.2-6.7-1.4-7.9.9Zm-91.6-92.4c43.1-27.9 86.1-31.1 100.9-19.8l-.4-.9c-3.7-8-12.5-13.5-20.3-15.7a30.4 30.4 0 0 1 4.1 5.6 62 62 0 0 0-21.8-9.3l1.1.9a21 21 0 0 1 4.7 6c-7.8-3.1-17.6-4.9-26-3.3l-1.1.2 1.3.3c2.8.8 6.8 2.5 8.5 4.9-14-2.5-29.4.3-37.7 4.9h2c3.1.1 9.2.5 11.8 2.1-8.8 1.8-21.6 5.7-28.5 11.6 1.2-.1 8.1-1 10.9-.6-37.8 21.6-55 54.4-55 54.4 11.2-14.6 25.7-28.6 45.4-41.3Z" style="fill:#9b7457"/><path class="cls-1" d="M285.9 170.3c-.1-3 .4-7.9 3.2-8.8 4.8-1.7 11.1 10.6 11.4 21.4a23.9 23.9 0 0 0-12.8-2.3 36.8 36.8 0 0 1-1.8-10.3Z"/></svg>