<svg version="1.2" baseProfile="tiny" xmlns="http://www.w3.org/2000/svg" width="150" height="28" viewBox="0 0 1500 285" overflow="scroll" xml:space="preserve"><path fill="#21DA27" d="M512.087 59.365c-44.77 0-74.262 30.813-74.262 81.638 0 62.938 45.031 81.114 77.158 81.114 40.556 0 63.731-27.389 63.731-27.389l-20.807-20.804c-11.06 9.741-23.697 15.797-42.663 15.797-25.015 0-41.87-14.748-41.87-34.761H584.77c.268.001 19.751-95.595-72.683-95.595m-38.45 68.471c0-26.863 20.542-40.027 42.401-40.027 22.12 0 41.869 13.164 41.869 40.027h-84.27zm-372.114-2.633c-14.222-1.842-55.568-.261-55.568-19.223 0-11.063 17.383-17.116 33.185-17.116 25.545 0 42.401 10.27 47.141 13.693l21.328-21.336c-6.319-4.998-30.02-21.856-68.732-21.856-35.291 0-66.893 18.433-66.893 47.932.266 45.292 55.041 45.292 77.69 47.664 13.959 1.318 26.599 2.367 26.599 15.803 0 12.641-19.229 19.748-34.24 19.748-24.485 0-38.973-7.898-53.192-20.803L5.665 192.887c21.068 20.536 47.931 29.489 74.264 29.489 40.822 0 70.842-18.171 70.842-54.249 0-24.491-16.066-38.975-49.248-42.924m117.718-65.838c-35.553 0-58.725 18.171-62.942 21.859l21.596 21.591c4.215-3.423 18.96-13.425 41.611-13.425 27.125 0 35.289 10.795 35.289 23.172v15.277h-48.459c-17.907 0-53.195 4.472-53.195 43.979 0 28.967 16.59 50.299 56.357 50.299 20.012 0 35.023-6.584 45.559-18.967v15.806h35.289V114.669c-.263-36.606-22.384-55.304-71.105-55.304m35.815 102.706c0 30.024-21.596 28.44-40.556 28.44-19.491 0-31.867-5.268-31.867-18.693 0-12.641 10.008-16.857 31.078-16.857h41.608v7.11h-.263zm144.052-99.544v17.377c-12.115-13.955-26.334-20.801-45.82-20.801-33.448 0-50.564 18.694-56.36 38.71-2.107 7.375-2.896 21.597-2.896 42.401 0 19.752.261 37.658 7.112 51.351 9.481 19.227 32.916 30.02 52.405 30.02 18.963 0 34.762-7.373 45.822-20.011v9.741c0 11.589-3.953 18.961-11.322 25.018-7.375 6.059-16.592 9.746-29.497 9.746-11.588 0-22.914-6.317-29.233-10.801l-23.7 23.707c15.277 12.379 33.709 21.068 53.46 21.068 21.067.264 37.923-6.324 52.672-17.91 14.221-11.06 23.172-32.125 23.172-54.255V62.527h-35.815m0 77.95c0 12.115-.261 21.068-1.055 25.808-2.105 10.008-13.693 23.443-34.494 23.443-5.269 0-32.133-2.9-35.029-26.076-.527-4.742-1.055-10.799-1.055-22.914 0-18.171.793-23.701 1.583-28.44 1.841-9.215 13.694-22.385 34.501-22.385 25.279 0 33.443 17.122 34.494 23.969.794 4.21 1.055 14.483 1.055 26.595"/><path fill="#8E8A86" d="M679.478 4.938h14.58v218.164h-14.58zM860.41 223.102h-14.84v-102.57c0-25.251-8.067-40.094-34.104-40.094-21.864 0-46.079 14.582-55.971 23.692v118.973h-14.843V70.026h13.019l.779 19.783c17.703-12.755 38.27-22.908 59.621-22.908 32.279 0 46.076 18.746 46.076 53.111v103.09m113.771-5.207c-7.289 5.207-21.871 9.11-32.802 9.11-28.38 0-38.787-11.709-38.787-38.528V83.303h-24.474V70.284h24.212V26.551l14.837-2.343v46.077h43.479v13.019h-43.479v102.051c0 18.481 4.164 29.157 24.993 29.157 9.368 0 20.829-3.903 27.856-8.07l4.165 11.453m116.633-16.403c0 8.332 1.563 12.758 9.372 12.758 2.604 0 5.466-.517 9.368-1.82l1.307 9.633c-5.988 3.125-9.896 3.645-16.141 3.645-13.277 0-17.965-9.895-17.441-19.266-11.716 11.715-30.203 20.57-51.807 20.57-39.053 0-45.303-27.085-45.303-41.657 0-43.736 39.572-51.287 74.977-51.287 7.292 0 14.056.261 20.828.52v-13.536c0-30.2-7.551-41.654-36.447-41.654-25.512 0-35.665 9.63-38.79 28.634l-14.056-2.34c4.945-28.376 23.424-38.532 54.146-38.532 35.928 0 50.242 13.281 50.242 51.287v83.046m-15.095-54.151c-7.031-.517-14.056-.777-23.431-.777-30.717 0-57.014 6.246-57.014 37.482 0 16.668 6.247 30.465 31.763 30.465 19.263 0 38.271-9.11 48.943-21.609v-45.561h-.261zm43.739 0c0-53.889 26.556-80.183 71.069-80.183 28.902 0 52.853 16.664 54.154 49.725l-15.887 1.824c-2.599-26.294-15.359-38.529-40.088-38.529-25.514 0-53.893 14.579-53.893 65.084 0 54.664 26.556 67.687 52.074 67.687 23.422 0 39.827-10.938 43.992-34.887l15.104 3.124c-5.729 32.806-32.023 45.825-58.84 45.825-50.246-.266-67.685-33.326-67.685-79.67m144.747 0c0-53.889 26.556-80.183 71.07-80.183 28.896 0 52.849 16.664 54.153 49.725l-15.883 1.824c-2.603-26.294-15.354-38.529-40.098-38.529-25.507 0-53.886 14.579-53.886 65.084 0 54.664 26.555 67.687 52.074 67.687 23.421 0 39.826-10.938 43.985-34.887l15.104 3.124c-5.724 32.806-32.018 45.825-58.832 45.825-50.247-.266-67.687-33.326-67.687-79.67m230.138 70.553c-7.289 5.207-21.868 9.11-32.806 9.11-28.373 0-38.79-11.709-38.79-38.528V83.303h-24.467V70.284h24.467V26.551l14.84-2.343v46.077h43.475v13.019h-43.475v102.051c0 18.481 4.168 29.157 24.993 29.157 9.375 0 20.832-3.903 27.859-8.07l3.904 11.453"/></svg>