<svg id="Layer_1" data-name="Layer 1" xmlns="http://www.w3.org/2000/svg" viewBox="0 0 400 400"><defs><style>.cls-1{fill:#92c7a1}.cls-2{fill:none}</style></defs><path class="cls-1" d="M105.2 322.2A19.2 19.2 0 1 1 86 303a19.2 19.2 0 0 1 19.2 19.2ZM181.4 54A146.3 146.3 0 0 0 59.2 156.9a19.2 19.2 0 0 1-18.4 13.6 19.2 19.2 0 0 1-18.3-24.8A185 185 0 0 1 84.9 54m182.2 194.4a19 19 0 0 1-19 19.6H21a18.8 18.8 0 0 1-4.1-.4 18.9 18.9 0 0 1 0-37.2 18.1 18.1 0 0 1 3.6-.3h227.1c10.3-.1 19.2 7.9 19.5 18.3Z"/><circle class="cls-1" cx="314" cy="78.2" r="19.2"/><path class="cls-1" d="M398.5 150.4a19 19 0 0 1-14.6 19.1 18.3 18.3 0 0 1-4.3.5H152.4c-10.3 0-19.1-8-19.5-18.4a19 19 0 0 1 19-19.6H379a19.9 19.9 0 0 1 4.8.6 19.2 19.2 0 0 1 14.7 17.8Z"/><path class="cls-2" d="M16.9 267.6a18.8 18.8 0 0 0 4.1.4h227.1a19 19 0 0 0 19-19.6c-.3-10.3-9.2-18.4-19.5-18.4H20.5a18.1 18.1 0 0 0-3.6.3M86 303a19.2 19.2 0 1 0 19.2 19.2A19.2 19.2 0 0 0 86 303ZM314 59a19.2 19.2 0 1 0 19.2 19.2A19.2 19.2 0 0 0 314 59Zm0 0a19.2 19.2 0 1 0 19.2 19.2A19.2 19.2 0 0 0 314 59ZM86 303a19.2 19.2 0 1 0 19.2 19.2A19.2 19.2 0 0 0 86 303Zm297.9-170.4a19.9 19.9 0 0 0-4.8-.6H151.9a19 19 0 0 0-19 19.6c.3 10.3 9.2 18.4 19.5 18.4h227.1a18.3 18.3 0 0 0 4.3-.5 18.9 18.9 0 0 0 0-36.9ZM314 59a19.2 19.2 0 1 0 19.2 19.2A19.2 19.2 0 0 0 314 59ZM86 303a19.2 19.2 0 1 0 19.2 19.2A19.2 19.2 0 0 0 86 303Z"/><path class="cls-2" d="M247.6 230H20.5a18.1 18.1 0 0 0-3.6.3 18.9 18.9 0 0 0 0 37.2 18.8 18.8 0 0 0 4.1.4h227.1a19 19 0 0 0 19-19.6c-.3-10.3-9.2-18.3-19.5-18.3Zm136.3-97.4a19.9 19.9 0 0 0-4.8-.6H151.9a19 19 0 0 0-19 19.6c.3 10.3 9.2 18.4 19.5 18.4h227.1a18.3 18.3 0 0 0 4.3-.5 18.9 18.9 0 0 0 0-36.9ZM314 59a19.2 19.2 0 1 0 19.2 19.2A19.2 19.2 0 0 0 314 59ZM86 303a19.2 19.2 0 1 0 19.2 19.2A19.2 19.2 0 0 0 86 303Z"/><path class="cls-2" d="M16.9 267.6a18.8 18.8 0 0 0 4.1.4h227.1a19 19 0 0 0 19-19.6c-.3-10.3-9.2-18.4-19.5-18.4H20.5a18.1 18.1 0 0 0-3.6.3M86 303a19.2 19.2 0 1 0 19.2 19.2A19.2 19.2 0 0 0 86 303ZM314 59a19.2 19.2 0 1 0 19.2 19.2A19.2 19.2 0 0 0 314 59Zm0 0a19.2 19.2 0 1 0 19.2 19.2A19.2 19.2 0 0 0 314 59ZM86 303a19.2 19.2 0 1 0 19.2 19.2A19.2 19.2 0 0 0 86 303Zm297.9-170.4a19.9 19.9 0 0 0-4.8-.6H151.9a19 19 0 0 0-19 19.6c.3 10.3 9.2 18.4 19.5 18.4h227.1a18.3 18.3 0 0 0 4.3-.5 18.9 18.9 0 0 0 0-36.9Zm-50.7-54.4a19.2 19.2 0 1 0-38.4 0M86 303a19.2 19.2 0 1 0 19.2 19.2A19.2 19.2 0 0 0 86 303Z"/><path d="M364.6 230.4a19.2 19.2 0 0 0-24 12.7 146.2 146.2 0 0 1-122 102.9 149.9 149.9 0 0 1-37.2 0 145 145 0 0 1-25.1-5.4 19.2 19.2 0 0 0-11.4 36.7 185.1 185.1 0 0 0 232.5-123 19.2 19.2 0 0 0-12.8-23.9ZM266.2 32.1a19.2 19.2 0 0 0-11.3-9.4A185.1 185.1 0 0 0 22.4 145.6a19.2 19.2 0 0 0 18.3 24.8 19.2 19.2 0 0 0 18.4-13.6A146.3 146.3 0 0 1 181.4 54a150.1 150.1 0 0 1 36.8 0 147.1 147.1 0 0 1 25.3 5.4 19.2 19.2 0 0 0 14.6-1.3 19.2 19.2 0 0 0 9.4-11.3 19.2 19.2 0 0 0-1.3-14.7Z" style="fill:#41ae79"/></svg>