<svg width="400" height="400" xmlns="http://www.w3.org/2000/svg"><g fill-rule="evenodd"><path d="M0 200v200h400V0H0v200m73.739-46.451c.973.808 1.003 20.052.032 21.022-.54.541-2.159.629-11.6.629-8.502 0-10.974.113-10.986.5-.007.275-.096 7.79-.196 16.7-.575 51.29.296 45.002-6.173 44.596-2.539-.159-7.996-.282-12.127-.273l-7.51.017-.646-.986c-.521-.795-.595-1.584-.383-4.07.145-1.696.372-15.099.504-29.784l.239-26.7-4.746-.1c-2.611-.055-7.678-.1-11.261-.1-5.354 0-6.581-.107-6.894-.6-.437-.69-.541-20.918-.109-21.349.587-.588 71.137-.099 71.856.498m152.661.026c1.21.268 2.371.653 2.58.856.209.203.706.369 1.105.369s1.038.154 1.42.341c.382.188 1.415.676 2.295 1.086 4.512 2.099 8.682 5.678 10.805 9.273.982 1.663 1.12 1.641 2.533-.4 1.24-1.791 5.327-5.796 6.67-6.537 3.963-2.184 5.441-2.89 6.992-3.337.99-.285 2.25-.676 2.8-.869 1.172-.411 5.536-1.096 9.135-1.434 2.327-.219 5.363.124 10.065 1.137.99.213 2.25.481 2.8.594a12.7 12.7 0 0 1 1.8.528c3.639 1.465 4.598 1.907 6 2.764 12.793 7.822 17.717 26.993 10.778 41.965-.538 1.161-.978 2.204-.978 2.317 0 .199-.453.789-1.5 1.957-.275.307-.506.706-.513.886-.008.181-.773 1.143-1.7 2.138-13.875 14.885-43.452 12.945-53.473-3.507-.384-.632-.535-.562-1.507.698-6.836 8.865-14.432 12.222-27.507 12.156-20.133-.1-32.104-11.193-32.896-30.482-.315-7.658 2.161-17.027 5.39-20.403.278-.29.506-.653.506-.806 0-.152 1.052-1.383 2.337-2.734 4.043-4.248 7.964-6.311 16.863-8.872 1.854-.533 14.401-.303 17.2.316m-83.291.525c.265.326.347 5.261.237 14.2-.094 7.535-.048 13.7.102 13.7.149 0 1.1-.855 2.112-1.9 5.143-5.31 17.182-7.172 23.735-3.671.382.204.967.371 1.3.371.333 0 .605.16.605.357 0 .196.45.469 1 .607s1 .428 1 .644c0 .215.229.392.509.392 1.045 0 7.491 7.042 7.491 8.185 0 .12.45 1.152 1 2.292s1 2.363 1 2.718.186.831.414 1.059c1.015 1.015 1.954 9.525 1.736 15.746-.142 4.087-.366 5.408-1.57 9.254-.319 1.019-.58 2.144-.58 2.5 0 .355-.18.646-.4.646-.22 0-.4.326-.4.724 0 .397-.264 1.072-.587 1.5-.323.427-.593 1-.6 1.275-.067 2.596-9.981 12.501-12.514 12.501-.296 0-.71.162-.919.36-.209.198-1.794.648-3.523 1-8.274 1.684-15.896-.498-20.557-5.885l-1.3-1.503v2.381c0 1.31-.109 2.666-.243 3.014-.217.567-2.616.633-22.991.633H96.418l-.589-.9c-.324-.495-.709-1.656-.857-2.58l-.268-1.681-1.652 1.281c-.909.704-1.712 1.415-1.785 1.58-.074.165-.294.3-.489.3-.196 0-1.306.427-2.467.949-7.126 3.203-17.507 3.01-24.63-.457-8.152-3.968-11.547-13.493-8.16-22.892.357-.99.836-2.02 1.064-2.289a88.01 88.01 0 0 0 1.615-2.046c1.679-2.177 7.205-5.665 8.976-5.665.365 0 .835-.155 1.044-.345.864-.784 5.228-1.664 12.18-2.456 2.09-.238 4.43-.604 5.2-.814.77-.209 1.996-.382 2.725-.383 4.11-.007 6.707-2.835 5.831-6.349-1.182-4.737-12.029-4.882-14.3-.19-.409.845-.872 1.797-1.029 2.114-.313.633-18.886.87-20.727.265-1.894-.623-.273-7.58 2.577-11.063 1.876-2.291 4.824-4.779 5.663-4.779.216 0 .453-.135.527-.3.194-.437 2.699-1.7 3.371-1.7.315 0 .885-.163 1.267-.362 5.287-2.759 30.544-2.756 33.475.004.209.197.779.358 1.267.358.487 0 .946.135 1.02.3.073.165.967.707 1.987 1.205 1.019.498 2.605 1.758 3.525 2.8 4.166 4.724 4.12 4.421 4.403 28.695.23 19.806.552 24.6 1.652 24.6.505 0 .663-9.204.752-44 .061-23.73.23-35.969.502-36.3.31-.378 3.116-.5 11.512-.5 8.398 0 11.201.122 11.509.5m189.121 1.149c.477.771.179 82.058-.303 82.638-.595.718-22.534.748-22.977.032-.322-.521-.222-82.278.101-82.802.322-.521 22.854-.394 23.179.132M214.2 170.8c-.136.22-.581.4-.99.4-.877 0-4.01 3.419-4.01 4.376 0 .365-.16.835-.356 1.044-1.277 1.363-1.261 13.607.022 16.58 2.035 4.715 3.559 5.745 8.467 5.721 5.381-.027 7.787-2.649 8.829-9.623 1.382-9.251-.684-16.401-5.295-18.328-1.558-.651-6.295-.772-6.667-.17m58.088.143c-3.006.457-5.418 2.641-6.503 5.889-1.045 3.129-1.054 13.633-.013 16.716 3.025 8.968 15.458 7.562 17.23-1.948 2.505-13.441-1.93-21.992-10.714-20.657m105.512 5.775c1.32.216 3.39.696 4.6 1.065 1.21.369 2.56.779 3 .91.44.132 1.471.66 2.292 1.173.821.514 1.609.934 1.753.934.651 0 3.746 3.597 4.647 5.4 1.821 3.647 1.914 4.868 2.014 26.4.093 20.125.107 20.43.994 22.6 1.656 4.05 2.049 3.952-14.7 3.637-8.013-.15-8.184-.215-8.604-3.265l-.27-1.965-1.663 1.354c-6.91 5.626-18.329 6.84-28.433 3.024-4.098-1.548-9.83-8.224-9.83-11.45 0-.488-.18-.999-.4-1.135-.626-.387-.464-6.576.224-8.6 1.779-5.228 4.852-8.889 9.176-10.936 1.32-.624 2.693-1.287 3.051-1.472.358-.186 1.348-.463 2.2-.617.852-.154 1.729-.417 1.949-.584.22-.168 1.21-.405 2.2-.526.99-.122 3.51-.503 5.6-.846 2.09-.344 5.15-.793 6.8-.997 6.745-.836 8.807-2.057 8.794-5.211-.027-6.445-13.576-7.269-14.972-.91-.383 1.742-.388 1.743-12.022 1.612l-10-.113.047-1.8c.125-4.822 5.252-13.6 7.944-13.6.124 0 .896-.417 1.717-.926.821-.51 2.572-1.242 3.892-1.627 1.32-.386 2.813-.869 3.319-1.074.505-.205 1.675-.391 2.6-.413.924-.022 2.131-.189 2.681-.371 1.308-.434 16.307-.18 19.4.329m-229.4 16.195c-7.081 3.249-8.292 22.183-1.707 26.694 4.762 3.263 11.086 1.728 13.211-3.207 3.364-7.812 1.804-19.598-3.016-22.791-2.002-1.326-6.34-1.682-8.488-.696m-55.6 17.848c-.33.173-.964.499-1.41.724-.445.225-2.335.734-4.2 1.131-9.081 1.934-12.094 7.255-5.88 10.385 6.602 3.326 12.483-.706 12.982-8.901.235-3.858.095-4.17-1.492-3.339m278 2.024c-.677.381-2.51.897-6.6 1.859-7.85 1.846-9.794 7.501-3.506 10.196 6.379 2.735 11.951-1.169 12.4-8.687l.224-3.753-.959.024c-.528.012-1.229.175-1.559.361m-175.695 3.581c.382.202 1.415.661 2.295 1.02.88.359 1.87.789 2.2.955.33.166 2.22.816 4.2 1.443 1.98.627 3.96 1.274 4.4 1.438 1.431.531 8.734 2.14 14.4 3.173 8.187 1.492 31.79 2.018 39.6.881 8.734-1.271 15.794-2.697 20.2-4.08.55-.173 2.08-.616 3.4-.986 1.32-.369 2.76-.823 3.2-1.008 1.792-.756 6.451-2.365 7.18-2.479 1.137-.179 1.492 2.339 1.253 8.877-.109 2.97-.206 6.782-.215 8.472l-.018 3.072-2.929 1.409c-4.304 2.07-11.409 4.606-17.671 6.305a42.75 42.75 0 0 0-2.605.797c-1.696.613-9.051 1.927-17.602 3.145-3.614.515-19.162.519-22.686.006a573.24 573.24 0 0 1-5.507-.837c-2.627-.415-3.699-.609-8.2-1.481-4.027-.781-16.14-4.86-21-7.073l-3.437-1.563c-3.271-1.488-3.118-.847-2.866-11.952.242-10.72.232-10.682 2.408-9.534" fill="#fff"/><path d="M2.4 163.631c0 9.219.053 9.971.7 9.992.385.012 5.463.11 11.284.217 5.821.107 10.681.292 10.8.412.119.12.216 13.927.216 30.683V235.4l12.1.106 12.1.106.057-11.906c.031-6.548.166-20.366.3-30.706l.243-18.8 11.366-.2 11.366-.2.062-9.659.063-9.659-7.629-.235c-4.195-.13-20.093-.314-35.328-.41l-27.7-.174v9.968m208.8-9.419c-18.89 2.845-30.06 19.903-25.169 38.437.458 1.733.937 3.601 1.065 4.151.252 1.084 3.048 6.469 3.915 7.541.293.362 1.026 1.26 1.627 1.995 2.33 2.846 10.403 7.664 12.842 7.664.418 0 .931.163 1.14.361.209.199 1.19.454 2.18.568.99.113 3.255.385 5.033.605 3.683.454 13.065-.335 13.947-1.173.209-.198.722-.361 1.14-.361 1.398 0 6.181-2.314 9.088-4.397 1.615-1.157 5.192-4.676 5.192-5.108.001-.524 1.878-2.495 2.375-2.495.507 0 1.625.962 1.625 1.398 0 .35 1.979 2.937 3.2 4.183 2.373 2.422 9.181 6.419 10.934 6.419.34 0 .718.161.84.358.121.197.897.452 1.723.567.827.115 2.313.397 3.303.625 2.328.537 11.672.537 14 0 .99-.228 2.476-.51 3.303-.625.826-.115 1.602-.37 1.723-.567.122-.197.531-.358.909-.358s1.762-.567 3.076-1.26a628.158 628.158 0 0 1 3.509-1.839c8.432-4.36 15.154-23.427 11.668-33.101-.317-.88-.579-2.007-.582-2.505-.003-.498-.168-1.218-.365-1.6-.197-.382-.684-1.505-1.081-2.495-3.174-7.914-10.731-13.951-20.16-16.107-2.554-.584-16.415-.838-16.942-.311-.23.23-.871.418-1.425.418-3.656 0-13.702 5.773-16.033 9.212-.33.488-.825 1.121-1.1 1.408-.275.288-.5.709-.5.937 0 .354-1.221 1.243-1.706 1.243-.087 0-.76-.855-1.496-1.9-2.477-3.518-7.159-7.414-10.798-8.984-3.23-1.393-3.867-1.638-5.2-1.996-5.141-1.382-11.401-1.721-16.8-.908m-90.095 4.488c-.053 2.365-.11 6.55-.128 9.3-.018 2.75-.179 19.166-.358 36.48l-.326 31.48 10.153.12c11.469.136 10.739.365 10.748-3.38.006-2.612.039-2.7 1.006-2.7.55 0 1 .155 1 .344 0 .833 3.376 4.064 5.294 5.067 5.866 3.067 15.316 2.965 21.755-.236 2.379-1.182 7.751-6.124 7.751-7.13 0-.245.137-.445.305-.445.344 0 .623-.48 2.225-3.834 2.411-5.046 2.144-4.136 3.267-11.166 1.258-7.878.094-18.148-2.616-23.095-.21-.382-.381-.889-.381-1.128 0-.785-3.622-5.529-5.451-7.138-8.175-7.196-22.327-7.084-29.801.235-2.988 2.926-2.873 3.459-2.778-12.926l.082-14.148H121.2l-.095 4.3m189.137-2.767c-.238.384-.8 45.929-.825 66.867L309.4 237h21.521l.098-5.6c.053-3.08.226-21.277.383-40.438l.286-34.837-3.104-.263c-4.453-.376-18.099-.324-18.342.071m-87.774 14.686c5.322 3.442 7.253 15.96 3.667 23.781-4.192 9.144-16.164 7.734-18.674-2.2-.922-3.648-.299-16.527.841-17.378.164-.122.568-.744.898-1.383 2.036-3.937 9.188-5.458 13.268-2.82m55.732-.271c1.746.798 4.2 3.093 4.2 3.928 0 .288.18.524.4.524.22 0 .4.338.4.751s.27 1.398.6 2.187c.44 1.054.6 2.988.6 7.262 0 4.274-.16 6.208-.6 7.262-.33.789-.6 1.774-.6 2.187 0 .413-.18.751-.4.751-.22 0-.4.28-.4.623 0 2.457-5.675 5.316-9.623 4.849-6.592-.781-8.99-5.029-8.957-15.872.037-12.22 6.045-18.258 14.38-14.452m-200.4 5.858c-2.2.283-4.63.711-5.4.949-1.365.422-1.707.559-4.2 1.676-2.768 1.24-5.671 3.754-7.102 6.149-1.281 2.146-3.114 7.938-2.656 8.396.139.139 16.942.353 19.658.25.47-.017.7-.35.7-1.012 0-1.169 2.192-3.814 3.161-3.814.374 0 .898-.219 1.165-.486.308-.308 1.793-.485 4.074-.485 2.281 0 3.766.177 4.074.485.267.267.734.486 1.037.486 1.476 0 3.001 2.383 3.046 4.762.099 5.302-.644 5.625-18.957 8.236-10.452 1.49-16.439 4.585-19.129 9.888-4.917 9.691-.863 20.399 9.132 24.124 3.507 1.306 14.936 1.698 18.197.623 4.098-1.351 6.863-2.788 8.336-4.333 1.971-2.067 2.902-1.786 3.186.963.312 3.031-.112 2.924 11.61 2.931l10.332.006-.278-1.3c-.153-.715-.416-1.48-.583-1.7-.702-.921-.919-6.195-.979-23.8-.043-12.586-.214-19.182-.527-20.4-.255-.99-.582-2.295-.727-2.9-.145-.605-.41-1.1-.59-1.1-.179 0-.44-.36-.58-.799-.348-1.099-3.735-4.337-5.2-4.972-4.873-2.113-6.39-2.507-11.569-3.007-5.676-.548-14.189-.467-19.231.184m279.4 1.409c-.99.196-2.66.478-3.712.628-1.051.149-2.007.426-2.123.614-.117.189-.565.343-.997.343-2.9 0-9.924 5.354-11.366 8.664-.368.845-.924 2.127-1.235 2.85-.312.722-.567 2.117-.567 3.1v1.786h9.8c8.196 0 9.8-.093 9.8-.568 0-7.35 16.669-7.413 17.497-.065.486 4.308-2.47 6.308-10.697 7.237-4.797.541-11.034 1.505-11.918 1.841-.514.195-1.542.355-2.284.355-.743 0-1.462.18-1.598.4-.136.22-.547.4-.913.4-3.02 0-9.66 5.203-11.496 9.008-1.357 2.813-1.746 10.913-.635 13.231.306.639.846 1.762 1.2 2.496 1.358 2.816 5.057 6.106 7.844 6.976 11.497 3.588 21.15 2.325 28.66-3.75 1.206-.975 1.94-.743 1.94.614 0 .51.272 1.579.605 2.376l.606 1.449h10.594c10.586 0 11.537-.124 10.315-1.347-1.5-1.5-1.708-4.497-1.724-24.853-.017-21.678-.068-22.233-2.373-25.963-1.747-2.827-5.931-5.625-9.823-6.568-.88-.213-2.5-.616-3.6-.894-2.408-.609-19.146-.885-21.8-.36m-200.489 14.677c4.424 2.057 7.07 9.635 6.097 17.46-.443 3.56-1.519 7.448-2.063 7.448-.19 0-.345.24-.345.533 0 .668-2.762 3.467-3.421 3.467-.268 0-1.003.269-1.633.598-3.967 2.068-12.509-1.914-12.552-5.852-.003-.3-.265-1.266-.582-2.146-.395-1.095-.577-3.305-.577-7s.182-5.905.577-7c.317-.88.579-1.915.582-2.3.003-.385.186-.7.406-.7.22 0 .4-.235.4-.523 0-3.596 8.434-6.16 13.111-3.985M95.097 209.9c.572 1.23.27 7.94-.423 9.4-3.839 8.091-17.074 7.548-17.074-.7 0-3.797 2.257-5.578 9.137-7.208 2.124-.504 4.583-1.19 5.463-1.526 2.11-.804 2.51-.799 2.897.034m279.06 1.533c.981 2.557-.148 8.705-2.098 11.424-4.484 6.251-15.888 4.476-16.03-2.496-.08-3.933 2.355-5.702 10.371-7.538.77-.176 2.39-.679 3.6-1.118 2.768-1.005 3.849-1.075 4.157-.272m-180.68 6.067c-.094.165-.194 4.277-.224 9.137l-.053 8.837 1.3.634c2.02.986 5.487 2.459 10.1 4.292.44.175 1.43.586 2.2.913.77.327 2.12.823 3 1.102 3.691 1.17 5.245 1.688 6 2 .44.182 1.34.42 2 .53.66.11 2.46.496 4 .858 13.219 3.108 38.013 2.791 49.228-.628.676-.206 1.79-.375 2.477-.375.686 0 1.349-.164 1.473-.365.125-.201.944-.487 1.822-.635.878-.148 1.697-.434 1.822-.635.124-.201.744-.365 1.378-.365.634 0 1.264-.18 1.4-.4.136-.22.652-.4 1.147-.4s1.249-.264 1.677-.587c.427-.323 1.093-.593 1.481-.6.388-.007 1.018-.184 1.4-.394.382-.209 1.325-.637 2.095-.952.77-.314 2.44-1.043 3.711-1.619 1.271-.576 2.48-1.048 2.686-1.048.974 0 1.203-1.984 1.203-10.416 0-8.29-.046-8.851-.7-8.581a12.13 12.13 0 0 1-1.5.476c-.908.213-1.748.528-3.914 1.466-.832.36-1.856.655-2.276.655-.42 0-.874.18-1.01.4-.136.22-.68.4-1.21.4-.53 0-1.554.248-2.276.552-1.911.803-4.07 1.448-4.848 1.448-.372 0-.989.167-1.371.371-.382.205-1.775.584-3.095.843l-4.2.825c-15.85 3.113-39.038 2.67-55-1.05-1.54-.359-3.387-.748-4.104-.865-.717-.117-1.402-.373-1.523-.568-.121-.196-.615-.357-1.097-.358-.482-.002-1.392-.272-2.022-.6-.63-.329-1.564-.598-2.076-.598s-1.042-.18-1.178-.4c-.136-.22-.524-.4-.863-.4-.577 0-2.657-.803-4.232-1.634-.382-.201-1.012-.372-1.4-.379-.388-.007-1.054-.277-1.481-.6-.845-.638-1.678-.761-1.947-.287" fill="#194a99"/><path d="M2.454 153.381c.14.143 11.3.363 24.8.487 13.5.125 24.441.116 24.312-.021-.129-.137-11.289-.356-24.8-.487-13.511-.132-24.452-.122-24.312.021m208.546.298c-1.32.222-3.12.656-4 .964-1.126.395-1.244.494-.4.335 4.922-.926 9.589-1.398 12-1.213 1.54.118 3.88.3 5.2.404l2.4.19-2-.395c-2.963-.585-10.454-.746-13.2-.285m-153.1.217c1.375.078 3.625.078 5 0s.25-.142-2.5-.142-3.875.064-2.5.142m11.428.395 3.729.136-.063 9.687-.062 9.686-11.333.2c-9.607.17-11.361.291-11.516.8-.148.484-.081.504.347.1.397-.375 3.254-.5 11.401-.5 8.47 0 10.967-.116 11.306-.524.291-.351.406-3.675.349-10.1L73.4 154.2l-3.901-.023-3.901-.023 3.73.137m51.584.031c-.496.315-.896 39.027-.408 39.515.117.118.247-4.073.288-9.312.071-9.101.166-16.446.332-25.819l.076-4.293 10.9-.113 10.9-.113-10.8-.088c-5.94-.048-11.02.053-11.288.223m153.288.116c3.96.15 7.92.383 8.8.519 1.421.218 1.377.18-.4-.338-1.454-.424-3.857-.566-8.8-.519l-6.8.065 7.2.273m-47.4.344c.33.223.945.409 1.367.412 1.023.008.704-.221-.767-.55-.876-.196-1.038-.159-.6.138m37.6.018c-.955.306-.943.322.276.36.702.022 1.388-.14 1.524-.36.284-.46-.364-.46-1.8 0m-34 1.087c.77.349 2.03.905 2.8 1.234 1.987.851 5.818 3.504 7.707 5.337.885.858 1.678 1.49 1.764 1.404.724-.724-7.567-6.581-11.188-7.905-2.491-.91-3.008-.944-1.083-.07m55.4-.073c.66.303 1.411.558 1.668.568 3.871.149 12.57 7.755 15.198 13.287 1.216 2.561 1.706 2.92.701.513-2.512-6.011-8.757-11.62-15.81-14.198-2.434-.889-3.569-.999-1.757-.17m23.953-.139c-.333.539-.771 53.446-.44 53.125.114-.11.323-11.975.465-26.367.142-14.392.351-26.317.464-26.5.243-.395 13.889-.447 18.342-.071l3.104.263-.286 34.837c-.157 19.161-.33 37.358-.383 40.438l-.098 5.6H320.06c-5.973 0-10.86.112-10.86.249 0 .371 20.899.682 21.616.322.7-.352.891-11.861.951-57.371l.033-24.8-10.872-.106c-8.221-.081-10.946.012-11.175.381M200.2 157.121c-4.947 2.694-11.911 9.301-10.886 10.327.125.124.494-.285.821-.911 1.611-3.082 7.576-8.017 12.065-9.981.66-.288.93-.525.6-.524-.33 0-1.5.49-2.6 1.089m58.1-.294c-.825.436-1.5.888-1.5 1.006s.135.137.3.044c.47-.268 3.035-1.383 3.7-1.61.41-.139.347-.208-.2-.218-.44-.007-1.475.343-2.3.778m-4.7 2.752c-1.21.846-2.74 2.13-3.4 2.852l-1.2 1.313 1.4-1.104c.77-.608 2.455-1.9 3.744-2.872 2.875-2.168 2.481-2.305-.544-.189M2.186 167c.014 6.779.017 6.8.92 6.853.735.043.756.02.109-.126-.75-.17-.804-.568-.92-6.854l-.123-6.673.014 6.8m241.845-.9c.717 1.045 1.376 1.9 1.463 1.9.472 0 1.706-.885 1.706-1.223 0-.218-.45-.101-1 .26-.55.36-1.005.499-1.011.309-.006-.19-.562-.976-1.237-1.746l-1.226-1.4 1.305 1.9m-56.024 3.487c-1.01 1.979-2.939 8.622-2.703 9.306.096.279.388-.483.649-1.693.527-2.448 1.854-6.415 2.709-8.1.307-.605.468-1.1.356-1.1-.111 0-.566.714-1.011 1.587m26.572-.034c-2.349.406-5.785 3.142-5.776 4.601.001.245.348-.078.771-.72 4.357-6.61 14.212-4.529 16.887 3.566.385 1.165.677 1.638.7 1.133.24-5.3-6.188-9.684-12.582-8.58m55.624.676c-4.789 2.497-6.245 5.579-6.407 13.562l-.113 5.609.289-5c.159-2.75.598-6.042.975-7.317 2.391-8.082 12.681-9.73 17.075-2.735.681 1.084 1.166 1.562 1.17 1.152.005-.385-.172-.7-.392-.7-.22 0-.4-.236-.4-.524 0-3.125-8.535-5.956-12.197-4.047M8.1 173.894a29.38 29.38 0 0 0 3.8 0c1.045-.082.19-.15-1.9-.15s-2.945.068-1.9.15m15.3.463 1.6.243.211 9.4.211 9.4.089-9.067c.104-10.587.151-10.352-2.054-10.276l-1.657.057 1.6.243m281.442.843c-.017.55.229 1.72.546 2.6.739 2.051.765 1.006.04-1.6-.36-1.293-.567-1.647-.586-1m-222.242.023c-4.721.321-9.284 1.05-10.169 1.623-.486.315-.402.35.369.153 5.026-1.29 17.963-1.679 27-.814 1.519.146 1.326.063-.8-.342-3.571-.68-11.253-.971-16.4-.62m125.188 1.077c-.137.825-.425 1.967-.641 2.537-.471 1.246-.232 11.1.325 13.363 1.351 5.496 4.466 8.004 9.928 7.994 7.322-.013 11.08-6.438 10.386-17.758-.29-4.73-.586-3.816-.586 1.806 0 8.453-1.656 12.718-5.724 14.745-5.683 2.832-12.117-.334-13.572-6.678-1.03-4.489-.696-14.273.574-16.809.216-.431.198-.7-.046-.7-.218 0-.508.675-.644 1.5m-52.274-.49c-1.477.294-3.007.74-3.4.992-.653.419-.645.436.086.196 3.824-1.252 11.096-1.256 15.8-.008.892.236.919.214.247-.212-1.954-1.238-8.772-1.757-12.733-.968m-52.914.99c1.196.514 2.195.514 1.4 0-.33-.213-.96-.378-1.4-.366l-.8.022.8.344m259-.01c-1.802.188-.215.293 5.167.341 4.271.038 7.69-.007 7.597-.1-.324-.325-10.186-.511-12.764-.241m-78.118.81c.16.55.291 3.88.291 7.4 0 3.52-.131 6.85-.291 7.4-.226.777-.16.732.296-.2.435-.892.586-2.741.586-7.2s-.151-6.308-.586-7.2c-.456-.932-.522-.977-.296-.2m-215.014.615C62.608 180.876 58 187.353 58 192.926V194l9.3-.092 9.3-.092-9.1-.116c-7.48-.094-9.1-.215-9.1-.675 0-5.16 4.579-11.884 9.6-14.098 3.082-1.358 3.741-1.707 3.2-1.695-.33.008-1.559.45-2.732.983m37.132-.415c.55.314 1.27.572 1.6.572.347 0 .178-.242-.4-.572-.55-.314-1.27-.572-1.6-.572-.347 0-.178.242.4.572m43.321.458c-.923.538-2.526 1.863-3.563 2.945-2.009 2.096-2.526 2.19-2.612.473-.05-.974-.072-.989-.231-.154-.436 2.281.679 2.208 3.257-.213 1.353-1.27 3.172-2.706 4.044-3.191.871-.486 1.404-.873 1.184-.86-.22.012-1.155.462-2.079 1m21.82-.053c.957.547 1.872.995 2.032.995.16 0 1.446 1.009 2.859 2.242l2.568 2.242-2.255-2.182c-2.139-2.071-5.52-4.308-6.495-4.297-.248.002.333.452 1.291 1m182.859-.351-1.8.55 2-.248c1.1-.137 2.72-.385 3.6-.552l1.6-.304-1.8.002c-.99.002-2.61.25-3.6.552m22.8-.243c.99.167 2.7.494 3.8.727 3.923.829 4.477.892 2.8.32-2.711-.925-5.342-1.46-6.906-1.405l-1.494.054 1.8.304m-26.4 1.062c-3.769 1.315-8.248 4.45-10.079 7.054-.492.7.269.103 1.692-1.327 2.558-2.57 6.985-5.2 8.755-5.2.432 0 .896-.18 1.032-.4.26-.421-.389-.48-1.4-.127M50.134 181.6c0 1.65.071 2.325.157 1.5.087-.825.087-2.175 0-3-.086-.825-.157-.15-.157 1.5m61.339-.476c1.14 1.14 2.187 2.434 2.327 2.875.139.44.43.801.646.801.476 0-1.676-3.16-2.723-4-2.062-1.654-2.134-1.561-.25.324m275.551-.537c.427.323.956.588 1.176.588.22 0 .051-.265-.376-.588-.428-.323-.957-.587-1.177-.587-.22 0-.051.264.377.587M184.951 184.8c0 2.53.065 3.565.145 2.3a44.671 44.671 0 0 0 0-4.6c-.08-1.265-.145-.23-.145 2.3m121.14.2c-.001 3.468.046 3.753.356 2.14.21-1.089.211-2.746.002-4-.327-1.967-.356-1.816-.358 1.86m82.709-3.6c0 .124.637.784 1.415 1.467 1.701 1.494 3.154 3.906 3.779 6.273.252.958.555 1.644.673 1.526.371-.371-1.055-4.11-2.262-5.933-1.021-1.542-3.605-3.93-3.605-3.333m-210.057 3.7c.501.715.996 1.3 1.098 1.3.346 0-.591-1.46-1.304-2.033-.501-.402-.441-.189.206.733m-63.73.9c.141.55.4 1.63.576 2.4.274 1.204.325 1.253.365.346.025-.58-.234-1.66-.576-2.4-.402-.871-.531-.993-.365-.346m223.504 2.101c-.873 1.881-1.341 3.208-1.186 3.364.089.088.381-.43.649-1.152.267-.722.664-1.646.881-2.052.217-.406.322-.811.234-.899-.088-.089-.348.244-.578.739M86.3 187.882a5.661 5.661 0 0 0 1.8 0c.495-.095.09-.173-.9-.173s-1.395.078-.9.173m3.9.518c1.101.473 1.492.473 1.2 0-.136-.22-.642-.387-1.124-.372-.845.027-.847.041-.076.372m90.633-.095c-.018.278.147.818.367 1.2s.585 1.215.811 1.85c.226.636.503 1.064.615.952.112-.112-.238-1.172-.778-2.355-.54-1.184-.997-1.925-1.015-1.647m-100.792 1.909c-.682.778-1.241 1.629-1.241 1.893 0 .263.451-.185 1.001-.995.551-.811 1.316-1.657 1.7-1.881.385-.224.493-.412.24-.419-.252-.007-1.017.624-1.7 1.402m12.801-.746c.574.356 1.334 1.116 1.69 1.69.356.573.652.803.657.511.014-.689-2.169-2.872-2.858-2.858-.292.005-.062.301.511.657m270.558.099c-.717.162.33.275 2.6.28 2.312.006 3.33-.101 2.6-.271-1.519-.356-3.654-.36-5.2-.009m-247.2 19.58c0 10.552.135 19.32.3 19.486.366.366.327-36.457-.04-37.752-.143-.505-.26 7.714-.26 18.266M264.029 191c-.111 7.792 10.338 12.834 16.019 7.73.846-.759.978-.975.352-.574-2.908 1.862-3.431 2.028-6.4 2.036-4.974.013-7.87-2.407-9.262-7.741-.467-1.79-.697-2.261-.709-1.451m95.528.102c-1.479 1.1-2.757 2.921-2.757 3.93 0 .475-1.601.568-9.776.568h-9.776l-.166-1.403-.166-1.404.042 1.504.042 1.503 9.887.107 9.887.107.808-1.774c.745-1.636 1.518-2.462 3.475-3.716.409-.263.563-.481.343-.486-.22-.004-1.049.474-1.843 1.064M185.256 191c0 .44.155 1.16.344 1.6l.344.8v-.8c0-.44-.155-1.16-.344-1.6l-.344-.8v.8m120.044 1.539c-.697 2.609-.575 3.685.15 1.325.327-1.064.54-2.219.472-2.566-.067-.347-.347.212-.622 1.241M150 191.57c-.907.171-.132.266 2.2.271 2.745.005 3.22-.065 2-.294-1.832-.344-2.269-.342-4.2.023m244.922 19.83c-.051 16.884.038 20.641.511 21.8.513 1.253.544 1.274.299.2-.151-.66-.382-10.47-.512-21.8l-.238-20.6-.06 20.4m-238.327-18.876c7.379 4.423 7.991 23.56.891 27.889-.725.442-1.01.785-.653.786.768.001 3.567-2.718 3.567-3.466 0-.293.155-.533.345-.533 1.247 0 2.655-9.34 2.057-13.648-.81-5.838-4.067-11.636-6.476-11.528-.301.013-.186.227.269.5M95.293 194c0 .77.082 1.085.183.7.1-.385.1-1.015 0-1.4-.101-.385-.183-.07-.183.7m49.558.264c-.688.806-1.251 1.691-1.251 1.967s-.207.571-.46.656c-.253.084-.382.386-.288.67.103.307.404.054.74-.62.312-.625 1.198-1.812 1.969-2.637.771-.825 1.208-1.5.971-1.5s-.993.659-1.681 1.464m228.735-.69c.534.998.53 3.038-.008 4.152-.408.844-.401.848.2.098.901-1.126.716-5.024-.239-5.024-.207 0-.187.337.047.774m-190.569.626c1.5 9.035 1.663 12.873.78 18.4-1.087 6.807-1.053 6.502-.603 5.466 1.964-4.522 2.055-17.055.17-23.266-.3-.99-.457-1.26-.347-.6m3.031 0c.016.977 1.081 3.842 1.116 3 .013-.33-.235-1.32-.552-2.2-.317-.88-.571-1.24-.564-.8m96.062 1.37c-.478.897-.711 1.63-.517 1.63.194 0 .479-.405.634-.9.154-.495.459-1.014.676-1.154.217-.139.323-.468.236-.729-.087-.262-.55.257-1.029 1.153m-187.623 1.239c-1.145 1.834-4.288 2.742-13.087 3.781-5.839.689-11.298 1.711-12.2 2.284-.432.275-.321.311.4.132 1.102-.274 7.713-1.333 15.898-2.547 6.203-.92 10.889-3.005 9.615-4.28-.079-.078-.36.205-.626.63m25.707 19.391.006 20.4h21.2l.2-2.868c.263-3.775.372-3.814 3.021-1.076l2.267 2.344-1.844-2.143c-1.014-1.179-1.844-2.304-1.844-2.5 0-.196-.45-.357-1-.357-.967 0-1 .088-1.006 2.7-.009 3.744.715 3.515-10.69 3.38l-10.097-.119-.109-20.081-.109-20.08.005 20.4m184.023-19.4c-.17.55-1.013 2.408-1.873 4.13-.86 1.721-1.356 3.001-1.102 2.844.653-.404 3.647-6.909 3.448-7.492-.091-.265-.304-.032-.473.518m-278.889 2.8c0 1.43.073 2.015.161 1.3.089-.715.089-1.885 0-2.6-.088-.715-.161-.13-.161 1.3m161.872-1.368c0 .949 3.409 6.3 5.2 8.162 1.21 1.259 1.57 1.535.8.614-2.537-3.032-2.77-3.373-4.253-6.203-1.361-2.599-1.747-3.167-1.747-2.573m-45 1.368c-.15.473-.183.95-.073 1.06.11.11.323-.187.473-.66.15-.473.183-.95.073-1.06-.11-.11-.323.187-.473.66m229.754-.068c-1.668 1.279-1.193 1.175-12.147 2.668-2.636.359-4.886.756-5 .882-.214.238.588.158 8.469-.844 5.894-.749 7.632-1.219 9.018-2.439 1.294-1.139 1.049-1.333-.34-.267M141.759 206.8c0 3.19.062 4.495.138 2.9a73.8 73.8 0 0 0 0-5.8c-.076-1.595-.138-.29-.138 2.9m102.809-4.274c-.238.272-.763 1.03-1.166 1.684-.67 1.085-.624 1.066.515-.21.688-.77 1.258-1.535 1.267-1.7.022-.406-.106-.359-.616.226m1.634.276c.4.442.809.72.91.619.216-.216-.924-1.421-1.345-1.421-.16 0 .036.361.435.802M64.6 204.579c-4.42 2.155-8.597 6.541-8.591 9.021.001.33.453-.3 1.006-1.4 1.87-3.723 4.323-5.88 8.92-7.841 1.466-.626 2.395-1.139 2.065-1.142-.33-.002-1.86.611-3.4 1.362m287.322-1.168c-.116.117-1.001.367-1.967.557-1.397.274-1.51.35-.555.371.66.014 2.1-.224 3.2-.53 1.693-.47 1.811-.559.767-.582-.679-.015-1.329.068-1.445.184M248 205.2c.47.66.944 1.2 1.054 1.2.11 0-.184-.54-.654-1.2-.47-.66-.944-1.2-1.054-1.2-.11 0 .184.54.654 1.2m49.4 2.517c-2.035 2.088-2.621 2.85-1.609 2.093 1.519-1.136 3.408-3.083 4.532-4.671.893-1.263.383-.813-2.923 2.578m45.305-1.243c-1.263.665-3.063 1.926-4 2.801L337 210.867l2.4-1.773c1.32-.975 3.255-2.161 4.3-2.636 1.045-.474 1.9-.951 1.9-1.06 0-.36-.576-.146-2.895 1.076m-102.126.91c-.629.541-1.049 1.079-.933 1.196.117.116.728-.326 1.358-.984 1.387-1.448 1.151-1.566-.425-.212M49.6 221.611v14.012l-12.2-.112c-6.71-.061-12.2.024-12.2.189s5.58.3 12.4.3H50v-14.2c0-7.81-.09-14.2-.2-14.2-.11 0-.2 6.305-.2 14.011m145.603-12.558c.001.191.586.705 1.3 1.142 3.489 2.139 4.405 2.63 4.582 2.453.106-.106-.59-.591-1.546-1.078-.957-.487-2.324-1.331-3.039-1.875-.715-.545-1.299-.834-1.297-.642m42.593.651c-1.639 1.219-2.62 1.822-3.751 2.308-.526.226-.846.52-.712.655.292.291 4.451-2.168 5.357-3.167.854-.942.557-.875-.894.204m15.004.302c1.939 1.807 10.206 5.698 9.426 4.437-.15-.244-.552-.443-.892-.443-.939 0-5.678-2.332-7.934-3.905l-2-1.393 1.4 1.304M92 209.913c-1.088.392-1.531.706-1.121.793.374.08 1.037-.047 1.474-.281.437-.234 1.267-.425 1.844-.425.598 0 .944-.172.803-.4-.323-.523-.83-.47-3 .313m-6.271 1.689c-3.578.889-6.092 2.135-7.118 3.527-.654.889-.501.826.904-.371 1.603-1.365 3.796-2.175 8.085-2.985.77-.146 1.67-.419 2-.607.97-.552-.612-.374-3.871.436m206.352.079c-.725.448-1.249.884-1.165.969.211.21 2.613-1.011 2.9-1.475.356-.577-.284-.39-1.735.506m77.319.144c-1.54.507-3.7 1.193-4.8 1.524-1.1.331-1.756.613-1.458.626.697.032 4.782-1.016 7.835-2.009 1.437-.467 2.521-.628 2.742-.407.389.389.168 6.357-.298 8.041-.255.923-.238.939.223.208.57-.905.985-6.442.598-7.982-.316-1.262-1.009-1.262-4.842-.001m-33.416.598c-.479.673-.805 1.29-.723 1.371.082.082.553-.468 1.047-1.223 1.115-1.7.863-1.815-.324-.148m-193.972.777c0 .33.175.87.388 1.2.345.533.388.533.388 0 0-.33-.175-.87-.388-1.2-.345-.533-.388-.533-.388 0m60.988.403c2.23 1.025 3.998 1.441 3.636.855-.156-.252-.678-.459-1.16-.46-.482-.002-1.392-.272-2.022-.6-.63-.329-1.35-.583-1.6-.564-.25.018.266.364 1.146.769m27.8-.17c-.55.306-1.394.558-1.876.561-.482.003-1.004.212-1.16.464-.202.327.049.376.876.17 1.573-.392 4.508-1.762 3.76-1.755-.33.003-1.05.255-1.6.56m58 0c-.55.306-1.304.558-1.676.561-.372.003-.8.205-.95.449-.188.304.024.351.676.152 1.66-.508 3.55-1.346 3.55-1.575 0-.33-.487-.204-1.6.413m71.8.967c-.315.509.612.509 1.4 0 .488-.315.436-.389-.276-.394-.482-.003-.988.174-1.124.394m-305.127.553c-.15.392-.262 1.013-.248 1.38.017.442.156.341.412-.299.212-.531.324-1.152.248-1.38-.076-.227-.261-.093-.412.299m278.985.479c-.632 1.388-.991 7.525-.57 9.768.257 1.376.336.575.335-3.4-.001-3.533.166-5.499.52-6.134.287-.514.446-1.01.354-1.102-.092-.092-.379.299-.639.868m-124.858-.047c1.21.32 3.19.561 4.4.537l2.2-.044-2.4-.304c-1.32-.167-3.3-.408-4.4-.537l-2-.233 2.2.581m14-.185c-.33.213-1.68.424-3 .468l-2.4.08 2 .141c1.1.078 3.08-.12 4.4-.44 2.03-.493 2.184-.587 1-.61-.77-.015-1.67.148-2 .361m41.2.19c.99.329 2.25.58 2.8.558.715-.029.544-.146-.6-.413-2.991-.697-4.077-.768-2.2-.145m18-.19c-.33.213-1.14.415-1.8.448-.888.045-.976.105-.337.229.474.093 1.734-.099 2.8-.426 1.323-.407 1.62-.602.937-.617-.55-.012-1.27.153-1.6.366m26.501 1c.004.88.086 1.193.182.695.096-.497.092-1.217-.008-1.6-.1-.382-.179.025-.174.905m48.799-.367c-.715.564-1.294 1.237-1.287 1.496.008.259.323.105.7-.341.378-.447 1.132-1.122 1.676-1.5.544-.379.814-.686.6-.684-.214.003-.974.466-1.689 1.029m-215.282.113c-.024.728 2.665 4.363 3.595 4.861 1.333.713 1.21.412-.439-1.078-.895-.809-1.967-2.114-2.383-2.9-.416-.786-.764-1.183-.773-.883m129.16.509c1.291.214 3.082.214 4.4.001 2.014-.326 1.81-.36-2.178-.361-3.956-.001-4.18.035-2.222.36m-194.304 1.92c-.185 5.45 6.335 8.547 12.176 5.784 1.211-.573 2.135-1.108 2.054-1.189-.081-.081-.938.244-1.903.722-5.596 2.768-11.735.081-12.103-5.298l-.15-2.194-.074 2.175m115.526-1.388c0 .357.235.498.598.359.328-.127.498-.391.376-.588-.349-.565-.974-.418-.974.229m-98.739 1.545c-.297 1.009-.792 2.045-1.1 2.301-.309.256-.561.647-.561.87 0 .491 1.219-1.104 1.95-2.55.291-.577.466-1.365.389-1.752-.08-.405-.369.077-.678 1.131m100.963-.745c.427.323 1.136.592 1.576.598.64.008.571-.11-.346-.587-1.47-.767-2.239-.774-1.23-.011m98.433.227c-2.172.825-2.703 1.186-1.747 1.186.353 0 .754-.18.89-.4.136-.22.642-.406 1.124-.414.482-.008 1.326-.272 1.876-.586 1.386-.793.194-.673-2.143.214m62.41.253c-.367.366-.338 3.642.033 3.871.165.101.31-.788.321-1.977.012-1.188-.003-2.161-.033-2.161-.03 0-.175.12-.321.267M289.8 219.6c-.136.22-.642.421-1.124.446-.64.034-.694.095-.199.225.372.098 1.182-.095 1.8-.43.751-.407.899-.614.447-.625-.372-.009-.788.164-.924.384m-107.841 1.048c-.787 1.924-1.655 3.935-1.836 4.252-.093.165-.071.3.051.3s.598-.855 1.057-1.9c.459-1.045 1.012-2.233 1.229-2.639.218-.406.3-.835.183-.952-.117-.117-.425.306-.684.939m104.241.152c-.771.331-.769.345.076.372.482.015.988-.152 1.124-.372.292-.473-.099-.473-1.2 0m85.863 1.383c-.46.779-.764 1.417-.677 1.417.313 0 1.897-2.45 1.707-2.64-.107-.107-.57.444-1.03 1.223m-165.831-.59c.216.215 1.017.494 1.781.618l1.387.226-1.6-.613c-1.891-.723-2.089-.753-1.568-.231m77.368-.046c-.33.178-1.663.568-2.963.867-1.3.299-2.134.62-1.854.714.28.093 1.254-.05 2.163-.318 1.954-.576 4.224-1.553 3.654-1.572-.22-.008-.67.132-1 .309m-132.9.742c.715.089 1.885.089 2.6 0 .715-.088.13-.161-1.3-.161-1.43 0-2.015.073-1.3.161m59.09.495c.142.229.727.416 1.3.416 1.254 0 1.109-.192-.424-.56-.743-.178-1.045-.129-.876.144m-154.556.616c-.012.44.153 1.07.366 1.4.514.795.514-.204 0-1.4l-.344-.8-.022.8m301.598-.336c-.121 1.776 4.556 3.887 8.056 3.637 2.25-.161 8.019-2.669 6.204-2.696-.169-.003-1.069.489-2 1.093-3.408 2.212-10.827.982-12.025-1.993-.136-.338-.214-.351-.235-.041M212.8 223.6c.33.213.96.378 1.4.366l.8-.022-.8-.344c-1.196-.514-2.195-.514-1.4 0m63.4 0c-.714.307-.685.347.276.372.592.015 1.188-.152 1.324-.372.295-.478-.489-.478-1.6 0m-59.4.835c12.424 3.736 44.031 3.723 57.2-.023l1.4-.398-1.4.176c-.77.098-3.414.539-5.875.981-12.383 2.224-32.546 2.222-45.325-.005-2.53-.441-5.23-.88-6-.977l-1.4-.175 1.4.421m-160.779 1.416c-.065 1.404 3.731 7.331 4.318 6.744.143-.143-.017-.471-.356-.728-.993-.753-2.613-3.141-3.303-4.867-.351-.88-.648-1.397-.659-1.149m118.499 6.019c-1.584 1.615-2.574 2.758-2.2 2.54 1.308-.763 6.134-5.66 5.463-5.544-.211.037-1.679 1.388-3.263 3.004m160.76-2.37c.94 1.931 1.298 2.5 1.571 2.5.177 0-.05-.63-.504-1.4-.698-1.183-1.521-2.032-1.067-1.1m-241.818 2.031c-.969 1.072-.808 1.436.213.485 1.196-1.114 1.84-1.024 2.038.284.156 1.024.171 1.01.227-.2.071-1.532-1.318-1.851-2.478-.569m23.357.145c-.01.592.161 1.188.381 1.324.22.136.414.642.432 1.124.017.482.118.663.224.403.106-.26-.08-1.25-.413-2.2-.506-1.445-.608-1.551-.624-.651M338 233.354c1.198 1.354 4.371 3.609 4.665 3.314.115-.115-.358-.502-1.052-.861-.693-.359-2.015-1.312-2.937-2.118-1.184-1.036-1.382-1.134-.676-.335m33.589.456c-.948.791-2.25 1.711-2.893 2.044-.644.333-1.076.699-.961.814.199.199 2.515-1.312 4.665-3.045 1.234-.994 1.499-1.013 1.711-.123.137.57.16.557.128-.069-.064-1.255-.825-1.147-2.65.379m-309.901.009c.598.626 1.194 1.033 1.323.903.129-.129-.36-.641-1.088-1.138l-1.323-.904 1.088 1.139m29.409-.253c-1.372.879-1.737 1.235-1.264 1.232.202-.001.907-.445 1.567-.986 1.399-1.146 1.267-1.253-.303-.246m4.949 1.085c-.091 1.669.598 1.785 11.701 1.966 10.531.172 11.861.031 10.698-1.132-.327-.327-.445-.317-.445.035 0 .541-20.229.708-21.054.174-.249-.162-.543-.654-.653-1.094-.19-.761-.202-.758-.247.051M65.4 235.809c1.1.518 2.36.944 2.8.946.44.002-.37-.434-1.8-.969-3.24-1.212-3.604-1.204-1 .023m22.438-.709c-.162.165-1.137.601-2.166.969-1.537.549-1.679.675-.796.7.592.017 1.188-.149 1.324-.369.136-.22.562-.4.947-.4.939 0 2.534-1.169 1.62-1.187-.349-.007-.766.122-.929.287m59.546.075c.284.459 2.574 1.627 3.177 1.62.242-.002-.344-.452-1.302-1-1.893-1.082-2.229-1.193-1.875-.62m21.767.486c-3.553 1.855-10.389 2.409-16.751 1.358-1.302-.215-1.33-.199-.4.233 3.303 1.534 14.423.687 17.897-1.362 2.195-1.295 1.629-1.469-.746-.229m205.282-.18c-.018.265.176.94.431 1.5l.464 1.019h10.936c10.161 0 10.934-.05 10.904-.7-.018-.418-.112-.499-.233-.2-.154.382-2.689.5-10.767.5h-10.566l-.568-1.3c-.313-.715-.583-1.083-.601-.819M193.6 236.2c.274.33.78.6 1.125.6.503 0 .473-.117-.149-.587-1.015-.769-1.61-.776-.976-.013m102.8-.205c0 .354-1.114.932-3.955 2.051-.526.207-.871.461-.768.564.359.359 5.123-1.944 5.123-2.475 0-.294-.09-.535-.2-.535-.11 0-.2.178-.2.395m-225.923 1.306c1.733.397 10.132.384 11.916-.017.841-.19-1.505-.308-5.923-.3-4.242.009-6.76.142-5.993.317m125.343-.17c.639.557 6.585 2.998 6.793 2.789.108-.108-1.021-.702-2.508-1.32-1.488-.619-2.876-1.277-3.085-1.462-.209-.186-.65-.338-.98-.338-.356 0-.446.135-.22.331m147.78.028c.867.619 4.759 1.709 5.538 1.55.364-.074-.418-.425-1.738-.78-1.32-.356-2.85-.771-3.4-.922-.773-.214-.864-.179-.4.152m22.263-.089c-.148.149-1.483.583-2.966.965-1.484.382-2.247.708-1.697.725 1.093.034 4.394-.883 5.503-1.53.592-.345.602-.408.064-.418-.349-.007-.755.11-.904.258m-76.263 2.154c-.33.207-1.12.561-1.755.787-.636.226-1.064.503-.952.615.112.112 1.172-.238 2.355-.778 1.184-.54 1.882-.987 1.552-.992-.33-.005-.87.161-1.2.368m62.917-.127c1.494.077 3.834.077 5.2-.001 1.365-.078.143-.141-2.717-.141-2.86.001-3.978.065-2.483.142M206 241.4c.55.314 1.27.577 1.6.583.33.007.084-.257-.546-.585-1.46-.762-2.387-.76-1.054.002m78.224.013c-.983.743-.677.744 1.03.003.932-.405 1.1-.586.546-.588-.44-.001-1.149.262-1.576.585m-72.278 2.003c.74.321 1.55.577 1.8.568.25-.008-.152-.278-.892-.6-.74-.321-1.55-.577-1.8-.568-.25.008.152.278.892.6m66.654-.216c-.136.22-.642.421-1.124.446-.543.029-.64.11-.255.214.341.093 1.241-.101 2-.43 1.086-.472 1.193-.602.503-.614-.482-.009-.988.164-1.124.384m-60.2 2.167c.77.314 1.94.565 2.6.557 1.183-.016 1.18-.021-.2-.348-3.289-.781-3.935-.837-2.4-.209m52.8-.209c-.33.184-1.468.446-2.529.584-1.061.138-2.231.445-2.6.682-.55.353-.49.387.329.19.55-.133 2.026-.418 3.28-.634 1.254-.215 2.694-.557 3.2-.76l.92-.369-1-.013c-.55-.008-1.27.137-1.6.32M223 246.4c1.196.514 2.195.514 1.4 0-.33-.213-.96-.378-1.4-.366l-.8.022.8.344m4.6.818c5.937 1.632 26.673 1.719 33.8.142 2.01-.445 2.108-.501.6-.345-6.779.703-11.071.933-17.2.92-6.21-.014-8.921-.162-16.6-.908-1.82-.176-1.874-.159-.6.191" fill="#5479b3"/><path d="M29.9 153.496c1.375.078 3.625.078 5 0s.25-.142-2.5-.142-3.875.064-2.5.142m14 0c1.375.078 3.625.078 5 0s.25-.142-2.5-.142-3.875.064-2.5.142m13.611-.003c.94.085 2.38.084 3.2-.002.819-.086.049-.155-1.711-.154-1.76.002-2.43.072-1.489.156M222 153.6c.55.176 1.36.32 1.8.32.633 0 .592-.066-.2-.32-.55-.176-1.36-.32-1.8-.32-.633 0-.592.066.2.32m-169.5.287a8.899 8.899 0 0 0 2.2 0c.605-.092.11-.167-1.1-.167-1.21 0-1.705.075-1.1.167m16.7.091 4.2.222.229 2.8.23 2.8.07-2.857c.085-3.443.198-3.371-5.062-3.265l-3.867.079 4.2.221m202.5-.082c1.265.079 3.335.079 4.6 0 1.265-.08.23-.145-2.3-.145s-3.565.065-2.3.145m-151.546.681c-.122.317-.137.902-.034 1.3.126.487.202.375.234-.344.025-.586.271-1.157.546-1.268.392-.158.389-.209-.013-.233-.281-.018-.612.227-.733.545m22.741 13.899c-.102 15.38-.096 15.426 1.942 13.208l1.363-1.484-1.495 1.373-1.495 1.374-.11-14.374-.11-14.373-.095 14.276M2.131 157.4c.002 1.54.074 2.121.161 1.291.087-.83.085-2.09-.003-2.8-.089-.71-.16-.031-.158 1.509m308.974-2.317c.497.096 1.217.092 1.6-.008.382-.1-.025-.179-.905-.174-.88.004-1.193.086-.695.182m7.586.006c.71.088 1.97.09 2.8.003.83-.087.249-.159-1.291-.161-1.54-.002-2.219.069-1.509.158m-9.419 5.411c.073 5.33.222 4.69.421-1.801.059-1.925-.028-3.5-.193-3.5-.165.001-.268 2.386-.228 5.301m-189.093 9.1c0 7.15.054 10.075.12 6.5.067-3.575.067-9.425 0-13-.066-3.575-.12-.65-.12 6.5M235.8 158.056c1.1.682 2.346 1.533 2.769 1.892.453.384.64.433.456.119-.342-.582-4.39-3.272-4.906-3.259-.175.004.581.565 1.681 1.248m-39.2.979-1.2 1.031 1.3-.86c.715-.473 1.3-.938 1.3-1.033 0-.3-.169-.195-1.4.862m95.8-.885c0 .094.641.549 1.424 1.011.783.462 1.312.659 1.175.437-.268-.434-2.599-1.732-2.599-1.448M253 159.6c-.66.437-1.02.792-.8.788.401-.006 2.576-1.565 2.2-1.576-.11-.004-.74.351-1.4.788m79.128 1.6c0 1.43.073 2.015.161 1.3.089-.715.089-1.885 0-2.6-.088-.715-.161-.13-.161 1.3M73.32 162c0 1.21.075 1.705.167 1.1a8.899 8.899 0 0 0 0-2.2c-.092-.605-.167-.11-.167 1.1m120.455-.7-1.175 1.3 1.3-1.175c.715-.646 1.3-1.231 1.3-1.3 0-.309-.33-.037-1.425 1.175M241 162c.859.88 1.652 1.6 1.762 1.6.11 0-.503-.72-1.362-1.6-.859-.88-1.652-1.6-1.762-1.6-.11 0 .503.72 1.362 1.6m9.175.1L249 163.4l1.3-1.175c.715-.646 1.3-1.231 1.3-1.3 0-.309-.33-.037-1.425 1.175m-176.438 5.3c.002 1.76.072 2.43.156 1.489.085-.94.084-2.38-.002-3.2-.086-.819-.155-.049-.154 1.711m142.763 2.476c.385.1 1.015.1 1.4 0 .385-.101.07-.183-.7-.183s-1.085.082-.7.183m58.733.268c.092.079.707.264 1.367.412.876.196 1.038.159.6-.138-.54-.365-2.368-.62-1.967-.274m3.578 1.318c.544.365 1.359.95 1.812 1.3.453.351.198.053-.566-.662-.765-.715-1.58-1.3-1.813-1.3-.232 0 .023.298.567.662m-205.413 1.831c-.398.907-.398.907-11.365 1.014-12.267.119-12.064.071-11.97 2.842l.063 1.851.237-2 .237-2 11.044-.106c11.547-.111 12.875-.336 12.295-2.078-.079-.236-.322-.021-.541.477m-71.051.814c.169.169 4.705.259 10.08.2l9.773-.108-10.081-.2c-5.544-.109-9.942-.061-9.772.108m206.118 1.31c-.67 1.471-.542 1.785.182.448.339-.625.541-1.211.449-1.302-.091-.092-.375.293-.631.854M82.7 175.089c.715.089 1.885.089 2.6 0 .715-.088.13-.161-1.3-.161-1.43 0-2.015.073-1.3.161m7.8.002c.825.087 2.175.087 3 0 .825-.086.15-.157-1.5-.157s-2.325.071-1.5.157m214.768.109c.02 1.039.65 2.746.664 1.8.006-.44-.143-1.16-.332-1.6-.211-.49-.339-.568-.332-.2m-228.868.42c-.674.229-.349.264 1 .108 1.1-.127 2.075-.297 2.167-.379.315-.281-2.168-.069-3.167.271m20.433-.271c.092.082 1.067.252 2.167.379 1.349.156 1.674.121 1-.108-.999-.34-3.482-.552-3.167-.271m58.167.261c-.534.237-.202.276 1 .117.99-.131 1.875-.303 1.967-.383.347-.301-2.203-.072-2.967.266m6.233-.266c.092.079 1.157.245 2.367.368 1.369.139 1.898.096 1.4-.116-.767-.326-4.111-.549-3.767-.252M151.6 176.6c-1.306.747-.849.755.854.016.74-.322 1.076-.585.746-.586-.33-.001-1.05.256-1.6.57m16.346.016c.74.321 1.55.577 1.8.568.25-.008-.152-.278-.892-.6-.74-.321-1.55-.577-1.8-.568-.25.008.152.278.892.6m193.554.066a5.661 5.661 0 0 0 1.8 0c.495-.095.09-.173-.9-.173s-1.395.078-.9.173m8.8 0a5.661 5.661 0 0 0 1.8 0c.495-.095.09-.173-.9-.173s-1.395.078-.9.173m-13.195.401c.497.096 1.217.092 1.6-.008.382-.1-.025-.179-.905-.174-.88.004-1.193.086-.695.182m18 0c.497.096 1.217.092 1.6-.008.382-.1-.025-.179-.905-.174-.88.004-1.193.086-.695.182m-226.005.746c-1.495.811-1.404 1.149.1.371.66-.341 1.2-.706 1.2-.81 0-.258-.043-.243-1.3.439M379 177.6c.44.189 1.07.344 1.4.344.378 0 .304-.127-.2-.344-.44-.189-1.07-.344-1.4-.344-.378 0-.304.127.2.344m-152.318 1.8c.127 1.1.295 2.075.374 2.167.299.347.072-2.603-.259-3.367-.223-.515-.264-.087-.115 1.2m79.419.4c.004.88.086 1.193.182.695.096-.497.092-1.217-.008-1.6-.1-.382-.179.025-.174.905m-255.573 1.8c0 1.43.073 2.015.161 1.3.089-.715.089-1.885 0-2.6-.088-.715-.161-.13-.161 1.3m13.559-.9c-.957.935-.973.981-.106.306 1.707-1.33 1.788-1.406 1.505-1.406-.15 0-.78.495-1.399 1.1m112.113.9c.859.88 1.652 1.6 1.762 1.6.11 0-.503-.72-1.362-1.6-.859-.88-1.652-1.6-1.762-1.6-.11 0 .503.72 1.362 1.6m87.894 3.6c0 2.53.125 5.14.277 5.8.152.66.209-1.14.128-4-.191-6.723-.406-7.678-.405-1.8m42.399-2.4c0 .77.082 1.085.183.7.1-.385.1-1.015 0-1.4-.101-.385-.183-.07-.183.7m-121.959 2c0 1.65.071 2.325.157 1.5.087-.825.087-2.175 0-3-.086-.825-.157-.15-.157 1.5m156.847-1.1-1.581 1.7 1.7-1.581c1.581-1.471 1.884-1.819 1.581-1.819-.065 0-.83.765-1.7 1.7m-221.227 7.5c0 2.75.064 3.875.142 2.5a53.448 53.448 0 0 0 0-5c-.078-1.375-.142-.25-.142 2.5m-69.975 9.2c0 7.15.054 10.075.12 6.5.067-3.575.067-9.425 0-13-.066-3.575-.12-.65-.12 6.5m176.714-11.6c0 .77.082 1.085.183.7.1-.385.1-1.015 0-1.4-.101-.385-.183-.07-.183.7M83 188.641c-.88.321-1.96.977-2.4 1.457l-.8.872.801-.657c1.325-1.088 3.04-1.617 6.199-1.912l3-.28-2.6-.032c-1.43-.018-3.32.23-4.2.552m124.228.192c.016.532.191 1.327.391 1.767.252.558.288.315.119-.8-.283-1.857-.551-2.364-.51-.967m98.873 1.367c.004.88.086 1.193.182.695.096-.497.092-1.217-.008-1.6-.1-.382-.179.025-.174.905m64.732.7c.092.055.707.55 1.367 1.1l1.2 1-.97-1.1c-.533-.605-1.148-1.1-1.366-1.1-.219 0-.322.045-.231.1m-345.902 3.7c.002 1.54.074 2.121.161 1.291.087-.83.085-2.09-.003-2.8-.089-.71-.16-.031-.158 1.509m69.869-.654c0 1.343-.26 2.304-.839 3.1l-.839 1.154 1.039-1.122c.941-1.016 1.612-5.078.839-5.078-.11 0-.2.876-.2 1.946m90.468-1.546c.02 1.039.65 2.746.664 1.8.006-.44-.143-1.16-.332-1.6-.211-.49-.339-.568-.332-.2m146.46 2c0 1.43.073 2.015.161 1.3.089-.715.089-1.885 0-2.6-.088-.715-.161-.13-.161 1.3m-186.347.1-1.581 1.7 1.7-1.581c1.581-1.471 1.884-1.819 1.581-1.819-.065 0-.83.765-1.7 1.7m160.048-.671c-.148.586-.191 1.143-.097 1.237.095.094.292-.308.439-.895.148-.586.191-1.143.097-1.237-.095-.094-.292.308-.439.895m-147.829-.504c0 .069.585.654 1.3 1.3l1.3 1.175-1.175-1.3c-1.095-1.212-1.425-1.484-1.425-1.175m215.896 1.721c.116 1.075.276 2.029.357 2.121.319.362.112-3.002-.216-3.521-.215-.339-.269.205-.141 1.4m21.882 10.154c0 6.71.054 9.455.121 6.1.067-3.355.067-8.845 0-12.2-.067-3.355-.121-.61-.121 6.1m-211.934-10.6c.329 1.471.558 1.79.55.767-.003-.422-.189-1.037-.412-1.367-.297-.438-.334-.276-.138.6m41.481.632c-.475.868-.696 1.474-.491 1.347.443-.274 1.684-2.595 1.49-2.788-.074-.075-.524.574-.999 1.441M336.4 194.8c0 .66.149 1.2.331 1.2.182 0 .251-.54.154-1.2-.097-.66-.245-1.2-.33-1.2-.085 0-.155.54-.155 1.2m-273.277-.501c2.708.069 7.028.069 9.6 0 2.572-.07.357-.127-4.923-.126-5.28 0-7.385.057-4.677.126m53.821 3.301c0 2.09.068 2.945.15 1.9a29.38 29.38 0 0 0 0-3.8c-.082-1.045-.15-.19-.15 1.9m93.423-.255c.533.656 2.033 1.648 2.033 1.344 0-.076-.585-.567-1.3-1.09-.804-.589-1.084-.686-.733-.254m-26.299.655c.02 1.039.65 2.746.664 1.8.006-.44-.143-1.16-.332-1.6-.211-.49-.339-.568-.332-.2m94.132 1.031c-.88.526-1.42.958-1.2.961.481.006 3-1.494 3-1.786 0-.262.083-.299-1.8.825m-58.2.23c-.55.226-2.26.329-3.8.228-1.599-.105-2.457-.047-2 .135 1.284.513 5.095.388 6.4-.21 1.389-.636.888-.764-.6-.153m150.4.793c-1.039.57-1.142.702-.4.514.55-.14 1.264-.505 1.586-.811.739-.703.554-.657-1.186.297m-287.695.229c.497.096 1.217.092 1.6-.008.382-.1-.025-.179-.905-.174-.88.004-1.193.086-.695.182m59.544.332a3.854 3.854 0 0 0-.215 1.318c.019.367.193.136.387-.513.377-1.262.244-1.887-.172-.805m130.651-.328a8.899 8.899 0 0 0 2.2 0c.605-.092.11-.167-1.1-.167-1.21 0-1.705.075-1.1.167m-196.4.789c.385.1 1.015.1 1.4 0 .385-.101.07-.183-.7-.183s-1.085.082-.7.183m290.4 0c.385.1 1.015.1 1.4 0 .385-.101.07-.183-.7-.183s-1.085.082-.7.183m-294.3.524c-1.019.438.032.438 1.4 0 .804-.257.843-.323.2-.332-.44-.006-1.16.143-1.6.332m289.8 0c-1.344.431.108.431 1.8 0 1.078-.274 1.098-.306.2-.313-.55-.004-1.45.137-2 .313M24.983 218.8c0 9.35.053 13.175.117 8.5.064-4.675.064-12.325 0-17-.064-4.675-.117-.85-.117 8.5m137.17-12.2c0 2.64.065 3.668.144 2.284.078-1.383.077-3.543-.002-4.8-.079-1.256-.143-.124-.142 2.516m84.23-3.1c.743.935 1.423 1.7 1.511 1.7.283 0-1.431-2.251-2.159-2.836-.387-.31-.095.201.648 1.136m85.31-.3c0 .77.082 1.085.183.7.1-.385.1-1.015 0-1.4-.101-.385-.183-.07-.183.7m26.212-.917c.497.096 1.217.092 1.6-.008.382-.1-.025-.179-.905-.174-.88.004-1.193.086-.695.182M184.946 206.2c.001 2.2.068 3.049.149 1.887.081-1.163.081-2.963-.002-4-.082-1.038-.148-.087-.147 2.113m115.854-1.8c-.47.66-.764 1.2-.654 1.2.11 0 .584-.54 1.054-1.2.47-.66.764-1.2.654-1.2-.11 0-.584.54-1.054 1.2m-57.386.235c-.373.569-.609 1.103-.525 1.187.084.085.469-.381.855-1.034.862-1.46.604-1.579-.33-.153m88.277 11.565c-.053 6.38-.176 13.13-.274 15l-.177 3.4.386-3.378c.212-1.858.335-8.608.274-15l-.113-11.622-.096 11.6m-33.116-8.9-1.175 1.3 1.3-1.175c1.212-1.095 1.484-1.425 1.175-1.425-.069 0-.654.585-1.3 1.3M192 206.525c0 .069.585.654 1.3 1.3l1.3 1.175-1.175-1.3c-1.095-1.212-1.425-1.484-1.425-1.175m47.6 2.324c-1.394 1.222-1.395 1.223-.112.37.708-.471 1.394-1.028 1.524-1.238.385-.624.065-.427-1.412.868m69.334 1.551c0 1.65.071 2.325.157 1.5.087-.825.087-2.175 0-3-.086-.825-.157-.15-.157 1.5m-57.447-1.191c.708.742 1.355 1.269 1.438 1.17.083-.098-.496-.706-1.287-1.35l-1.438-1.171 1.287 1.351M94.942 213.4c-.001 1.98.066 2.84.15 1.912.084-.928.085-2.548.003-3.6-.083-1.052-.152-.292-.153 1.688m199.258-2.365-1.2 1.031 1.3-.86c.715-.473 1.3-.938 1.3-1.033 0-.3-.169-.195-1.4.862m-57.8.201c-.664.543-.731.679-.2.404 1.305-.674 2.028-1.228 1.6-1.225-.22.002-.85.371-1.4.821m136.4.331c0 .238.172.433.383.433.211 0 .449 1.395.529 3.1l.145 3.1-.029-3.368c-.019-2.318-.184-3.419-.528-3.533-.275-.091-.5.029-.5.268m-288.2.833c-.504.217-.578.344-.2.344.33 0 .96-.155 1.4-.344.504-.217.578-.344.2-.344-.33 0-.96.155-1.4.344m76.85.85c-.333 1.667-.01 1.99.35.35.152-.691.193-1.341.091-1.442-.102-.102-.3.389-.441 1.092m22.779-.221c-.148.586-.191 1.143-.097 1.237.095.094.292-.308.439-.895.148-.586.191-1.143.097-1.237-.095-.094-.292.308-.439.895m-67.32.971c0 .99.078 1.395.173.9a5.661 5.661 0 0 0 0-1.8c-.095-.495-.173-.09-.173.9m84.691-.6c.55.314 1.18.572 1.4.572.22 0-.05-.258-.6-.572-.55-.314-1.18-.572-1.4-.572-.22 0 .05.258.6.572m30.4 0c-.55.314-.82.572-.6.572.22 0 .85-.258 1.4-.572.55-.314.82-.572.6-.572-.22 0-.85.258-1.4.572m127 2.2c-1.564 1.036-1.008 1.037.69.001.721-.439 1.13-.797.91-.797-.22.001-.94.359-1.6.796m-150 0c.44.189 1.16.338 1.6.332.643-.009.604-.075-.2-.332-1.368-.438-2.419-.438-1.4 0m15 0c-.804.257-.843.323-.2.332.44.006 1.16-.143 1.6-.332 1.019-.438-.032-.438-1.4 0m40.2 0c.44.189 1.07.344 1.4.344.378 0 .304-.127-.2-.344-.44-.189-1.07-.344-1.4-.344-.378 0-.304.127.2.344m18.8 0c-.504.217-.578.344-.2.344.33 0 .96-.155 1.4-.344.504-.217.578-.344.2-.344-.33 0-.96.155-1.4.344m-228.091 2c0 .99.078 1.395.173.9a5.661 5.661 0 0 0 0-1.8c-.095-.495-.173-.09-.173.9m160.604-1.305c1.163.081 2.963.081 4-.002 1.038-.082.087-.148-2.113-.147-2.2.001-3.049.068-1.887.149m52.392-.012c.497.096 1.217.092 1.6-.008.382-.1-.025-.179-.905-.174-.88.004-1.193.086-.695.182m11.2 0c.497.096 1.217.092 1.6-.008.382-.1-.025-.179-.905-.174-.88.004-1.193.086-.695.182m-8.205.393c.385.1 1.015.1 1.4 0 .385-.101.07-.183-.7-.183s-1.085.082-.7.183m5.2 0c.385.1 1.015.1 1.4 0 .385-.101.07-.183-.7-.183s-1.085.082-.7.183M50.157 222c0 2.97.063 4.185.14 2.7a63.146 63.146 0 0 0 0-5.4c-.077-1.485-.14-.27-.14 2.7m246.136-4.911c.36.256.524 2.913.611 9.93l.119 9.581-.012-9.767c-.009-8.336-.099-9.791-.611-9.93-.436-.119-.466-.069-.107.186M192.92 219.2c0 1.21.075 1.705.167 1.1a8.899 8.899 0 0 0 0-2.2c-.092-.605-.167-.11-.167 1.1m140.536-.716c-.135.504-.22 1.996-.19 3.316.053 2.342.061 2.323.334-.8.295-3.379.259-4.018-.144-2.516m61.839 5.916c-.021 3.85.084 7.31.233 7.688.15.379.223-2.141.162-5.6-.16-9.146-.35-10.151-.395-2.088m-86.322 3c0 5.28.057 7.385.126 4.677a222.61 222.61 0 0 0 0-9.6c-.07-2.572-.127-.357-.126 4.923M158 219.66c-.77.675-1.038 1.045-.596.821.731-.37 2.543-2.103 2.158-2.065-.089.009-.792.569-1.562 1.244m198.493.74c0 .77.082 1.085.183.7.1-.385.1-1.015 0-1.4-.101-.385-.183-.07-.183.7m-301.592 1.8c.004.88.086 1.193.182.695.096-.497.092-1.217-.008-1.6-.1-.382-.179.025-.174.905m24.497.137c.436.515 1.155 1.122 1.598 1.349.849.435.725.301-1.193-1.292-1.155-.959-1.169-.961-.405-.057m277.414-.211c-.026.705.809 1.793 1.872 2.44l1.116.678-1.043-.922c-.574-.507-1.244-1.282-1.488-1.722-.245-.44-.45-.653-.457-.474M214.2 223.6c.44.189 1.16.338 1.6.332.643-.009.604-.075-.2-.332-1.368-.438-2.419-.438-1.4 0m-131.26.894c.569.363 4.213.348 5.146-.022.377-.15-.73-.272-2.46-.272s-2.939.132-2.686.294m182.36.982c.385.1 1.015.1 1.4 0 .385-.101.07-.183-.7-.183s-1.085.082-.7.183m-72.345 5.124c.001 2.86.065 3.978.142 2.483.077-1.494.077-3.834-.001-5.2-.078-1.365-.141-.143-.141 2.717m33.945-4.724c.385.1 1.015.1 1.4 0 .385-.101.07-.183-.7-.183s-1.085.082-.7.183m4.005.411c.609.092 1.509.09 2-.005.492-.095-.005-.171-1.105-.168-1.1.003-1.503.081-.895.173m27.6 0c.609.092 1.509.09 2-.005.492-.095-.005-.171-1.105-.168-1.1.003-1.503.081-.895.173m104.602.003c.719.089 1.799.087 2.4-.004s.013-.164-1.307-.162c-1.32.002-1.812.077-1.093.166m-126.396.403c.94.085 2.38.084 3.2-.002.819-.086.049-.155-1.711-.154-1.76.002-2.43.072-1.489.156m5.594-.01c.497.096 1.217.092 1.6-.008.382-.1-.025-.179-.905-.174-.88.004-1.193.086-.695.182m4.995-.007c.385.1 1.015.1 1.4 0 .385-.101.07-.183-.7-.183s-1.085.082-.7.183m4 .015c.825.087 2.175.087 3 0 .825-.086.15-.157-1.5-.157s-2.325.071-1.5.157M116.901 229.4c.004.88.086 1.193.182.695.096-.497.092-1.217-.008-1.6-.1-.382-.179.025-.174.905m-59.737.133c.216.403.707.988 1.091 1.3.432.351.335.071-.254-.733-1.05-1.435-1.444-1.702-.837-.567m119.017 1.367-1.581 1.7 1.7-1.581c1.581-1.471 1.884-1.819 1.581-1.819-.065 0-.83.765-1.7 1.7m-81.978.695c-.137.222.013.297.341.171.356-.136.66.062.775.505.151.585.197.551.235-.171.047-.916-.883-1.263-1.351-.505m47.392 2.287c-.107 1.585-.051 2.737.126 2.559.176-.177.264-1.474.195-2.882l-.125-2.559-.196 2.882M58.8 231.718c0 .102.847.879 1.881 1.727 1.035.848 1.753 1.333 1.595 1.078-.336-.544-3.476-3.078-3.476-2.805m85.6 1.229c.77.837 1.94 1.896 2.6 2.353 1.409.974 1.156.704-1.8-1.922-1.758-1.561-1.918-1.648-.8-.431m29.386.276c-.144.232-1.099.949-2.124 1.592-1.024.643-1.723 1.173-1.554 1.177.481.012 3.243-1.81 3.847-2.538.299-.36.442-.654.318-.654s-.343.19-.487.423m163.414-.298c0 .069.585.654 1.3 1.3l1.3 1.175-1.175-1.3c-1.095-1.212-1.425-1.484-1.425-1.175m58.83 1.475c-.002.576 1.127 2.866 1.156 2.346.008-.14-.249-.86-.57-1.6-.322-.74-.585-1.076-.586-.746m-278.03.348c0 .223.192.524.427.669.235.145.331.516.213.823-.118.308-.041.56.173.56.595 0 .459-1.185-.213-1.857-.33-.33-.6-.418-.6-.195m213.66 1.132c-.035.748-.351 1.45-.76 1.688-.385.224-.497.413-.249.42.795.021 1.412-1.106 1.238-2.264-.164-1.092-.171-1.088-.229.156m-235.311.22c.443.565 1.098.685 3.4.622l2.851-.079-2.783-.142c-1.531-.078-3.061-.357-3.4-.621-.541-.421-.55-.394-.068.22m-69.449.191c.825.087 2.175.087 3 0 .825-.086.15-.157-1.5-.157s-2.325.071-1.5.157m12.4.007a111.9 111.9 0 0 0 7 0c1.925-.073.35-.133-3.5-.133s-5.425.06-3.5.133m69.407.392c.719.089 1.799.087 2.4-.004s.013-.164-1.307-.162c-1.32.002-1.812.077-1.093.166m42.493.71c.77.297 1.85.541 2.4.543.579.002.158-.231-1-.552-2.522-.701-3.23-.696-1.4.009m192 0c.55.314 1.18.572 1.4.572.22 0-.05-.258-.6-.572-.55-.314-1.18-.572-1.4-.572-.22 0 .05.258.6.572m23.2 0c-.55.314-.82.572-.6.572.22 0 .85-.258 1.4-.572.55-.314.82-.572.6-.572-.22 0-.85.258-1.4.572m-296 .208c.992.31 5.487.525 5.167.247-.092-.079-1.517-.238-3.167-.352-1.693-.117-2.564-.072-2 .105m94.8-.008c-.824.264-.859.326-.2.354.44.019 1.07-.141 1.4-.354.701-.453.214-.453-1.2 0m128.6.378c-.88.417-1.487.772-1.349.79.389.05 3.149-1.154 3.149-1.373 0-.268-.001-.268-1.8.583m103.4-.445c0 .342-2.915.492-10.9.56l-10.9.093 10.773.114c10.074.106 12.187-.074 11.3-.96-.15-.15-.273-.063-.273.193m-319.293.357c.719.089 1.799.087 2.4-.004s.013-.164-1.307-.162c-1.32.002-1.812.077-1.093.166m235.371.008c2.353.071 6.313.071 8.8.001 2.487-.07.562-.128-4.278-.129-4.84 0-6.875.058-4.522.128m-155.765.397c1.163.081 2.963.081 4-.002 1.038-.082.087-.148-2.113-.147-2.2.001-3.049.068-1.887.149m188.287.105c.44.189 1.07.344 1.4.344.378 0 .304-.127-.2-.344-.44-.189-1.07-.344-1.4-.344-.378 0-.304.127.2.344m-145.8 1c.55.314 1.18.572 1.4.572.22 0-.05-.258-.6-.572-.55-.314-1.18-.572-1.4-.572-.22 0 .05.258.6.572m90.4 0c-.55.314-.82.572-.6.572.22 0 .85-.258 1.4-.572.55-.314.82-.572.6-.572-.22 0-.85.258-1.4.572m62.316.097c1.383.078 3.543.077 4.8-.002 1.256-.079.124-.143-2.516-.142-2.64 0-3.668.065-2.284.144M205.2 241.4c.55.314 1.18.572 1.4.572.22 0-.05-.258-.6-.572-.55-.314-1.18-.572-1.4-.572-.22 0 .05.258.6.572m29.105 6.883c.497.096 1.217.092 1.6-.008.382-.1-.025-.179-.905-.174-.88.004-1.193.086-.695.182m16.895.117-2.6.262 2.2.039c1.21.022 3.01-.104 4-.281 2.304-.41.375-.42-3.6-.02m-13.3.289c.715.089 1.885.089 2.6 0 .715-.088.13-.161-1.3-.161-1.43 0-2.015.073-1.3.161" fill="#809dc7"/><path d="M1.883 153.051c-.432.431-.328 20.659.109 21.349.313.493 1.54.6 6.894.6 3.583 0 8.629.045 11.214.1l4.7.1.091 8.5.092 8.5.117-8.372c.077-5.559-.027-8.515-.311-8.8-.273-.273-4.429-.5-11.508-.628L2.2 174.2l-.107-10.548-.106-10.547 35.306.198c19.419.108 35.601.321 35.96.472.892.375.895 19.283.003 20.357-.475.573-1.93.669-11.6.762L50.6 175l-.127 18.994c-.07 10.447-.025 18.892.099 18.767.125-.125.312-8.402.414-18.394.103-9.992.193-18.392.2-18.667.011-.388 2.482-.5 10.985-.5 9.441 0 11.06-.088 11.6-.629.971-.97.941-20.214-.032-21.022-.719-.597-71.269-1.086-71.856-.498m205.989.561c-1.5.39-2.85.844-3 1.008-.149.164.178.177.728.03 2.323-.624 5.19-1.135 8-1.427l3-.311-3-.005c-1.65-.003-4.227.314-5.728.705m12.528-.414c2.981.321 6.085.873 8 1.423.697.201.879.16.6-.136-.616-.652-4.434-1.343-8.2-1.483l-3.4-.126 3 .322m50.591-.187c-.225.107-1.479.329-2.787.492-1.577.197.377.297 5.809.297 5.256 0 7.471-.11 6.187-.306-2.682-.41-8.699-.725-9.209-.483M120.088 154.1c-.272.331-.441 12.57-.502 36.3-.113 44.164-.239 47.455-1.587 41.5-.311-1.375-.636-2.162-.721-1.75-.196.945 1.072 5.05 1.559 5.05.2 0 .363.363.363.806 0 .792-.202.805-11.285.7L96.63 236.6l-.5-1c-.275-.55-.605-1.675-.733-2.5-.289-1.856-.494-1.859-2.659-.037-3.683 3.1-8.286 4.55-15.738 4.959l-5.2.284 5.8-.117c5.842-.118 6.718-.286 10.711-2.054 1.161-.514 2.271-.935 2.467-.935.195 0 .415-.135.489-.3.073-.165.876-.876 1.785-1.58l1.652-1.281.268 1.681c.148.924.533 2.085.857 2.58l.589.9h22.748c20.375 0 22.774-.066 22.991-.633.134-.348.243-1.704.243-3.014v-2.381l1.3 1.503c4.661 5.387 12.283 7.569 20.557 5.885 1.729-.352 3.314-.802 3.523-1 .209-.198.623-.36.919-.36 1.659 0 6.993-4.37 9.52-7.8.649-.88-.285-.07-2.075 1.8-4.695 4.905-8.493 6.726-14.744 7.07-8.041.441-13.172-1.158-16.939-5.28-2.499-2.734-2.403-2.761-2.543.71l-.118 2.9-10.9.106c-10.191.1-10.9.061-10.904-.6-.036-6.702.086-79.504.135-80.506l.069-1.4H143l.224 3.6.225 3.6.075-3.42c.049-2.22-.092-3.588-.404-3.9-.703-.703-22.455-.684-23.032.02m143.512.3c-.497.321-.462.388.2.388.44 0 1.07-.175 1.4-.388.497-.321.462-.388-.2-.388-.44 0-1.07.175-1.4.388m19.2 0c.33.213.96.388 1.4.388.662 0 .697-.067.2-.388-.33-.213-.96-.388-1.4-.388-.662 0-.697.067-.2.388m-81.005 1.141C197.9 157.139 190 163.372 190 164.848c0 .162-.228.533-.506.823-.951.995-3.091 5.434-3.847 7.982-4.942 16.664 1.307 33.073 15.188 39.883 10.187 4.997 29.176 3.843 36.842-2.24 1.932-1.532 5.517-5.035 5.338-5.214-.105-.105-.961.598-1.903 1.563-11.948 12.246-38.453 11.453-49.377-1.477-9.392-11.116-9.649-30.777-.551-42.071 3.026-3.756 6.102-5.962 12.016-8.617 1.857-.834.648-.781-1.405.061M231 155.45c.88.335 1.933.789 2.339 1.007.406.219.835.303.952.186.117-.117-.306-.419-.939-.671a26.674 26.674 0 0 1-1.847-.815c-.382-.196-1.012-.348-1.4-.336-.388.011.015.294.895.629m29.4-.179c-.55.229-1.428.584-1.952.788-.523.204-.871.451-.774.549.185.185 4.265-1.214 4.643-1.592.353-.353-.84-.194-1.917.255m26.6.182c4.842 1.853 9.877 5.066 12 7.657.44.537 1.131 1.362 1.535 1.833 7.605 8.861 8.125 29.901.962 38.957-.264.334-.255.5.027.5.232 0 .536-.36.676-.8.14-.44.422-.8.627-.8a.382.382 0 0 0 .373-.389c0-.214.44-1.339.978-2.5 5.098-11 3.826-25.398-3.077-34.814-3.088-4.213-10.248-9.497-12.869-9.497-.322 0-.696-.18-.832-.4-.136-.22-.642-.391-1.124-.379-.612.014-.393.205.724.632m21.984-.153c-.105.275-.143 12.2-.085 26.5l.107 26 .097-26.271c.091-24.636.141-26.282.797-26.453.656-.172.655-.186-.013-.23-.391-.025-.798.179-.903.454m5.323-.21c.719.089 1.799.087 2.4-.004s.013-.164-1.307-.162c-1.32.002-1.812.077-1.093.166m13.065.003c3.909.113 4.604.232 4.778.819.153.515.183.487.122-.112-.076-.749-.383-.801-4.778-.82l-4.695-.02 4.573.133m-92.018 2.231c2.442 1.544 5.674 4.2 6.846 5.627.746.907 1.736 2.099 2.201 2.649l.846 1-.722-1.2c-1.9-3.159-8.093-8.688-9.606-8.576-.175.012.02.237.435.5m19.846.476c-.77.525-1.58.966-1.8.982-.719.049-8.456 8.418-7.783 8.418.412 0 1.583-1.156 1.583-1.563 0-.766 5.635-6.033 7.7-7.198 1.265-.714 2.3-1.375 2.3-1.468 0-.36-.651-.09-2 .829m76.77 35.083c-.071 19.864-.139 37.917-.15 40.117-.011 2.2-.166 4.225-.344 4.5-.529.818-22.151.714-22.406-.108-.132-.425-.169-.395-.124.1.085.929 22.215 1.319 22.974.404.438-.527.819-80.49.386-80.923-.113-.113-.265 16.046-.336 35.91m-118.886-22.211c-1.356.713-3.884 3.185-3.884 3.798 0 .243.735-.393 1.634-1.414.899-1.021 1.968-1.856 2.376-1.856.409 0 .854-.18.99-.4.859-1.39 7.183-.108 9.145 1.855 3.597 3.596 4.355 16.007 1.346 22.043-2.802 5.622-11.49 5.991-14.967.636-.271-.417-.487-.518-.5-.234-.158 3.357 8.28 5.667 12.597 3.449 5.903-3.033 7.252-20.344 2.032-26.088-2.144-2.359-7.875-3.311-10.769-1.789m58.438-.113c-5.216 1.405-6.922 5.013-6.922 14.641 0 8.739 1.043 11.608 5.001 13.762 4.246 2.311 10.023.754 12.272-3.309.532-.96.875-1.838.762-1.951-.113-.113-.427.313-.699.946-3.017 7.029-13.666 6.305-16.164-1.1-1.041-3.083-1.032-13.587.013-16.716 2.336-6.993 12.042-8.365 15.648-2.212 1.187 2.026 1.718 2.207.744.253-1.77-3.548-6.454-5.444-10.655-4.314M143.301 173.8c.004.88.086 1.193.182.695.096-.497.092-1.217-.008-1.6-.1-.382-.179.025-.174.905m-59.501.6c-1.272.174.256.277 4.2.281 4.469.005 5.586-.079 4-.298-2.627-.363-5.472-.357-8.2.017m-9 1.035-1.4.573 1.8-.269c.99-.148 2.88-.392 4.2-.543l2.4-.274-2.8-.031c-1.586-.017-3.407.219-4.2.544m22.4-.238c2.482.305 5.032.81 7.2 1.427.683.195.873.154.6-.127-.654-.674-4.189-1.396-7.4-1.511l-3-.108 2.6.319m56.6.254-1.2.586 1.4-.31c1.774-.394 10.085-.387 12.2.009l1.6.3-1.6-.612c-2.169-.83-10.684-.811-12.4.027m54.804.432c-1.697 4.128-1.56 16.521.202 18.283.505.505.542-.648.038-1.186-1.287-1.374-1.256-13.888.04-16.479.248-.495.353-.998.233-1.118-.12-.119-.351.105-.513.5M71.4 176.4c-.292.473.099.473 1.2 0 .771-.331.769-.345-.076-.372-.482-.015-.988.152-1.124.372m78.026.735c-1.803.972-6.226 4.929-6.226 5.569 0 .148.947-.667 2.106-1.811 1.158-1.143 3.273-2.708 4.7-3.477 1.426-.769 2.324-1.386 1.994-1.372-.33.015-1.488.506-2.574 1.091m209.05-.795c-.508.143 3.221.26 8.285.26 5.065 0 8.901-.122 8.524-.272-.871-.346-15.575-.335-16.809.012M68.2 177.537c-.66.364-1.275.708-1.367.763-.977.586.631.193 2.167-.53 1.1-.518 1.64-.931 1.2-.919-.44.012-1.34.321-2 .686m39.167.264c1.082.549 2.06.905 2.174.792.113-.114-.367-.423-1.067-.688-.701-.264-1.274-.621-1.274-.793 0-.171-.405-.311-.9-.31-.65.001-.353.279 1.067.999m62.666-.844c.64.603 3.167 1.755 3.167 1.444 0-.212-.45-.499-1-.637s-1-.411-1-.607c0-.197-.3-.357-.667-.357-.366 0-.591.071-.5.157m113.066 1.443c.367 2.238.347 10.778-.031 13.2l-.281 1.8.589-2c.787-2.674.798-10.158.018-12.8l-.59-2 .295 1.8m69.301-.944c-1.596.639-.672.571 2.6-.191l1.6-.373-1.4.002c-.77.001-2.03.254-2.8.562m26-.255c3.84.848 4.346.892 2.6.223-.88-.336-2.14-.594-2.8-.572-1.188.04-1.187.043.2.349m-29.2 1.199c-.533.345-.533.388 0 .388.33 0 .87-.175 1.2-.388.533-.345.533-.388 0-.388-.33 0-.87.175-1.2.388m34 0c.33.213.87.388 1.2.388.533 0 .533-.043 0-.388-.33-.213-.87-.388-1.2-.388-.533 0-.533.043 0 .388m-271.092 2.737c3.037 3.184 3.992 5.522 4.85 11.863.09.66.11.12.046-1.2-.173-3.53-1.087-6.783-2.401-8.538-1.198-1.6-3.968-4.462-4.319-4.462-.223 0 .597 1.052 1.824 2.337m63.197-.699c1.048.898 2.735 2.795 3.748 4.216 1.014 1.421 1.928 2.499 2.031 2.396.57-.571-6.208-8.254-7.275-8.247-.225.001.448.737 1.496 1.635M346 179.8c-.77.525-1.543.964-1.717.977-1.838.134-7.557 7.88-7.461 10.106.013.284.328-.212.7-1.102 1.894-4.524 4.495-7.402 8.63-9.548 1.236-.641 2.248-1.226 2.248-1.3 0-.394-1.17.029-2.4.867m41.242.305c4.106 2.372 5.836 4.365 7.37 8.495.674 1.816.752 3.584.849 19.2.14 22.785.248 25.091 1.301 27.729 1.19 2.984 1.6 2.871-10.391 2.871h-10.783l-.792-1.3c-.659-1.08-.793-1.158-.795-.462-.003 1.814.93 2.059 8.399 2.199 16.749.315 16.356.413 14.7-3.637-.887-2.17-.901-2.475-.994-22.6-.1-21.532-.193-22.753-2.014-26.4-.901-1.803-3.996-5.4-4.647-5.4-.144 0-.974-.45-1.845-1s-1.813-.998-2.092-.995c-.279.003.501.588 1.734 1.3m-324.486 1.222c-4.424 4.329-7.267 12.459-4.656 13.314 3.271 1.07 22.12.245 20.957-.917-.141-.142-.257-.047-.257.209 0 .555-19.861.67-20.728.12-1.77-1.122 1.733-9.619 5.328-12.926.66-.607 1.09-1.109.956-1.115-.134-.007-.854.585-1.6 1.315m118.49 6.473c.005.59 1.882 4.474 1.921 3.975.018-.234-.408-1.314-.946-2.4-.538-1.086-.977-1.795-.975-1.575m-98.353 1.267c-1.637.579-4.097 3.062-3.564 3.596.133.132.463-.247.735-.843.939-2.061 4.959-3.334 8.953-2.835 7.57.946 6.945 9.804-.692 9.817-.729.001-1.955.174-2.725.383-.77.21-3.11.576-5.2.814-7.153.815-11.37 1.683-12.2 2.511-.266.265-.065.308.6.126l3-.817c1.1-.299 5.06-.934 8.8-1.41 12.866-1.638 14.2-2.265 14.2-6.667 0-4.402-6.01-6.762-11.907-4.675m278.507 1.689c-1.857.857-3.06 2.111-3.784 3.944l-.513 1.3h-20.806l.254-2.1c.191-1.576.148-1.924-.172-1.393-.234.389-.371 1.379-.303 2.2l.124 1.493 10 .113c11.634.131 11.639.13 12.022-1.612.826-3.761 7.685-5.653 12.178-3.36 4.043 2.064 3.625 7.525-.649 8.474-.633.14-1.601.405-2.151.588l-1 .334 1.104.031c6.233.179 8.128-7.429 2.496-10.016-2.171-.997-6.636-.995-8.8.004m-213.2 1.814c-1.832.821-5.458 5.105-4.843 5.721.117.117.44-.306.716-.939 2.847-6.515 12.584-6.79 15.651-.443 3.673 7.6 1.339 23.491-3.45 23.491-.224 0-.292.115-.152.256.475.474 3.079-1.889 3.943-3.579 2.534-4.957 2.696-16.04.295-20.286-2.369-4.192-7.926-6.121-12.16-4.221m35.196.83c.297.758.671 2.672 1.407 7.2l.325 2-.125-2.4c-.167-3.185-.862-6.629-1.448-7.166-.357-.328-.396-.238-.159.366m-158.468 6.2c0 1.43.073 2.015.161 1.3.089-.715.089-1.885 0-2.6-.088-.715-.161-.13-.161 1.3m117.523 1.762c-.623 2.476-.52 9.665.168 11.638.552 1.583.555 1.585.323.2-.518-3.095-.585-9.817-.114-11.499.265-.948.391-1.816.279-1.928-.113-.112-.407.603-.656 1.589m219.442-.321c-.132.132-1.197.393-2.367.581-2.102.337-2.096.339.474.151 1.43-.104 3.5-.341 4.6-.528l2-.338-2.233-.054c-1.229-.029-2.342.055-2.474.188M116.959 206.8c0 3.19.062 4.495.138 2.9a73.8 73.8 0 0 0 0-5.8c-.076-1.595-.138-.29-.138 2.9M354 202.4c-.739.477.324.477 2.2 0l1.2-.305-1.4-.042c-.77-.022-1.67.134-2 .347m-109.003.505c-1.298 1.594-1.827 2.868-.621 1.495 1.109-1.262 1.271-1.331 1.648-.698 9.774 16.418 39.604 18.375 53.463 3.507 2.819-3.025 1.911-2.557-1.388.715-13.712 13.601-39.125 11.619-51.515-4.019-.891-1.126-1.284-1.373-1.587-1M64.2 203.944c-3.185 1.702-4.714 2.854-6 4.521a88.01 88.01 0 0 1-1.615 2.046c-.614.723-1.789 3.996-1.76 4.902.014.433.369-.258.788-1.535.732-2.226 1.654-3.811 3.372-5.8.837-.968 5.534-4.078 6.159-4.078.201 0 .88-.269 1.51-.598.894-.465.97-.589.346-.561-.44.019-1.7.516-2.8 1.103m285.58-.778c-.209.202-.83.459-1.38.573-.55.114-.37.143.4.066.77-.078 2.03-.317 2.8-.532l1.4-.391-1.42-.041c-.781-.023-1.591.124-1.8.325m-3.98 1.234c-.136.22.023.4.353.4.33 0 .711-.18.847-.4.136-.22-.023-.4-.353-.4-.33 0-.711.18-.847.4m-3.593 1.546c-3.433 1.816-9.023 8.172-8.046 9.149.107.106.594-.658 1.083-1.698 1.223-2.604 4.171-5.427 7.317-7.008 1.452-.729 2.639-1.385 2.639-1.457 0-.344-1.181.056-2.993 1.014M24.537 213c.002 1.76.072 2.43.156 1.489.085-.94.084-2.38-.002-3.2-.086-.819-.155-.049-.154 1.711m66.263-1.992c-1.43.501-3.95 1.214-5.6 1.585-3.571.801-5.631 1.874-6.536 3.406-2.615 4.427 2.134 9.113 8.368 8.259 5.298-.727 7.751-4.125 7.762-10.758.007-4.046.162-3.949-3.994-2.492m94.067.086c-.07 1.358-.658 4.185-1.339 6.436-.221.731-.307 1.424-.192 1.539.115.115.415-.574.668-1.53.253-.956.639-2.369.858-3.139.22-.77.326-2.12.236-3-.145-1.416-.171-1.451-.231-.306M94.292 214.1c-.499 8.195-6.38 12.227-12.982 8.901-6.214-3.13-3.201-8.451 5.88-10.385 1.865-.397 3.755-.906 4.2-1.131.446-.225 1.08-.551 1.41-.724 1.587-.831 1.727-.519 1.492 3.339m277.308-2.023c-.55.205-3.07.898-5.6 1.541-7.322 1.862-9.217 3.232-9.186 6.644.065 7.078 12.17 7.971 15.426 1.138.314-.66.344-.84.066-.4-3.217 5.089-10.956 6.168-14.245 1.986-2.683-3.41-.14-6.865 6.139-8.342 4.065-.956 5.908-1.474 6.695-1.883 2.15-1.117 2.438-.657 2.217 3.539-.113 2.145-.067 3.45.101 2.9.169-.55.325-2.376.347-4.057.043-3.311-.215-3.715-1.96-3.066M50.271 218.4c.092 2.97.024 8.19-.152 11.6l-.319 6.2-12 .038c-7.18.023-12.201-.118-12.5-.349-.363-.281-.516-2.37-.56-7.638L24.681 221l-.344 6.966c-.469 9.533-1.215 8.772 8.577 8.758 4.256-.006 9.662.12 12.013.28 3.023.206 4.438.157 4.83-.168.687-.571 1.244-17.689.697-21.436-.268-1.833-.311-1.123-.183 3m258.657-2.8c0 1.43.073 2.015.161 1.3.089-.715.089-1.885 0-2.6-.088-.715-.161-.13-.161 1.3m-165.728-.328c0 .434 1.269 2.724 1.635 2.95.212.13.001-.451-.468-1.292-.9-1.615-1.167-1.994-1.167-1.658m-26.238 6.528c0 3.52.062 4.906.136 3.081.074-1.825.074-4.705-.001-6.4-.075-1.695-.136-.201-.135 3.319m216.338-4.633c-.596 1.932-.669 7.882-.1 8.233.22.136.4.647.4 1.135 0 3.226 5.732 9.902 9.83 11.45 10.111 3.819 21.523 2.602 28.443-3.032l1.673-1.362.167 1.104c.156 1.034.171 1.022.227-.195.067-1.451-.676-1.746-1.591-.631-4.84 5.898-20.616 7.64-29.549 3.262-6.746-3.306-11.333-12.84-9.167-19.053.238-.683.373-1.532.3-1.886-.073-.355-.358.084-.633.975m-140.468-.467c.018.418.112.499.233.2.269-.668.639-.633 2.639.243 3.213 1.409 4 1.686 4.203 1.483.112-.112-.316-.392-.952-.623-1.287-.467-2.799-1.115-3.85-1.65-1.17-.595-2.308-.421-2.273.347m-138.605 1.8c-.127 1.155-.069 2.73.13 3.5.299 1.16.368.8.402-2.1.046-3.936-.186-4.547-.532-1.4m239.573-1.086c-.913.419-1.009.551-.4.554.44.002 1.25-.254 1.8-.568 1.27-.726.193-.715-1.4.014M146.238 219.8c.639.549 1.342.998 1.562.998.486-.002-1.85-1.963-2.362-1.984-.199-.008.161.436.8.986m54.245-.784c.369.37 4.473 1.785 5.111 1.763.333-.011-.564-.458-1.994-.993-2.549-.954-3.548-1.2-3.117-.77m88.317.199c-.33.202-1.383.563-2.34.802-.958.24-1.637.54-1.509.667.254.255 4.095-.877 5.049-1.488.831-.532-.33-.514-1.2.019m8.54 3.185c0 1.87.069 2.635.153 1.7.084-.935.084-2.465 0-3.4s-.153-.17-.153 1.7m-114.899-1.337a80.97 80.97 0 0 1-.888 1.832c-.547 1.076-.393 1.391.26.529.323-.428.587-1.088.587-1.467 0-.38.207-.759.46-.844.253-.084.382-.386.288-.67-.101-.303-.395-.045-.707.62m-33.441.196c.44.282 1.79.513 3 .513s2.56-.231 3-.513c.705-.452.635-.478-.6-.224-.77.158-1.85.288-2.4.288-.55 0-1.63-.13-2.4-.288-1.235-.254-1.305-.228-.6.224m57.835-.064c.349.205 1.339.546 2.2.759.861.212 3.005.744 4.765 1.182 15.31 3.804 38.274 4.519 54.6 1.7 6.409-1.107 9.093-1.725 8.454-1.945-.301-.104-1.831.091-3.4.434-9.537 2.079-13.961 2.475-27.654 2.475-14.381 0-17.984-.307-28.4-2.418-5.15-1.044-8.35-1.824-9.095-2.216-.985-.519-2.362-.492-1.47.029m75.165.035c-.55.19-1.81.606-2.8.926-.99.319-1.44.59-1 .601.44.01 2.06-.411 3.6-.937s2.44-.952 2-.946c-.44.006-1.25.166-1.8.356m-89.076 2.17c.002 1.32.077 1.812.166 1.093.089-.719.087-1.799-.004-2.4s-.164-.013-.162 1.307m115.627 4.2c0 2.53.065 3.565.145 2.3a44.671 44.671 0 0 0 0-4.6c-.08-1.265-.145-.23-.145 2.3m-253.584-2.667c.738 5.843 9.529 13.251 15.461 13.031.535-.02-.198-.351-1.628-.736-7.199-1.936-11.18-5.422-13.282-11.628-.655-1.934-.722-2.015-.551-.667m125.104.921c-.51.782-.858 1.493-.771 1.579.249.249 1.967-2.232 1.827-2.637-.07-.2-.545.276-1.056 1.058m12.392 7.384c-.069 2.906.174 3.302 2.737 4.46 7.809 3.528 11.029 4.738 20 7.513 3.073.95 5.526 1.503 8 1.803 1.39.168-.881-.498-5-1.467-6.113-1.438-23.549-7.966-24.916-9.328-.156-.156-.391-1.484-.521-2.951l-.237-2.668-.063 2.638M296 237.156c-1.838 1.341-13.322 5.65-19.311 7.245-1.052.28-1.818.604-1.702.719.219.219.796.063 7.013-1.89 7.304-2.294 15.2-5.649 15.2-6.458 0-.483-.024-.476-1.2.384m-24 8.492c-.77.191-2.57.615-4 .941-2.904.662-.862.54 2.963-.177 2.28-.427 4.422-1.238 3.037-1.149-.33.021-1.23.194-2 .385m-46.107 1.93c4.287 1.875 32.706 1.9 38.307.034 1.373-.457 1.521-.469-6.2.475-7.782.951-22.301.63-31.6-.699-1.159-.166-1.246-.133-.507.19" fill="#a3b9d7"/></g></svg>