<svg data-name="Layer 1" xmlns="http://www.w3.org/2000/svg" viewBox="0 0 400 400"><path d="M200 400c110.5 0 200-89.5 200-200S310.5 0 200 0 0 89.5 0 200s89.5 200 200 200" style="fill-rule:evenodd;fill:#20c0e7"/><path d="m97.4 199.9 34.1-34.2a6.1 6.1 0 1 0-8.7-8.6l-34 34.1-34.2-34.1a6.1 6.1 0 1 0-8.6 8.7l34.1 34.1L46 234a6.1 6.1 0 0 0 4.3 10.5 6 6 0 0 0 4.3-1.8l34.1-34.2 34 34a6.1 6.1 0 1 0 8.7-8.5l-34-34.2Zm202.5 0a11.1 11.1 0 1 0 11.1-11.1 11.1 11.1 0 0 0-11.1 11.1Zm-21 0a32.1 32.1 0 1 1 32.1 32.2 32.2 32.2 0 0 1-32.1-32.2Zm-12.6 0a44.8 44.8 0 1 0 44.7-44.8 44.9 44.9 0 0 0-44.8 44.8Zm-3.2-44.1h-1.9a25.3 25.3 0 0 0-15.6 5.3 6.2 6.2 0 0 0-6-4.8 6 6 0 0 0-6 6.1V238a6.1 6.1 0 0 0 12.2 0v-46.5c0-15.5 1.4-21.7 14.6-23.4h2.6c3.6-.1 6.2-2.6 6.2-6a6.1 6.1 0 0 0-6.1-6.1Zm-117.2 36.8v-.5a32.3 32.3 0 0 1 62.8.5h-62.8Zm75.3-1.2c-2.6-12.5-9.4-22.7-19.8-29.3a44.8 44.8 0 1 0-29.4 82.5 42.2 42.2 0 0 0 16.1-1.1 44.1 44.1 0 0 0 13.4-5.7 48.4 48.4 0 0 0 11.5-10.9l.2-.2c2.4-3 2-7.3-.7-9.4s-6-2.4-9 1.4l-2.1 2.8a35.3 35.3 0 0 1-8.8 7.1 32.2 32.2 0 0 1-15 3.8c-17.8-.2-27.3-12.6-30.6-21.5a33.1 33.1 0 0 1-1.4-5.2v-.9h63.7c8.7-.2 13.4-6.4 12.1-13.4Z" style="fill:#fff;fill-rule:evenodd"/></svg>