<svg id="Layer_1" data-name="Layer 1" xmlns="http://www.w3.org/2000/svg" width="66" height="39.18"><defs><style>.cls-2{fill:#03363d}</style></defs><path d="M68.55 49a18.45 18.45 0 0 1-1.93 8.25H33.33A18.58 18.58 0 1 1 68.55 49Z" transform="translate(-17 -30.41)" style="fill:#f6d038"/><g id="Group-32"><path id="Fill-1" class="cls-2" d="m51.42 68.65.77-.43a1.16 1.16 0 0 0 1.05.58c.5 0 .75-.24.75-.52s-.48-.4-1-.51c-.68-.14-1.4-.35-1.4-1.18a1.39 1.39 0 0 1 1.55-1.22 1.83 1.83 0 0 1 1.64.78l-.72.39a1 1 0 0 0-.92-.45c-.47 0-.69.21-.69.48s.34.35 1 .48 1.42.37 1.44 1.2c0 .61-.54 1.28-1.65 1.28a1.84 1.84 0 0 1-1.8-.88" transform="translate(-17 -30.41)"/><path id="Fill-3" class="cls-2" d="M55.45 67.79v-2.33h.87v2.25c0 .65.33 1.08 1 1.08a1 1 0 0 0 1-1.13v-2.2h.86v4h-.85v-.52a1.5 1.5 0 0 1-1.21.6 1.55 1.55 0 0 1-1.66-1.74" transform="translate(-17 -30.41)"/><path id="Fill-5" class="cls-2" d="M60 65.46h.84V66a1.6 1.6 0 0 1 2.85 1.13v2.33h-.86v-2.28c0-.65-.32-1.07-1-1.07a1 1 0 0 0-1 1.14v2.2H60v-4Z" transform="translate(-17 -30.41)"/><path id="Fill-7" class="cls-2" d="m64.22 68.62.76-.43a1.14 1.14 0 0 0 1.06.58c.5 0 .75-.24.75-.52s-.48-.39-1-.51c-.68-.14-1.4-.35-1.4-1.18 0-.64.61-1.22 1.56-1.22a1.84 1.84 0 0 1 1.63.78l-.72.4a1 1 0 0 0-.91-.46c-.47 0-.69.22-.69.48s.33.36 1 .48 1.43.37 1.44 1.2c0 .61-.53 1.29-1.65 1.29a1.87 1.87 0 0 1-1.79-.89" transform="translate(-17 -30.41)"/><g id="Group-11"><path id="Fill-9" class="cls-2" d="M68.3 63.59h.84v2.35a1.53 1.53 0 0 1 1.23-.6A1.55 1.55 0 0 1 72 67.08v2.33h-.86v-2.26c0-.66-.32-1.07-1-1.07a1 1 0 0 0-1 1.14v2.2h-.84Z" transform="translate(-17 -30.41)"/></g><path id="Fill-12" class="cls-2" d="M72.81 65.43h.86v4h-.86Zm.43-1.78a.58.58 0 0 1 0 1.16.57.57 0 0 1-.58-.58.55.55 0 0 1 .53-.58Z" transform="translate(-17 -30.41)"/><path id="Fill-14" class="cls-2" d="M74.49 65.42h.85v.52a1.49 1.49 0 0 1 1.23-.61 1.55 1.55 0 0 1 1.62 1.74v2.32h-.86v-2.25c0-.65-.33-1.08-1-1.08a1 1 0 0 0-1 1.15v2.2h-.86Z" transform="translate(-17 -30.41)"/><path id="Fill-16" class="cls-2" d="M79.73 67h2.4a1.11 1.11 0 0 0-1.19-.89 1.22 1.22 0 0 0-1.21.89m-.86.44a2 2 0 0 1 2-2.1h.06a2 2 0 0 1 2.06 2v.34h-3.31a1.22 1.22 0 0 0 1.29 1 1.25 1.25 0 0 0 1.17-.68l.7.4A2 2 0 0 1 81 69.46a2 2 0 0 1-2.11-2" transform="translate(-17 -30.41)"/><path id="Fill-18" class="cls-2" d="M38.47 67.12a1 1 0 0 0-1-.93 1.07 1.07 0 0 0-1.13 1Zm-1 1.62a1.49 1.49 0 0 0 1.1-.42l.55.59a2.14 2.14 0 0 1-1.63.65 2.08 2.08 0 1 1-.21-4.16h.07a2 2 0 0 1 2 2.4h-3.08a1.17 1.17 0 0 0 1.24.94Z" transform="translate(-17 -30.41)"/><path id="Fill-20" class="cls-2" d="m0 38.34 2.4-2.46H.06l-.02-.76h3.47v.78l-2.4 2.45 2.45-.01v.77H0v-.77z"/><path id="Fill-22" class="cls-2" d="M24.2 67.15a1 1 0 0 0-1.06-.93 1.07 1.07 0 0 0-1.13.94Zm-.95 1.62a1.51 1.51 0 0 0 1.1-.42l.55.59a2.17 2.17 0 0 1-1.64.65 2.08 2.08 0 1 1-.21-4.16h.07a2 2 0 0 1 2 2.4H22a1.14 1.14 0 0 0 1.24.94Z" transform="translate(-17 -30.41)"/><path id="Fill-24" class="cls-2" d="M33.72 67.47a1.27 1.27 0 1 0-1.27 1.3 1.26 1.26 0 0 0 1.27-1.3m-3.37 0a2 2 0 0 1 2-2.07 1.7 1.7 0 0 1 1.33.59v-2.34h.84v5.83h-.85v-.55a1.69 1.69 0 0 1-1.34.63 2 2 0 0 1-2-2.07" transform="translate(-17 -30.41)"/><path id="Fill-26" class="cls-2" d="m40 68.62.77-.4a1.15 1.15 0 0 0 1 .58c.48 0 .74-.25.74-.52s-.47-.4-1-.49c-.67-.15-1.38-.37-1.39-1.19 0-.63.59-1.21 1.55-1.21a1.81 1.81 0 0 1 1.61.77l-.71.4a1 1 0 0 0-.9-.45c-.45 0-.69.22-.69.48s.37.36.94.49 1.4.35 1.41 1.18c0 .56-.47 1.3-1.62 1.29a1.94 1.94 0 0 1-1.71-.93" transform="translate(-17 -30.41)"/><path id="Fill-28" class="cls-2" d="m28.66 37.26-.68.75v1.03h-.85l-.01-5.83h.84l.02 3.81 1.79-1.97h1.04l-1.56 1.71 1.61 2.28h-.96l-1.24-1.78z"/><path id="Fill-30" class="cls-2" d="M27.76 65.42a1.72 1.72 0 0 0-1.84 1.74v2.33h.86v-2.23a1 1 0 0 1 1-1.05c.64 0 1 .39 1 1v2.23h.86v-2.29a1.7 1.7 0 0 0-1.85-1.73" transform="translate(-17 -30.41)"/></g></svg>