<svg xmlns="http://www.w3.org/2000/svg" viewBox="0 0 56.988 61.344"><path d="M.006,54.716C-.234,42.3,6.5,31.011,15.709,23.1A78.941,78.941,0,0,1,31.044,13.015C36.9,10,43.064,7.3,49.756,7.239a1.625,1.625,0,0,1,1.621,1.621A21.414,21.414,0,0,1,47.983,18.1C47,19.585,44.5,18.7,45.02,16.856q.766-2.686,1.528-5.373l.655-2.3a9.907,9.907,0,0,0,.733-2.421c-.112-.664-3.327-1.622-4.105-1.916-1.642-.621-3.309-1.16-5-1.648-2-.579-1.149-3.708.862-3.125a65.151,65.151,0,0,1,6.744,2.34c1.42.585,3.647,1.147,4.433,2.63.817,1.544-.113,3.489-.543,5l-2.183,7.672-2.963-1.248a17.914,17.914,0,0,0,2.951-7.609q.812.81,1.621,1.621c-6.222.06-11.957,2.676-17.383,5.492A74.77,74.77,0,0,0,18,25.4C9.414,32.774,3.022,43.1,3.248,54.716c.041,2.086-3.2,2.086-3.241,0" transform="translate(0 5.371) rotate(-6)" /></svg>