<svg xmlns="http://www.w3.org/2000/svg" viewBox="0 0 222.681 155.806"><path d="M480.243,278.393c-27.133-4.593-50.749-21.434-67.767-42.565-19.28-23.938-30.4-53.222-38.851-82.457-1.772-6.137-3.761-12.305-4.078-18.732-.249-5.035.453-10.743,4.037-14.59,4.045-4.339,10.49-4.488,15.466-1.728a17.908,17.908,0,0,1,8.81,13.249c1.455,10.4-4.8,21.686-14.452,25.854-11.76,5.075-25.467.6-34.667-7.531-10.773-9.523-15.419-24.143-17.458-37.944-2.145-14.519-2.535-29.964,2.229-44.031a58.5,58.5,0,0,1,4.322-9.728,1.642,1.642,0,0,1,2.538-.327,23,23,0,0,1,7.875,12.148c.456,1.72-2.113,2.926-2.956,1.245q-3.279-6.533-6.554-13.068.912.371,1.825.744L328.4,63.851c-1.929.779-2.766-2.348-.86-3.119L339.7,55.814a1.616,1.616,0,0,1,1.827.744q3.276,6.533,6.554,13.068l-2.955,1.245a20.146,20.146,0,0,0-7.043-10.721l2.54-.327c-6.807,12.207-8.216,26.413-7.372,40.154.818,13.3,3.18,27.353,10.381,38.814,6.381,10.155,17.626,17.941,29.981,17.532a21.922,21.922,0,0,0,21.05-19.068,16.4,16.4,0,0,0-3.605-13.232c-3.743-4.166-10.667-6.349-15.039-1.843-3.4,3.505-3.533,9.206-3.154,13.764.5,6,2.5,11.853,4.176,17.605,7.857,27,18.032,53.927,35.066,76.586,14.926,19.856,35.621,36.429,59.833,43.118a91.806,91.806,0,0,0,9.159,2.021c2.047.348,1.179,3.465-.86,3.119" transform="translate(278.42 -326.466) rotate(90)" /></svg>