<svg xmlns="http://www.w3.org/2000/svg" viewBox="0 0 532 377.45"><path d="M323.12,121.52A17,17,0,0,0,299,145.6l25.77,25.76H227.92L192.64,53.76A17.31,17.31,0,0,0,176.4,41.44H114.8a58.72,58.72,0,1,0-56,76.16,58.47,58.47,0,0,0,56-41.44h49.28l33.6,112.56-33.6,112.56H114.8a58.81,58.81,0,1,0,0,34.72h61.6a17.3,17.3,0,0,0,16.24-12.32l35.28-117.6h97.44L299.6,231.85a16.89,16.89,0,0,0,0,24.07,17.58,17.58,0,0,0,24.64,0l54.88-54.87a16.9,16.9,0,0,0,0-24.08Z"/><path d="M532,188.72a58.8,58.8,0,1,1-58.8-58.8,58.8,58.8,0,0,1,58.8,58.8"/></svg>