<svg xmlns="http://www.w3.org/2000/svg" viewBox="0 0 531.99 532.02"><path d="M478,106a19.11,19.11,0,0,0-1.27-1.69,265,265,0,0,0-421.54,0c-.49.49-.81,1.16-1.25,1.69A264.11,264.11,0,0,0,54,426a14.92,14.92,0,0,0,1.27,1.69,265,265,0,0,0,422-.55,18.35,18.35,0,0,0,2.43-3.25A264,264,0,0,0,478,106Zm-21.64,34.87A226.32,226.32,0,0,1,493,247H379.62a609.43,609.43,0,0,0-8.38-84.4,482.38,482.38,0,0,0,85.14-21.7Zm-25.1-31.52a471,471,0,0,1-67.75,16,293.87,293.87,0,0,0-30.19-77.24,228,228,0,0,1,97.94,61.23ZM190.34,247a560.71,560.71,0,0,1,7.72-79.81A669.64,669.64,0,0,0,266,171a667,667,0,0,0,67.91-3.81A560.71,560.71,0,0,1,341.59,247Zm151.25,38a560.56,560.56,0,0,1-7.71,79.8,683.4,683.4,0,0,0-135.82,0,560.43,560.43,0,0,1-7.72-79.8ZM266,38c19.61,0,44,33.21,59.77,91.86a643.23,643.23,0,0,1-119.53,0C222,71.22,246.36,38,266,38ZM198.65,48.17a293.18,293.18,0,0,0-30.19,77.24,468.33,468.33,0,0,1-67.75-16A227.94,227.94,0,0,1,198.65,48.17ZM75.56,140.91a480.48,480.48,0,0,0,85.15,21.68A609.72,609.72,0,0,0,152.33,247H38.93a226.31,226.31,0,0,1,36.63-106.1Zm0,250.2A226.31,226.31,0,0,1,38.93,285H152.32a606.23,606.23,0,0,0,8.38,84.4,481.51,481.51,0,0,0-85.14,21.7Zm25.1,31.52a473,473,0,0,1,67.75-16,293.87,293.87,0,0,0,30.19,77.24,227.92,227.92,0,0,1-97.94-61.22ZM266,494c-19.61,0-44-33.21-59.77-91.87a645,645,0,0,1,119.53,0C310,460.8,285.57,494,266,494Zm67.32-10.17h0a293.49,293.49,0,0,0,30.23-77.24,468.78,468.78,0,0,1,67.76,16,228,228,0,0,1-98,61.24Zm123.09-92.74a481.46,481.46,0,0,0-85.14-21.68A612.81,612.81,0,0,0,379.61,285H493a226.32,226.32,0,0,1-36.64,106.1Z"/></svg>