<svg xmlns="http://www.w3.org/2000/svg" viewBox="0 0 503.7 512"><circle cx="87.7" cy="87.7" r="87.7"/><path d="M154.8,337.1H21.6A21,21,0,0,0,.5,358V491.4a21,21,0,0,0,20.9,21.1H154.8a21,21,0,0,0,21.1-20.9V358.2a21.1,21.1,0,0,0-21.1-21.1Z" transform="translate(-0.5 -0.5)"/><path d="M501.6,161.4,430.1,18.3a10,10,0,0,0-17.8,0L340.7,161.4a10,10,0,0,0,8.9,14.4H492.7a9.89,9.89,0,0,0,8.9-14.4Z" transform="translate(-0.5 -0.5)"/><path d="M322.5,85.3a8,8,0,0,0-1.8-2.7l-31.3-31a7.71,7.71,0,1,0-11.06,10.74,3.19,3.19,0,0,0,.26.26l18,17.8H211.7a7.7,7.7,0,1,0,0,15.4h84.8l-18,17.8A7.71,7.71,0,0,0,289,124.86l.26-.26s31.4-31,31.4-31.1A7.57,7.57,0,0,0,322.5,85.3Z" transform="translate(-0.5 -0.5)"/><path d="M124.7,243.7a7.92,7.92,0,0,0,.1-10.9L93.7,201.4a7.48,7.48,0,0,0-3.9-2.1c-.1,0-.1,0-.3-.1a7.65,7.65,0,0,0-4.2.5,6.73,6.73,0,0,0-2.6,1.8l-31,31.3a7.71,7.71,0,0,0,11,10.8l17.8-18v84.8a7.7,7.7,0,0,0,15.4,0V225.6l17.8,18a7.76,7.76,0,0,0,11,.13Z" transform="translate(-0.5 -0.5)"/><path d="M384.7,269.3a7.73,7.73,0,0,0-.1,10.9l31,31.3a7.73,7.73,0,0,0,10.93.07l.07-.07s31-31.3,31-31.4a7.73,7.73,0,0,0-.1-10.9,7.64,7.64,0,0,0-10.8,0l-.1.1-17.8,18V202.5a7.7,7.7,0,0,0-15.4,0v84.8l-17.8-18A7.73,7.73,0,0,0,384.7,269.3Z" transform="translate(-0.5 -0.5)"/><path d="M445.6,346.3H396.7a24,24,0,0,0-17,7l-34.6,34.6a24,24,0,0,0-7,17v48.9a24,24,0,0,0,7,17l34.6,34.7a24,24,0,0,0,17,7h48.9a24,24,0,0,0,17-7l34.6-34.6a24,24,0,0,0,7-17V405a24,24,0,0,0-7-17l-34.6-34.6A23.65,23.65,0,0,0,445.6,346.3Z" transform="translate(-0.5 -0.5)"/></svg>